<svg width="50" height="55" viewBox="0 0 50 55" fill="none" xmlns="http://www.w3.org/2000/svg">
<path d="M49.9999 41.25C45.5797 44.8967 39.5845 46.9454 33.3333 46.9454C27.0821 46.9454 21.0869 44.8967 16.6666 41.25C12.2464 37.6033 9.76307 32.6573 9.76307 27.5C9.76307 22.3428 12.2464 17.3968 16.6666 13.7501L33.3333 27.5L49.9999 41.25Z" fill="#094085" fill-opacity="0.7"/>
<path d="M16.6667 41.25C12.2464 37.6032 9.76313 32.6572 9.76313 27.5C9.76313 22.3427 12.2464 17.3967 16.6667 13.75C21.087 10.1033 27.0821 8.05457 33.3333 8.05457C39.5845 8.05457 45.5797 10.1033 50 13.75L33.3333 27.5L16.6667 41.25Z" fill="#1171E8" fill-opacity="0.75"/>
</svg>
