<svg width="1061" height="508" viewBox="0 0 1061 508" fill="none" xmlns="http://www.w3.org/2000/svg">
<g clip-path="url(#clip0_257_3)">
<path d="M565.623 76.2311V79.2311H568.623H828.793C832.665 79.2311 836.378 80.7691 839.116 83.5068C841.854 86.2445 843.393 89.9576 843.393 93.8292V450.081C843.393 453.953 841.855 457.667 839.117 460.405C836.379 463.143 832.665 464.681 828.793 464.681H189.41C185.538 464.681 181.824 463.143 179.086 460.405C176.348 457.667 174.81 453.953 174.81 450.081V93.8311C174.81 89.959 176.348 86.2454 179.086 83.5074C181.824 80.7694 185.538 79.2311 189.41 79.2311H450.652H453.652V76.2311V73.8691H565.623V76.2311Z" stroke="white" stroke-width="6"/>
<path d="M198.406 458.245V110.332H819.797V458.245H198.406Z" stroke="white" stroke-width="6"/>
<path d="M225.013 428.961V129.048H793.404V428.961H225.013Z" stroke="white" stroke-width="6"/>
<path d="M512 91.2465C512 93.1436 510.462 94.6815 508.565 94.6815C506.668 94.6815 505.13 93.1436 505.13 91.2465C505.13 89.3494 506.668 87.8115 508.565 87.8115C510.462 87.8115 512 89.3494 512 91.2465Z" stroke="white" stroke-width="6"/>
<mask id="path-5-inside-1_257_3" fill="white">
<path d="M864.007 454.81H802.778V450.398C802.778 450.166 802.686 449.944 802.522 449.78C802.358 449.616 802.135 449.523 801.903 449.523H780.91C780.678 449.523 780.455 449.616 780.291 449.78C780.127 449.944 780.035 450.166 780.035 450.398V454.81H766.915V450.398C766.915 450.166 766.823 449.944 766.659 449.78C766.495 449.616 766.272 449.523 766.04 449.523H745.047C744.815 449.523 744.592 449.616 744.428 449.78C744.264 449.944 744.172 450.166 744.172 450.398V454.81H731.052V450.398C731.052 450.166 730.96 449.944 730.796 449.78C730.632 449.616 730.409 449.523 730.177 449.523H709.184C708.952 449.523 708.729 449.616 708.565 449.78C708.401 449.944 708.309 450.166 708.309 450.398V454.81H695.189V450.398C695.189 450.166 695.097 449.944 694.933 449.78C694.769 449.616 694.546 449.523 694.314 449.523H673.322C673.09 449.523 672.867 449.616 672.703 449.78C672.539 449.944 672.447 450.166 672.447 450.398V454.81H659.326V450.398C659.326 450.166 659.234 449.944 659.07 449.78C658.906 449.616 658.683 449.523 658.451 449.523H637.459C637.227 449.523 637.004 449.616 636.84 449.78C636.676 449.944 636.584 450.166 636.584 450.398V454.81H623.463V450.398C623.463 450.166 623.371 449.944 623.207 449.78C623.043 449.616 622.82 449.523 622.588 449.523H601.6C601.368 449.523 601.145 449.616 600.981 449.78C600.817 449.944 600.725 450.166 600.725 450.398V454.81H587.6V450.398C587.6 450.166 587.508 449.944 587.344 449.78C587.18 449.616 586.957 449.523 586.725 449.523H422.281C422.049 449.523 421.826 449.616 421.662 449.78C421.498 449.944 421.406 450.166 421.406 450.398V454.81H408.286V450.398C408.286 450.166 408.194 449.944 408.03 449.78C407.866 449.616 407.643 449.523 407.411 449.523H386.418C386.186 449.523 385.963 449.616 385.799 449.78C385.635 449.944 385.543 450.166 385.543 450.398V454.81H372.423V450.398C372.423 450.166 372.331 449.944 372.167 449.78C372.003 449.616 371.78 449.523 371.548 449.523H350.556C350.324 449.523 350.101 449.616 349.937 449.78C349.773 449.944 349.681 450.166 349.681 450.398V454.81H336.56V450.398C336.56 450.166 336.468 449.944 336.304 449.78C336.14 449.616 335.917 449.523 335.685 449.523H314.693C314.461 449.523 314.238 449.616 314.074 449.78C313.91 449.944 313.818 450.166 313.818 450.398V454.81H300.7V450.398C300.7 450.166 300.608 449.944 300.444 449.78C300.28 449.616 300.057 449.523 299.825 449.523H278.83C278.598 449.523 278.375 449.616 278.211 449.78C278.047 449.944 277.955 450.166 277.955 450.398V454.81H264.835V450.398C264.835 450.166 264.743 449.944 264.579 449.78C264.415 449.616 264.192 449.523 263.96 449.523H242.967C242.735 449.523 242.512 449.616 242.348 449.78C242.184 449.944 242.092 450.166 242.092 450.398V454.81H228.972V450.398C228.972 450.166 228.88 449.944 228.716 449.78C228.552 449.616 228.329 449.523 228.097 449.523H207.1C206.868 449.523 206.645 449.616 206.481 449.78C206.317 449.944 206.225 450.166 206.225 450.398V454.81H165.993C160.425 454.81 155.086 457.022 151.149 460.959C147.212 464.896 145 470.236 145 475.803V485.296C145 490.863 147.212 496.203 151.149 500.14C155.086 504.077 160.425 506.289 165.993 506.289H864.007C869.575 506.289 874.914 504.077 878.851 500.14C882.788 496.203 885 490.864 885 485.297V475.805C885 470.237 882.788 464.897 878.851 460.96C874.914 457.023 869.575 454.812 864.007 454.812V454.81Z"/>
</mask>
<path d="M864.007 454.81H802.778V450.398C802.778 450.166 802.686 449.944 802.522 449.78C802.358 449.616 802.135 449.523 801.903 449.523H780.91C780.678 449.523 780.455 449.616 780.291 449.78C780.127 449.944 780.035 450.166 780.035 450.398V454.81H766.915V450.398C766.915 450.166 766.823 449.944 766.659 449.78C766.495 449.616 766.272 449.523 766.04 449.523H745.047C744.815 449.523 744.592 449.616 744.428 449.78C744.264 449.944 744.172 450.166 744.172 450.398V454.81H731.052V450.398C731.052 450.166 730.96 449.944 730.796 449.78C730.632 449.616 730.409 449.523 730.177 449.523H709.184C708.952 449.523 708.729 449.616 708.565 449.78C708.401 449.944 708.309 450.166 708.309 450.398V454.81H695.189V450.398C695.189 450.166 695.097 449.944 694.933 449.78C694.769 449.616 694.546 449.523 694.314 449.523H673.322C673.09 449.523 672.867 449.616 672.703 449.78C672.539 449.944 672.447 450.166 672.447 450.398V454.81H659.326V450.398C659.326 450.166 659.234 449.944 659.07 449.78C658.906 449.616 658.683 449.523 658.451 449.523H637.459C637.227 449.523 637.004 449.616 636.84 449.78C636.676 449.944 636.584 450.166 636.584 450.398V454.81H623.463V450.398C623.463 450.166 623.371 449.944 623.207 449.78C623.043 449.616 622.82 449.523 622.588 449.523H601.6C601.368 449.523 601.145 449.616 600.981 449.78C600.817 449.944 600.725 450.166 600.725 450.398V454.81H587.6V450.398C587.6 450.166 587.508 449.944 587.344 449.78C587.18 449.616 586.957 449.523 586.725 449.523H422.281C422.049 449.523 421.826 449.616 421.662 449.78C421.498 449.944 421.406 450.166 421.406 450.398V454.81H408.286V450.398C408.286 450.166 408.194 449.944 408.03 449.78C407.866 449.616 407.643 449.523 407.411 449.523H386.418C386.186 449.523 385.963 449.616 385.799 449.78C385.635 449.944 385.543 450.166 385.543 450.398V454.81H372.423V450.398C372.423 450.166 372.331 449.944 372.167 449.78C372.003 449.616 371.78 449.523 371.548 449.523H350.556C350.324 449.523 350.101 449.616 349.937 449.78C349.773 449.944 349.681 450.166 349.681 450.398V454.81H336.56V450.398C336.56 450.166 336.468 449.944 336.304 449.78C336.14 449.616 335.917 449.523 335.685 449.523H314.693C314.461 449.523 314.238 449.616 314.074 449.78C313.91 449.944 313.818 450.166 313.818 450.398V454.81H300.7V450.398C300.7 450.166 300.608 449.944 300.444 449.78C300.28 449.616 300.057 449.523 299.825 449.523H278.83C278.598 449.523 278.375 449.616 278.211 449.78C278.047 449.944 277.955 450.166 277.955 450.398V454.81H264.835V450.398C264.835 450.166 264.743 449.944 264.579 449.78C264.415 449.616 264.192 449.523 263.96 449.523H242.967C242.735 449.523 242.512 449.616 242.348 449.78C242.184 449.944 242.092 450.166 242.092 450.398V454.81H228.972V450.398C228.972 450.166 228.88 449.944 228.716 449.78C228.552 449.616 228.329 449.523 228.097 449.523H207.1C206.868 449.523 206.645 449.616 206.481 449.78C206.317 449.944 206.225 450.166 206.225 450.398V454.81H165.993C160.425 454.81 155.086 457.022 151.149 460.959C147.212 464.896 145 470.236 145 475.803V485.296C145 490.863 147.212 496.203 151.149 500.14C155.086 504.077 160.425 506.289 165.993 506.289H864.007C869.575 506.289 874.914 504.077 878.851 500.14C882.788 496.203 885 490.864 885 485.297V475.805C885 470.237 882.788 464.897 878.851 460.96C874.914 457.023 869.575 454.812 864.007 454.812V454.81Z" stroke="white" stroke-width="12" mask="url(#path-5-inside-1_257_3)"/>
<path d="M385.209 411.504V150.504H633.209V411.504H385.209Z" stroke="white" stroke-width="6"/>
<mask id="path-7-inside-2_257_3" fill="white">
<path d="M1061 505.397H0V507.397H1061V505.397Z"/>
</mask>
<path d="M0 505.397V499.397H-6V505.397H0ZM1061 505.397H1067V499.397H1061V505.397ZM1061 507.397V513.397H1067V507.397H1061ZM0 507.397H-6V513.397H0V507.397ZM0 511.397H1061V499.397H0V511.397ZM1055 505.397V507.397H1067V505.397H1055ZM1061 501.397H0V513.397H1061V501.397ZM6 507.397V505.397H-6V507.397H6Z" fill="white" mask="url(#path-7-inside-2_257_3)"/>
<path d="M969.737 470.049C967.512 469.606 964.44 468.87 960.957 467.693C953.777 465.268 945.053 461.037 938.33 453.823C931.607 446.609 928.001 437.609 926.087 430.276C925.159 426.719 924.641 423.603 924.355 421.352C926.58 421.796 929.652 422.531 933.135 423.708C940.315 426.133 949.039 430.364 955.762 437.578C962.486 444.792 966.091 453.792 968.005 461.125C968.933 464.682 969.451 467.798 969.737 470.049Z" stroke="white" stroke-width="6"/>
<path d="M1001.17 457.416L1001.17 457.416C993.955 464.139 984.955 467.745 977.622 469.659C974.064 470.587 970.948 471.105 968.697 471.391C969.141 469.166 969.877 466.094 971.053 462.611C973.479 455.431 977.709 446.707 984.923 439.984C992.137 433.261 1001.14 429.655 1008.47 427.741C1012.03 426.813 1015.14 426.295 1017.4 426.009C1016.95 428.234 1016.22 431.306 1015.04 434.789C1012.61 441.969 1008.38 450.693 1001.17 457.416Z" stroke="white" stroke-width="6"/>
<path d="M1000.87 501.971C1000.44 502.236 999.958 502.383 999.459 502.396H999.38H942.641H942.64C942.114 502.397 941.599 502.249 941.154 501.97C940.708 501.692 940.35 501.293 940.12 500.82L940.12 500.819L927.767 475.426L927.765 475.424C927.557 474.997 927.461 474.524 927.486 474.049C927.511 473.575 927.656 473.114 927.909 472.711C928.161 472.309 928.511 471.976 928.927 471.746C929.342 471.516 929.81 471.396 930.285 471.396H930.288L1011.73 471.396L1011.74 471.396C1012.21 471.396 1012.68 471.516 1013.1 471.747C1013.51 471.977 1013.86 472.309 1014.11 472.711C1014.37 473.114 1014.51 473.575 1014.54 474.049C1014.56 474.524 1014.46 474.997 1014.26 475.424L1014.26 475.426L1001.9 500.82L1001.9 500.821C1001.67 501.294 1001.31 501.693 1000.87 501.971Z" stroke="white" stroke-width="6"/>
<path d="M72.737 470.049C70.5118 469.606 67.4398 468.87 63.9568 467.693C56.7768 465.268 48.0529 461.037 41.3298 453.823C34.6067 446.609 31.0013 437.609 29.0874 430.276C28.1589 426.719 27.6412 423.603 27.3552 421.352C29.5804 421.796 32.6525 422.531 36.1355 423.708C43.3154 426.133 52.0393 430.364 58.7624 437.578C65.4855 444.792 69.091 453.792 71.0049 461.125C71.9333 464.682 72.451 467.798 72.737 470.049Z" stroke="white" stroke-width="6"/>
<path d="M94.8682 501.971C94.4446 502.236 93.9581 502.383 93.4595 502.396H93.3799H36.6409H36.6397C36.1142 502.397 35.5991 502.249 35.1536 501.97C34.708 501.692 34.3499 501.293 34.1202 500.82L34.1196 500.819L21.7666 475.426L21.7654 475.424C21.5572 474.997 21.461 474.524 21.4861 474.049C21.5111 473.575 21.6564 473.114 21.9085 472.711C22.1605 472.309 22.5109 471.976 22.9266 471.746C23.3423 471.516 23.8098 471.396 24.2849 471.396H24.2879L105.734 471.396L105.737 471.396C106.212 471.396 106.679 471.516 107.095 471.746C107.511 471.976 107.861 472.309 108.113 472.711C108.365 473.114 108.511 473.575 108.536 474.049C108.561 474.524 108.465 474.997 108.256 475.424L108.255 475.426L95.9022 500.82L95.9016 500.821C95.6719 501.294 95.3138 501.693 94.8682 501.971Z" stroke="white" stroke-width="6"/>
<path d="M570.613 189.33C570.613 206.317 556.843 220.087 539.856 220.087C522.87 220.087 509.099 206.317 509.099 189.33C509.099 172.344 522.87 158.573 539.856 158.573C556.843 158.573 570.613 172.344 570.613 189.33Z" stroke="white" stroke-width="6"/>
<path d="M549.124 238.916L549.132 238.918C560.814 242.297 570.817 249.909 577.186 260.268C583.556 270.628 585.835 282.99 583.578 294.939L583.577 294.947L561.247 414.98L465.684 412.156L486.949 278.288C488.041 271.412 490.585 264.847 494.412 259.031C498.238 253.215 503.26 248.28 509.142 244.555C515.024 240.831 521.631 238.401 528.525 237.429C535.419 236.456 542.441 236.963 549.124 238.916Z" stroke="white" stroke-width="6"/>
<path d="M547.523 437.106L547.404 437.184C545.209 438.609 542.572 439.197 539.976 438.838C537.337 438.473 534.924 437.154 533.191 435.131C531.459 433.108 530.527 430.52 530.572 427.857C530.617 425.193 531.636 422.639 533.435 420.675L533.782 420.297L533.983 419.826L550.801 380.418L568.889 378.488L548.91 417.177L547.931 419.073L549.402 420.62C550.492 421.767 551.317 423.138 551.82 424.638C552.322 426.138 552.49 427.73 552.311 429.302C552.132 430.873 551.61 432.387 550.783 433.735C549.956 435.083 548.843 436.234 547.523 437.106Z" fill="#1E2A39" stroke="white" stroke-width="6"/>
<path d="M554.422 407.886L554.426 407.887C554.67 407.921 554.918 407.927 555.163 407.904L555.164 407.904C555.61 407.862 556.042 407.726 556.432 407.506C556.821 407.286 557.16 406.987 557.426 406.627L554.422 407.886ZM554.422 407.886C553.779 407.795 553.179 407.511 552.702 407.07L544.087 399.109C544.086 399.108 544.085 399.108 544.084 399.107C543.604 398.661 543.273 398.078 543.135 397.437C542.996 396.797 543.058 396.13 543.31 395.525C543.311 395.524 543.311 395.523 543.312 395.521L560.541 354.683L560.796 354.08L560.776 353.426L558.339 272.98C558.995 268.627 561.323 264.697 564.834 262.029C568.407 259.314 572.914 258.129 577.361 258.735C581.809 259.342 585.833 261.691 588.549 265.265C591.264 268.838 592.449 273.345 591.843 277.792L591.798 278.117L591.825 278.444L596.005 329.177L596.005 329.177C597.216 343.85 593.056 358.463 584.299 370.298L584.299 370.298L557.427 406.626L554.422 407.886Z" fill="#1E2A39" stroke="white" stroke-width="6"/>
<path d="M348.409 170.392L348.409 170.392L348.407 170.382C347.913 167.766 348.395 165.06 349.76 162.773C351.125 160.487 353.28 158.779 355.818 157.973C358.355 157.166 361.1 157.317 363.535 158.395C365.969 159.474 367.924 161.407 369.032 163.828L369.244 164.294L369.6 164.662L399.33 195.514L394.056 212.923L366.219 179.442L364.854 177.8L362.856 178.551C361.376 179.108 359.791 179.333 358.214 179.211C356.636 179.089 355.105 178.623 353.728 177.845C352.35 177.067 351.16 175.996 350.241 174.709C349.322 173.421 348.697 171.948 348.409 170.392Z" stroke="white" stroke-width="6"/>
<path d="M372.629 188.141L372.705 188.015C373.036 187.516 373.502 187.119 374.049 186.871C374.049 186.871 374.049 186.871 374.049 186.871L384.742 182.042C384.743 182.041 384.744 182.041 384.744 182.041C385.343 181.773 386.009 181.695 386.653 181.817C387.297 181.94 387.888 182.257 388.346 182.725C388.347 182.726 388.347 182.727 388.348 182.727L419.238 214.516L419.694 214.985L420.304 215.222L495.335 244.343C497.162 245.462 498.76 246.918 500.045 248.635C501.377 250.415 502.346 252.44 502.895 254.595C503.444 256.749 503.564 258.991 503.246 261.192C502.929 263.392 502.181 265.509 501.045 267.42C499.91 269.332 498.408 271.001 496.627 272.332C494.846 273.663 492.821 274.63 490.666 275.178C488.511 275.726 486.269 275.844 484.069 275.525C481.868 275.206 479.752 274.457 477.841 273.32L477.559 273.152L477.246 273.049L428.899 257.117L428.899 257.117C414.915 252.511 403.08 242.982 395.596 230.304L395.595 230.304L372.62 191.395C372.62 191.395 372.62 191.395 372.62 191.395C372.393 191.009 372.249 190.58 372.198 190.135C372.148 189.69 372.191 189.239 372.326 188.812L372.326 188.812C372.4 188.577 372.502 188.352 372.629 188.141ZM369.472 187.911L369.467 187.91L369.472 187.911Z" fill="#1E2A39" stroke="white" stroke-width="6"/>
<g opacity="0.1">
<mask id="path-20-inside-3_257_3" fill="white">
<path d="M567.237 306.383L565.863 350.364L540.544 394.364L561.685 345.334L567.237 306.383Z"/>
</mask>
<path d="M567.237 306.383L573.234 306.57L561.297 305.536L567.237 306.383ZM565.863 350.364L571.063 353.356L571.813 352.054L571.86 350.551L565.863 350.364ZM540.544 394.364L535.034 391.988L545.744 397.356L540.544 394.364ZM561.685 345.334L567.195 347.71L567.512 346.974L567.625 346.181L561.685 345.334ZM561.24 306.195L559.866 350.176L571.86 350.551L573.234 306.57L561.24 306.195ZM560.662 347.371L535.343 391.371L545.744 397.356L571.063 353.356L560.662 347.371ZM546.054 396.739L567.195 347.71L556.175 342.958L535.034 391.988L546.054 396.739ZM567.625 346.181L573.177 307.229L561.297 305.536L555.745 344.487L567.625 346.181Z" fill="white" mask="url(#path-20-inside-3_257_3)"/>
</g>
<mask id="path-22-inside-4_257_3" fill="white">
<path d="M516.995 172.41C520.477 176.531 526.369 177.693 531.805 178.17C542.844 179.138 558.896 177.57 569.684 175.077C570.454 182.54 568.355 190.586 572.75 196.725C574.811 189.293 576.009 181.648 576.321 173.942C576.454 170.642 576.402 167.218 575.059 164.184C573.716 161.15 570.787 158.575 567.414 158.548C569.92 156.647 572.855 155.392 575.961 154.894L565.281 149.527L568.024 146.711L548.688 145.528L554.288 141.97C545.859 140.813 537.332 140.545 528.847 141.17C524.907 141.46 520.787 142.015 517.595 144.298C514.403 146.581 512.558 151.118 514.54 154.47C512.059 154.878 509.723 155.912 507.753 157.475C505.783 159.038 504.245 161.078 503.284 163.401C501.861 167.009 501.991 171.017 502.43 174.862C503.159 181.012 504.588 187.058 506.69 192.882"/>
</mask>
<path d="M516.995 172.41C520.477 176.531 526.369 177.693 531.805 178.17C542.844 179.138 558.896 177.57 569.684 175.077C570.454 182.54 568.355 190.586 572.75 196.725C574.811 189.293 576.009 181.648 576.321 173.942C576.454 170.642 576.402 167.218 575.059 164.184C573.716 161.15 570.787 158.575 567.414 158.548C569.92 156.647 572.855 155.392 575.961 154.894L565.281 149.527L568.024 146.711L548.688 145.528L554.288 141.97C545.859 140.813 537.332 140.545 528.847 141.17C524.907 141.46 520.787 142.015 517.595 144.298C514.403 146.581 512.558 151.118 514.54 154.47C512.059 154.878 509.723 155.912 507.753 157.475C505.783 159.038 504.245 161.078 503.284 163.401C501.861 167.009 501.991 171.017 502.43 174.862C503.159 181.012 504.588 187.058 506.69 192.882" fill="#1E2A39"/>
<path d="M531.805 178.17L531.281 184.147L531.281 184.147L531.805 178.17ZM569.684 175.077L575.652 174.461L574.955 167.701L568.333 169.231L569.684 175.077ZM572.75 196.725L567.871 200.218L575.178 210.424L578.532 198.328L572.75 196.725ZM576.321 173.942L582.316 174.185L582.316 174.184L576.321 173.942ZM567.414 158.548L563.788 153.768L549.764 164.407L567.366 164.548L567.414 158.548ZM575.961 154.894L576.911 160.818L595.258 157.876L578.655 149.533L575.961 154.894ZM565.281 149.527L560.983 145.341L555.266 151.21L562.587 154.888L565.281 149.527ZM568.024 146.711L572.322 150.898L581.455 141.522L568.39 140.722L568.024 146.711ZM548.688 145.528L545.47 140.464L529.852 150.387L548.322 151.517L548.688 145.528ZM554.288 141.97L557.506 147.034L571.327 138.253L555.104 136.026L554.288 141.97ZM528.847 141.17L529.287 147.154L529.288 147.154L528.847 141.17ZM514.54 154.47L515.512 160.391L524.171 158.969L519.705 151.416L514.54 154.47ZM503.284 163.401L497.739 161.109L497.721 161.154L497.702 161.2L503.284 163.401ZM502.43 174.862L496.469 175.543L496.47 175.555L496.472 175.568L502.43 174.862ZM512.412 176.283C517.618 182.444 525.857 183.671 531.281 184.147L532.329 172.193C526.881 171.715 523.336 170.618 521.578 168.538L512.412 176.283ZM531.281 184.147C543.073 185.181 559.769 183.527 571.035 180.923L568.333 169.231C558.023 171.614 542.615 173.095 532.329 172.193L531.281 184.147ZM563.716 175.693C563.871 177.203 563.89 178.822 563.87 180.682C563.852 182.438 563.795 184.566 563.861 186.593C563.995 190.712 564.638 195.702 567.871 200.218L577.629 193.233C576.467 191.609 575.962 189.507 575.854 186.202C575.8 184.518 575.848 182.851 575.87 180.807C575.89 178.869 575.882 176.683 575.652 174.461L563.716 175.693ZM578.532 198.328C580.716 190.452 581.985 182.351 582.316 174.185L570.326 173.699C570.032 180.945 568.906 188.134 566.968 195.122L578.532 198.328ZM582.316 174.184C582.451 170.834 582.499 166.168 580.546 161.756L569.573 166.613C570.305 168.268 570.457 170.45 570.326 173.701L582.316 174.184ZM580.546 161.756C578.572 157.298 573.899 152.6 567.462 152.548L567.366 164.548C567.501 164.549 567.834 164.601 568.318 164.978C568.816 165.365 569.282 165.957 569.573 166.613L580.546 161.756ZM571.04 163.328C572.762 162.023 574.778 161.161 576.911 160.818L575.011 148.97C570.933 149.624 567.078 151.272 563.788 153.768L571.04 163.328ZM578.655 149.533L567.975 144.166L562.587 154.888L573.267 160.255L578.655 149.533ZM569.579 153.714L572.322 150.898L563.726 142.525L560.983 145.341L569.579 153.714ZM568.39 140.722L549.054 139.539L548.322 151.517L567.658 152.7L568.39 140.722ZM551.906 150.592L557.506 147.034L551.07 136.906L545.47 140.464L551.906 150.592ZM555.104 136.026C546.259 134.812 537.31 134.53 528.406 135.186L529.288 147.154C537.354 146.56 545.46 146.814 553.472 147.914L555.104 136.026ZM528.407 135.186C524.479 135.475 518.797 136.062 514.105 139.418L521.085 149.178C522.777 147.969 525.335 147.445 529.287 147.154L528.407 135.186ZM514.105 139.418C511.486 141.291 509.451 144.037 508.435 147.087C507.408 150.168 507.303 154.019 509.375 157.524L519.705 151.416C519.795 151.569 519.621 151.476 519.82 150.88C520.029 150.252 520.512 149.588 521.085 149.178L514.105 139.418ZM513.568 148.549C510.079 149.122 506.793 150.577 504.023 152.774L511.482 162.175C512.652 161.247 514.039 160.633 515.512 160.391L513.568 148.549ZM504.023 152.774C501.253 154.972 499.09 157.841 497.739 161.109L508.829 165.694C509.399 164.314 510.313 163.103 511.482 162.175L504.023 152.774ZM497.702 161.2C495.707 166.259 496.01 171.526 496.469 175.543L508.391 174.182C507.972 170.508 508.015 167.759 508.866 165.603L497.702 161.2ZM496.472 175.568C497.254 182.172 498.789 188.664 501.046 194.919L512.334 190.845C510.387 185.451 509.063 179.851 508.388 174.156L496.472 175.568Z" fill="white" mask="url(#path-22-inside-4_257_3)"/>
<path d="M353.036 155.934L660.627 84.9213L353.036 155.934ZM353.036 155.934C352.299 156.103 351.526 155.974 350.885 155.573C350.245 155.173 349.789 154.536 349.618 153.8M353.036 155.934L349.618 153.8M349.618 153.8C349.618 153.8 349.618 153.799 349.618 153.799L332.004 77.5039C332.004 77.5036 332.004 77.5033 332.004 77.503C331.835 76.767 331.965 75.994 332.365 75.3536C332.765 74.7137 333.402 74.2583 334.137 74.087C334.138 74.0867 334.139 74.0865 334.14 74.0863L641.73 3.07335C641.732 3.07311 641.733 3.07287 641.734 3.07264C642.469 2.90466 643.241 3.03474 643.881 3.43453C644.522 3.83486 644.977 4.47296 645.148 5.20891L662.762 81.5038C662.931 82.2401 662.801 83.0134 662.401 83.6541C662.001 84.2938 661.364 84.7491 660.63 84.9205L349.618 153.8Z" fill="#1E2A39" stroke="white" stroke-width="6"/>
<mask id="path-25-inside-5_257_3" fill="white">
<path d="M661.373 88.8427L353.775 159.857C352.265 160.204 350.678 159.938 349.364 159.116C348.05 158.295 347.115 156.986 346.764 155.476L329.148 79.1743C328.802 77.6637 329.068 76.0772 329.889 74.7628C330.711 73.4485 332.02 72.5135 333.53 72.163L641.128 1.14846C642.638 0.801617 644.225 1.06808 645.539 1.8894C646.853 2.71072 647.788 4.01982 648.139 5.52957L665.754 81.8316C666.101 83.3421 665.835 84.9286 665.013 86.2429C664.192 87.5573 662.883 88.4922 661.373 88.8427ZM334.056 74.442C333.15 74.6523 332.364 75.2133 331.871 76.002C331.378 76.7908 331.219 77.7428 331.427 78.6493L349.042 154.951C349.252 155.857 349.813 156.643 350.602 157.136C351.391 157.629 352.343 157.789 353.25 157.58L660.848 86.5656C661.754 86.3556 662.54 85.7946 663.032 85.0058C663.525 84.217 663.685 83.2649 663.477 82.3584L645.861 6.05546C645.651 5.14934 645.09 4.36357 644.301 3.87066C643.512 3.37776 642.56 3.218 641.653 3.42646L334.056 74.442Z"/>
</mask>
<path d="M661.373 88.8427L353.775 159.857C352.265 160.204 350.678 159.938 349.364 159.116C348.05 158.295 347.115 156.986 346.764 155.476L329.148 79.1743C328.802 77.6637 329.068 76.0772 329.889 74.7628C330.711 73.4485 332.02 72.5135 333.53 72.163L641.128 1.14846C642.638 0.801617 644.225 1.06808 645.539 1.8894C646.853 2.71072 647.788 4.01982 648.139 5.52957L665.754 81.8316C666.101 83.3421 665.835 84.9286 665.013 86.2429C664.192 87.5573 662.883 88.4922 661.373 88.8427ZM334.056 74.442C333.15 74.6523 332.364 75.2133 331.871 76.002C331.378 76.7908 331.219 77.7428 331.427 78.6493L349.042 154.951C349.252 155.857 349.813 156.643 350.602 157.136C351.391 157.629 352.343 157.789 353.25 157.58L660.848 86.5656C661.754 86.3556 662.54 85.7946 663.032 85.0058C663.525 84.217 663.685 83.2649 663.477 82.3584L645.861 6.05546C645.651 5.14934 645.09 4.36357 644.301 3.87066C643.512 3.37776 642.56 3.218 641.653 3.42646L334.056 74.442Z" fill="black"/>
<path d="M661.373 88.8427L662.723 94.6889L662.73 94.6873L661.373 88.8427ZM353.775 159.857L355.118 165.705L355.125 165.704L353.775 159.857ZM346.764 155.476L340.918 156.826L340.92 156.833L346.764 155.476ZM329.148 79.1743L323.301 80.517L323.302 80.524L329.148 79.1743ZM333.53 72.163L332.18 66.3168L332.173 66.3184L333.53 72.163ZM641.128 1.14846L639.785 -4.69937L639.778 -4.69776L641.128 1.14846ZM648.139 5.52957L653.985 4.17986L653.983 4.17288L648.139 5.52957ZM665.754 81.8316L671.602 80.489L671.601 80.4819L665.754 81.8316ZM334.056 74.442L332.706 68.5958L332.699 68.5973L334.056 74.442ZM331.427 78.6493L325.579 79.9923L325.581 79.999L331.427 78.6493ZM349.042 154.951L343.196 156.301L343.197 156.306L349.042 154.951ZM353.25 157.58L354.594 163.428L354.599 163.426L353.25 157.58ZM660.848 86.5656L662.197 92.4118L662.202 92.4106L660.848 86.5656ZM663.477 82.3584L669.324 81.0137L669.323 81.0087L663.477 82.3584ZM645.861 6.05546L651.707 4.70576L651.706 4.70082L645.861 6.05546ZM641.653 3.42646L640.309 -2.42091L640.304 -2.41975L641.653 3.42646ZM660.024 82.9965L352.426 154.011L355.125 165.704L662.723 94.6889L660.024 82.9965ZM352.433 154.009C352.471 154.001 352.51 154.007 352.543 154.028L346.184 164.205C348.846 165.868 352.059 166.408 355.118 165.705L352.433 154.009ZM352.543 154.028C352.576 154.049 352.6 154.082 352.609 154.12L340.92 156.833C341.629 159.89 343.523 162.541 346.184 164.205L352.543 154.028ZM352.61 154.126L334.995 77.8246L323.302 80.524L340.918 156.826L352.61 154.126ZM334.996 77.8316C335.005 77.8695 334.998 77.9094 334.978 77.9424L324.801 71.5833C323.138 74.2451 322.598 77.4579 323.301 80.517L334.996 77.8316ZM334.978 77.9424C334.957 77.9754 334.924 77.9989 334.886 78.0077L332.173 66.3184C329.116 67.0281 326.464 68.9215 324.801 71.5833L334.978 77.9424ZM334.879 78.0093L642.477 6.99468L639.778 -4.69776L332.18 66.3168L334.879 78.0093ZM642.47 6.99629C642.432 7.005 642.393 6.99832 642.359 6.97769L648.719 -3.19889C646.057 -4.86216 642.844 -5.40177 639.785 -4.69936L642.47 6.99629ZM642.359 6.97769C642.326 6.95707 642.303 6.92418 642.294 6.88625L653.983 4.17288C653.274 1.11545 651.38 -1.53564 648.719 -3.19889L642.359 6.97769ZM642.293 6.87927L659.908 83.1813L671.601 80.4819L653.985 4.17986L642.293 6.87927ZM659.907 83.1741C659.898 83.1362 659.905 83.0963 659.925 83.0634L670.102 89.4225C671.765 86.7609 672.305 83.5481 671.602 80.489L659.907 83.1741ZM659.925 83.0634C659.946 83.0304 659.979 83.0069 660.017 82.9981L662.73 94.6873C665.787 93.9776 668.438 92.0842 670.102 89.4225L659.925 83.0634ZM332.699 68.5973C330.246 69.1668 328.118 70.6863 326.783 72.8225L336.96 79.1816C336.61 79.7404 336.054 80.1378 335.412 80.2867L332.699 68.5973ZM326.783 72.8225C325.448 74.9587 325.015 77.5372 325.579 79.9923L337.275 77.3062C337.422 77.9484 337.309 78.6228 336.96 79.1816L326.783 72.8225ZM325.581 79.999L343.196 156.301L354.889 153.602L337.273 77.2995L325.581 79.999ZM343.197 156.306C343.766 158.761 345.286 160.889 347.423 162.224L353.782 152.048C354.341 152.397 354.739 152.954 354.888 153.597L343.197 156.306ZM347.423 162.224C349.56 163.56 352.139 163.992 354.594 163.428L351.905 151.733C352.548 151.585 353.223 151.698 353.782 152.048L347.423 162.224ZM354.599 163.426L662.197 92.4118L659.498 80.7194L351.9 151.734L354.599 163.426ZM662.202 92.4106C664.657 91.8417 666.785 90.3221 668.121 88.1853L657.944 81.8263C658.294 81.2671 658.851 80.8694 659.493 80.7205L662.202 92.4106ZM668.121 88.1853C669.456 86.0484 669.889 83.4691 669.324 81.0137L657.629 83.7031C657.481 83.0606 657.595 82.3856 657.944 81.8263L668.121 88.1853ZM669.323 81.0087L651.707 4.70576L640.014 7.40517L657.63 83.7081L669.323 81.0087ZM651.706 4.70082C651.137 2.24632 649.617 0.117689 647.48 -1.21761L641.121 8.95893C640.562 8.60944 640.164 8.05235 640.016 7.4101L651.706 4.70082ZM647.48 -1.21761C645.344 -2.55286 642.764 -2.9856 640.309 -2.42091L642.998 9.27384C642.356 9.42161 641.681 9.30838 641.121 8.95893L647.48 -1.21761ZM640.304 -2.41975L332.706 68.5958L335.405 80.2883L643.003 9.27268L640.304 -2.41975Z" fill="white" mask="url(#path-25-inside-5_257_3)"/>
<path d="M441.39 76.1316L441.396 76.1302L623.704 34.0411C623.704 34.041 623.704 34.0409 623.705 34.0408C623.955 33.9839 624.217 34.0283 624.434 34.1643C624.652 34.3005 624.807 34.5175 624.864 34.7676C624.922 35.0177 624.878 35.2806 624.742 35.4985C624.607 35.7159 624.39 35.8707 624.141 35.9291C624.141 35.9292 624.14 35.9293 624.14 35.9294L441.835 78.0177L441.832 78.0185L441.822 78.0207C441.698 78.0492 441.57 78.0529 441.444 78.0317C441.319 78.0105 441.199 77.9648 441.091 77.8972C440.983 77.8296 440.89 77.7414 440.816 77.6376C440.742 77.5339 440.69 77.4166 440.661 77.2926C440.633 77.1685 440.629 77.04 440.65 76.9145C440.672 76.789 440.717 76.669 440.785 76.5612C440.853 76.4534 440.941 76.36 441.045 76.2862C441.148 76.2125 441.266 76.1599 441.39 76.1316Z" stroke="white" stroke-width="6"/>
<path d="M446.747 99.3362L446.753 99.3348L525.196 81.2249L525.203 81.2233L525.21 81.2218L525.21 81.2217C525.461 81.1644 525.724 81.2089 525.941 81.3455C526.159 81.482 526.313 81.6994 526.371 81.9499C526.428 82.2005 526.383 82.4635 526.247 82.681C526.111 82.8988 525.893 83.0533 525.643 83.1107L525.639 83.1117L447.196 101.222L447.189 101.223L447.182 101.225L447.18 101.225C447.056 101.254 446.927 101.258 446.802 101.236C446.676 101.215 446.556 101.169 446.448 101.102C446.341 101.034 446.247 100.946 446.173 100.842C446.1 100.739 446.047 100.621 446.019 100.497C445.99 100.373 445.986 100.245 446.008 100.119C446.029 99.9938 446.075 99.8737 446.142 99.7658C446.21 99.6579 446.298 99.5645 446.402 99.4909C446.506 99.4171 446.623 99.3646 446.747 99.3362Z" stroke="white" stroke-width="6"/>
<path d="M411.695 100.823C411.695 112.318 402.376 121.637 390.881 121.637C379.385 121.637 370.067 112.318 370.067 100.823C370.067 89.3275 379.385 80.0088 390.881 80.0088C402.376 80.0088 411.695 89.3275 411.695 100.823Z" stroke="white" stroke-width="6"/>
<path d="M400.467 86.5914L401.101 85.1976L401.103 85.1985L400.467 86.5914ZM399.926 87.7808L399.927 87.7792C400.099 87.8582 400.232 88.0021 400.299 88.1794C400.365 88.3568 400.359 88.5534 400.28 88.7261C400.28 88.7264 400.28 88.7268 400.28 88.7271L390.039 111.234C390.039 111.235 390.039 111.235 390.038 111.236C389.993 111.335 389.925 111.422 389.84 111.491C389.755 111.56 389.655 111.609 389.548 111.633L389.492 111.646C389.359 111.669 389.221 111.652 389.097 111.597L389.096 111.597L389.064 111.582L379.495 107.238L379.493 107.238C379.407 107.199 379.33 107.143 379.266 107.075C379.201 107.006 379.151 106.925 379.118 106.837C379.085 106.749 379.069 106.655 379.073 106.561C379.076 106.467 379.098 106.374 379.137 106.289C379.175 106.203 379.231 106.126 379.3 106.062C379.369 105.997 379.449 105.947 379.538 105.914C379.626 105.881 379.72 105.866 379.814 105.869C379.908 105.873 380 105.895 380.086 105.934L380.089 105.935L386.298 108.762L389.028 110.005L390.271 107.274L398.982 88.1344C398.982 88.1343 398.982 88.1341 398.982 88.134C399.06 87.9621 399.204 87.8283 399.381 87.7621C399.558 87.6958 399.754 87.7025 399.926 87.7808Z" stroke="white" stroke-width="6"/>
</g>
<defs>
<clipPath id="clip0_257_3">
<rect width="1061" height="507.397" fill="white"/>
</clipPath>
</defs>
</svg>
