<svg width="866" height="675" viewBox="0 0 866 675" fill="none" xmlns="http://www.w3.org/2000/svg">
<g clip-path="url(#clip0_254_120)">
<rect x="63" y="536" width="438" height="136" stroke="white" stroke-width="6"/>
<rect x="409.5" y="2.5" width="453" height="424" stroke="white" stroke-width="5"/>
<path d="M228.382 385.688L228.391 385.691L228.4 385.693C230.474 386.167 232.287 387.372 233.505 389.066C234.721 390.758 235.261 392.824 235.03 394.873C234.8 396.922 233.813 398.827 232.244 400.221C230.674 401.617 228.631 402.403 226.5 402.419L225.991 402.423L225.511 402.595L193.992 413.89L193.013 403.843L215.778 396.04L217.681 395.388L217.8 393.38C217.872 392.159 218.216 390.967 218.808 389.887C219.4 388.807 220.228 387.864 221.235 387.127C222.243 386.39 223.406 385.877 224.642 385.628C225.878 385.379 227.155 385.399 228.382 385.688Z" stroke="white" stroke-width="6"/>
<path d="M186.633 427.481L186.624 427.487L186.614 427.494C177.47 433.771 160.751 437.285 137.027 437.125L137.013 437.125L136.999 437.125C136.088 437.128 135.187 436.944 134.355 436.586C133.522 436.229 132.777 435.706 132.166 435.054L132.146 435.033L132.126 435.012C129.631 432.454 128.204 427.903 127.49 423.275C126.799 418.796 126.868 414.903 126.886 414.267L126.898 413.828L126.784 413.404L119.791 387.449L119.753 387.307L119.701 387.17C119.702 387.173 119.687 387.131 119.657 387.046C119.628 386.963 119.587 386.845 119.538 386.693C119.438 386.39 119.304 385.958 119.157 385.423C118.861 384.349 118.518 382.883 118.293 381.224C117.83 377.811 117.931 374.051 119.458 371.16C120.088 369.995 120.968 368.975 122.04 368.17C123.116 367.362 124.359 366.791 125.686 366.5L125.743 366.487L125.799 366.472C128.009 365.895 130.615 366.773 133.74 369.698C136.817 372.578 139.817 376.937 142.534 381.791C147.943 391.456 151.79 402.284 152.659 404.817L153.484 407.223L155.993 406.802L176.56 403.353L190.703 402.78L191.401 402.752L192.014 402.418L203.692 396.07L209.674 410.172L191.303 423.394L191.038 423.585L190.82 423.829C189.584 425.211 188.178 426.438 186.633 427.481Z" fill="#1E2A39" stroke="white" stroke-width="6"/>
<path d="M250.134 590.383L241.139 642.163L231.494 641.719L233.965 589.638L250.134 590.383Z" stroke="white" stroke-width="6"/>
<path d="M228.673 670.24L223.564 670.004L227.55 639.942L246.002 639.708L245.669 646.723L245.594 648.311L246.865 649.265L269.097 665.95L269.098 665.951C269.686 666.392 270.109 667.002 270.312 667.685C270.515 668.367 270.492 669.094 270.245 669.764C269.997 670.434 269.536 671.017 268.918 671.422C268.3 671.828 267.561 672.031 266.81 671.996L266.81 671.996L239.909 670.757L236.174 662.158L232.608 653.947L230.506 662.648L228.673 670.24Z" stroke="white" stroke-width="6"/>
<path d="M321.692 494.332L341.311 482.187L389.751 507.954L386.231 516.826L321.692 494.332Z" stroke="white" stroke-width="6"/>
<path d="M412.769 528.572L410.934 533.197L383.217 519.821L388.872 502.603L395.583 505.185L397.03 505.742L398.321 504.883L421.487 489.478L421.487 489.478C422.103 489.069 422.84 488.861 423.591 488.891C424.342 488.92 425.059 489.186 425.637 489.641C426.214 490.096 426.621 490.714 426.808 491.401C426.995 492.088 426.954 492.815 426.691 493.479L426.691 493.479L416.899 518.16L407.41 518.895L398.228 519.605L406.067 524.439L412.769 528.572Z" stroke="white" stroke-width="6"/>
<path d="M276.152 447.137C276.277 447.16 276.379 447.181 276.458 447.197L371.24 488.469L373.964 489.655L375.172 486.954L375.172 486.954C375.172 486.954 375.172 486.953 375.172 486.953C375.174 486.948 375.18 486.937 375.188 486.92C375.205 486.884 375.235 486.823 375.277 486.744C375.326 486.651 375.387 486.54 375.459 486.42C375.822 487.184 376.269 488.407 376.734 490.301C376.701 490.417 376.657 490.561 376.601 490.735C376.378 491.428 376.027 492.391 375.573 493.563C374.669 495.895 373.424 498.891 372.155 501.868C370.889 504.839 369.611 507.767 368.649 509.953C368.444 510.419 368.254 510.851 368.081 511.242C358.378 508.633 334.815 502.096 312.768 495.955C300.658 492.583 289.018 489.333 280.404 486.927C276.098 485.724 272.548 484.731 270.075 484.04L267.213 483.239L266.462 483.029L266.27 482.976L266.222 482.962L266.21 482.959L266.206 482.958C266.206 482.958 266.205 482.958 265.397 485.847L266.205 482.958L265.363 482.722L264.526 482.976L180.494 508.465L180.272 508.532L180.065 508.632L180.065 508.632L180.064 508.633L180.064 508.633L180.054 508.637L180.005 508.661C179.96 508.682 179.888 508.716 179.791 508.761C179.596 508.85 179.301 508.984 178.91 509.156C178.129 509.5 176.968 509.993 175.477 510.578C172.494 511.749 168.197 513.287 162.979 514.734C152.517 517.637 138.491 520.14 123.983 518.712C110.459 517.379 102.06 507.739 96.9211 497.776C94.3706 492.831 92.7054 487.951 91.6783 484.294C91.5041 483.674 91.3487 483.09 91.2108 482.549L140.177 491.152L140.983 491.294L141.749 491.006L140.696 488.197C141.749 491.006 141.749 491.006 141.75 491.006L141.752 491.005L141.762 491.002L141.8 490.987L141.95 490.931L142.539 490.71C143.056 490.516 143.818 490.23 144.797 489.862C146.754 489.126 149.578 488.062 153.049 486.753C159.99 484.133 169.517 480.527 179.857 476.583C200.519 468.7 224.485 459.442 237.54 454.003C250.23 448.715 260.147 447.068 266.806 446.716C270.138 446.541 272.663 446.689 274.321 446.872C275.151 446.963 275.763 447.064 276.152 447.137Z" fill="#1E2A39" stroke="white" stroke-width="6"/>
<path d="M90.467 479.455L156.897 481.379C156.957 481.389 157.03 481.4 157.116 481.414C157.385 481.455 157.781 481.516 158.293 481.591C159.317 481.743 160.806 481.955 162.679 482.201C166.424 482.693 171.708 483.321 177.878 483.865C190.187 484.95 206.148 485.715 220.471 484.362C222.789 484.147 224.995 484.001 227.09 483.922C231.096 483.778 235.086 484.461 238.805 485.927C242.524 487.393 245.887 489.608 248.678 492.428C251.47 495.247 253.629 498.608 255.018 502.293C256.408 505.978 256.999 509.906 256.753 513.827L256.751 513.863L256.749 513.899L252.947 611.991C244.848 611.901 236.761 611.365 228.724 610.387C228.669 596.125 228.198 575.98 227.727 559.027C227.477 550.007 227.227 541.881 227.039 536.01C226.945 533.074 226.867 530.702 226.812 529.063C226.785 528.244 226.764 527.608 226.749 527.177L226.732 526.687L226.728 526.561L226.727 526.53L226.726 526.522L226.726 526.52C226.726 526.519 226.726 526.519 223.728 526.623L226.726 526.519L226.615 523.31L223.421 523.639L177.722 528.338L177.601 528.35L177.482 528.372L177.481 528.373L177.478 528.373L177.46 528.376L177.385 528.39C177.316 528.402 177.212 528.421 177.073 528.446C176.796 528.494 176.381 528.566 175.841 528.654C174.761 528.832 173.18 529.079 171.193 529.355C167.217 529.907 161.626 530.573 155.18 531.023C142.222 531.929 126.067 531.948 112.633 528.591C99.835 525.393 94.1333 513.265 91.777 500.647C90.6206 494.454 90.3388 488.446 90.351 483.968C90.3558 482.182 90.4073 480.649 90.467 479.455Z" fill="#1E2A39" stroke="white" stroke-width="6"/>
<path d="M167.703 395.343L153.842 328.851L162.789 337.225C169.689 343.682 174.256 352.172 175.806 361.405C177.357 370.637 175.81 380.117 171.395 388.41L167.703 395.343Z" fill="#1E2A39" stroke="white" stroke-width="6"/>
<path d="M104.766 431.926L104.945 431.492L104.983 431.025C105.181 428.619 105.655 425.943 106.239 423.009C106.409 422.153 106.59 421.27 106.774 420.369C107.209 418.245 107.665 416.022 108.053 413.81C109.155 407.525 109.858 400.632 108.09 394.31C103.693 378.587 105.033 359.364 108.412 343.475C110.095 335.563 112.259 328.597 114.388 323.441C115.455 320.858 116.487 318.792 117.411 317.31C117.873 316.569 118.279 316.021 118.615 315.642C118.92 315.298 119.093 315.179 119.12 315.161C119.124 315.157 119.125 315.157 119.121 315.159L119.245 315.095L119.362 315.019L136.307 304.078L140.993 308.31L151.937 323.399C156.593 343.875 160.53 363.625 163.271 378.586C164.655 386.14 165.731 392.461 166.441 397.03C166.796 399.318 167.057 401.148 167.218 402.465C167.299 403.127 167.351 403.634 167.379 403.994C167.394 404.184 167.398 404.293 167.4 404.341L161.645 444.389L155.375 458.593C145.812 463.536 143.151 470.83 141.185 476.219C140.933 476.912 140.692 477.573 140.449 478.193C139.334 481.043 138.345 482.676 136.684 483.632C134.968 484.618 131.886 485.239 125.724 484.228C110.261 481.69 100.633 480.169 94.8102 479.259C93.4289 479.044 92.2665 478.863 91.2918 478.712C90.4918 478.587 89.8183 478.483 89.2541 478.395L91.8123 463.276L104.766 431.926Z" fill="#1E2A39" stroke="white" stroke-width="6"/>
<path d="M241.29 444.997C241.288 444.998 241.285 444.998 241.283 444.999L241.284 444.998L241.29 444.997ZM241.29 444.997L241.079 444.058M241.29 444.997L241.296 444.996L241.082 444.053L242.14 442.317L260.16 463.597C260.323 463.696 260.467 463.823 260.584 463.972C260.633 464.011 260.676 464.055 260.712 464.105C260.912 464.373 261.041 464.685 261.089 465.014C261.137 465.343 261.103 465.678 260.988 465.991C260.874 466.303 260.683 466.583 260.433 466.806C260.182 467.029 259.88 467.187 259.553 467.268L259.2 465.709L259.113 465.325L259.112 465.322L259.114 465.324L259.112 465.322L259.108 465.304M259.108 465.304L259.112 465.303M259.108 465.304L259.112 465.303L259.112 465.303M259.108 465.304L259.107 465.301M259.112 465.303L259.112 465.303L259.107 465.301M259.112 465.303L259.107 465.301M183.056 460.214L183.034 460.022L230.456 447.526L234.688 446.538L234.689 446.537L237.733 445.825L237.736 445.825L240.612 445.155L257.187 464.728L187.134 480.606L183.326 462.543L183.056 460.214Z" stroke="white" stroke-width="6"/>
<g opacity="0.17">
<mask id="path-14-inside-1_254_120" fill="white">
<path d="M184.368 482.026L185.107 482.966C185.345 483.263 185.664 483.487 186.025 483.613C186.387 483.739 186.777 483.762 187.152 483.679L259.555 467.268C259.882 467.188 260.184 467.03 260.434 466.807C260.685 466.584 260.875 466.305 260.99 465.992C261.104 465.68 261.138 465.344 261.09 465.016C261.042 464.687 260.912 464.375 260.712 464.108C260.677 464.057 260.634 464.012 260.586 463.975L184.368 482.026Z"/>
</mask>
<path d="M184.368 482.026L182.985 476.187L173.85 478.351L179.65 485.733L184.368 482.026ZM185.107 482.966L180.389 486.673L180.41 486.699L180.43 486.725L185.107 482.966ZM187.152 483.679L188.447 489.538L188.463 489.534L188.478 489.531L187.152 483.679ZM259.555 467.268L260.881 473.12L260.934 473.108L260.986 473.095L259.555 467.268ZM260.712 464.108L255.782 467.527L255.842 467.614L255.905 467.699L260.712 464.108ZM260.586 463.975L264.265 459.235L261.997 457.474L259.203 458.136L260.586 463.975ZM179.65 485.733L180.389 486.673L189.825 479.259L189.086 478.319L179.65 485.733ZM180.43 486.725C181.378 487.904 182.635 488.785 184.05 489.278L188.001 477.947C188.692 478.188 189.313 478.621 189.784 479.208L180.43 486.725ZM184.05 489.278C185.463 489.771 186.986 489.861 188.447 489.538L185.857 477.821C186.569 477.663 187.31 477.707 188.001 477.947L184.05 489.278ZM188.478 489.531L260.881 473.12L258.229 461.417L185.826 477.828L188.478 489.531ZM260.986 473.095C262.256 472.783 263.437 472.166 264.422 471.29L256.447 462.324C256.931 461.893 257.508 461.593 258.124 461.441L260.986 473.095ZM264.422 471.29C265.407 470.414 266.167 469.304 266.624 468.055L255.355 463.93C255.584 463.305 255.962 462.755 256.447 462.324L264.422 471.29ZM266.624 468.055C267.082 466.805 267.22 465.46 267.026 464.141L255.154 465.891C255.057 465.229 255.127 464.555 255.355 463.93L266.624 468.055ZM267.026 464.141C266.832 462.822 266.311 461.578 265.519 460.517L255.905 467.699C255.512 467.173 255.252 466.552 255.154 465.891L267.026 464.141ZM265.642 460.688C265.258 460.134 264.792 459.645 264.265 459.235L256.906 468.714C256.476 468.38 256.096 467.981 255.782 467.527L265.642 460.688ZM259.203 458.136L182.985 476.187L185.751 487.864L261.968 469.813L259.203 458.136Z" fill="white" mask="url(#path-14-inside-1_254_120)"/>
</g>
<path d="M258.814 464.052L258.754 464.031L258.814 464.052ZM258.814 464.052L258.834 464.059L258.814 464.052ZM243.234 441.318L241.935 351.155L241.938 351.152L242.096 350.826L251.214 332.137L251.703 331.552L252.412 331.487L254.209 426.519L254.215 426.834L254.243 426.956L255.125 436.021L255.125 436.021L256.193 447.018L256.212 447.216L256.215 447.231L257.761 463.107L257.297 462.696L257.281 462.682L257.246 462.651L243.447 441.642L243.234 441.318ZM258.765 463.136L258.762 463.135C258.763 463.135 258.765 463.136 258.766 463.136H258.765Z" stroke="white" stroke-width="6"/>
<path opacity="0.17" d="M258.761 464.035L258.748 464.031L258.761 464.035ZM258.761 464.035L258.781 464.042L258.761 464.035ZM257.346 451.628L251.733 331.55L252.434 331.484L257.346 451.628Z" stroke="white" stroke-width="6"/>
<path d="M244.757 417.275L243.734 357.108L246.474 350.446L247.779 421.58L244.757 417.275Z" stroke="white" stroke-width="6"/>
<path d="M187.301 458.615L187.284 458.606M187.301 458.615L187.284 458.606M187.301 458.615L187.284 458.606M187.301 458.615L187.284 458.606" stroke="white" stroke-width="6"/>
<mask id="path-20-inside-2_254_120" fill="white">
<path d="M193.798 454.895C193.334 455.025 192.941 455.332 192.707 455.747C192.472 456.163 192.414 456.653 192.546 457.11L193.344 459.87L196.846 458.888L196.048 456.128C195.916 455.671 195.605 455.284 195.183 455.053C194.761 454.821 194.263 454.764 193.798 454.895Z"/>
</mask>
<path d="M193.798 454.895L192.18 449.117L192.176 449.118L193.798 454.895ZM192.546 457.11L186.781 458.775L186.782 458.777L192.546 457.11ZM193.344 459.87L187.58 461.536L189.233 467.254L194.964 465.647L193.344 459.87ZM196.846 458.888L198.466 464.665L204.29 463.032L202.61 457.221L196.846 458.888ZM196.048 456.128L201.812 454.462L201.812 454.46L196.048 456.128ZM192.176 449.118C190.203 449.672 188.507 450.983 187.483 452.795L197.93 458.7C197.376 459.68 196.465 460.378 195.421 460.671L192.176 449.118ZM187.483 452.795C186.457 454.61 186.201 456.764 186.781 458.775L198.311 455.446C198.627 456.542 198.486 457.715 197.93 458.7L187.483 452.795ZM186.782 458.777L187.58 461.536L199.108 458.204L198.31 455.444L186.782 458.777ZM194.964 465.647L198.466 464.665L195.226 453.111L191.724 454.093L194.964 465.647ZM202.61 457.221L201.812 454.462L190.284 457.795L191.082 460.554L202.61 457.221ZM201.812 454.46C201.23 452.452 199.872 450.781 198.067 449.792L192.298 460.314C191.337 459.787 190.601 458.89 190.285 457.797L201.812 454.46ZM198.067 449.792C196.266 448.804 194.152 448.565 192.18 449.117L195.417 460.672C194.374 460.964 193.255 460.839 192.298 460.314L198.067 449.792Z" fill="white" mask="url(#path-20-inside-2_254_120)"/>
<path d="M201.291 454.676L201.288 454.674L201.291 454.676ZM201.31 454.686L201.322 454.664L201.31 454.686Z" stroke="white" stroke-width="6"/>
<mask id="path-23-inside-3_254_120" fill="white">
<path d="M207.807 450.966C207.343 451.096 206.95 451.403 206.715 451.818C206.48 452.234 206.423 452.724 206.555 453.182L207.353 455.941L210.855 454.959L210.057 452.199C209.925 451.742 209.613 451.355 209.191 451.124C208.77 450.893 208.272 450.836 207.807 450.966Z"/>
</mask>
<path d="M207.807 450.966L206.189 445.188L206.185 445.189L207.807 450.966ZM206.555 453.182L200.79 454.846L200.791 454.848L206.555 453.182ZM207.353 455.941L201.589 457.608L203.242 463.326L208.973 461.718L207.353 455.941ZM210.855 454.959L212.475 460.736L218.299 459.103L216.619 453.293L210.855 454.959ZM210.057 452.199L215.821 450.533L215.82 450.531L210.057 452.199ZM206.185 445.189C204.212 445.743 202.516 447.054 201.492 448.866L211.939 454.771C211.384 455.752 210.474 456.449 209.43 456.742L206.185 445.189ZM201.492 448.866C200.466 450.681 200.21 452.835 200.79 454.846L212.319 451.517C212.636 452.613 212.495 453.787 211.939 454.771L201.492 448.866ZM200.791 454.848L201.589 457.608L213.117 454.275L212.319 451.515L200.791 454.848ZM208.973 461.718L212.475 460.736L209.235 449.182L205.732 450.164L208.973 461.718ZM216.619 453.293L215.821 450.533L204.293 453.866L205.091 456.625L216.619 453.293ZM215.82 450.531C215.239 448.523 213.88 446.852 212.076 445.863L206.307 456.385C205.346 455.858 204.61 454.961 204.294 453.868L215.82 450.531ZM212.076 445.863C210.275 444.875 208.16 444.636 206.189 445.188L209.425 456.744C208.383 457.035 207.264 456.91 206.307 456.385L212.076 445.863Z" fill="white" mask="url(#path-23-inside-3_254_120)"/>
<path d="M215.3 450.747L215.297 450.745L215.3 450.747ZM215.319 450.758L215.331 450.735L215.319 450.758Z" stroke="white" stroke-width="6"/>
<mask id="path-26-inside-4_254_120" fill="white">
<path d="M221.816 447.037C221.352 447.168 220.959 447.474 220.724 447.89C220.489 448.305 220.432 448.796 220.564 449.253L221.361 452.013L224.864 451.03L224.066 448.271C223.933 447.813 223.622 447.427 223.2 447.195C222.778 446.964 222.28 446.907 221.816 447.037Z"/>
</mask>
<path d="M221.816 447.037L220.198 441.259L220.194 441.261L221.816 447.037ZM220.564 449.253L214.799 450.917L214.8 450.919L220.564 449.253ZM221.361 452.013L215.597 453.679L217.25 459.397L222.982 457.79L221.361 452.013ZM224.864 451.03L226.484 456.807L232.307 455.174L230.628 449.364L224.864 451.03ZM224.066 448.271L229.83 446.604L229.829 446.602L224.066 448.271ZM220.194 441.261C218.221 441.815 216.525 443.126 215.501 444.937L225.947 450.842C225.393 451.823 224.482 452.52 223.438 452.814L220.194 441.261ZM215.501 444.937C214.475 446.753 214.219 448.907 214.799 450.917L226.328 447.589C226.645 448.685 226.504 449.858 225.947 450.842L215.501 444.937ZM214.8 450.919L215.597 453.679L227.125 450.346L226.328 447.587L214.8 450.919ZM222.982 457.79L226.484 456.807L223.243 445.253L219.741 446.235L222.982 457.79ZM230.628 449.364L229.83 446.604L218.302 449.937L219.1 452.697L230.628 449.364ZM229.829 446.602C229.248 444.594 227.889 442.924 226.085 441.934L220.315 452.456C219.355 451.929 218.619 451.032 218.302 449.939L229.829 446.602ZM226.085 441.934C224.283 440.946 222.169 440.707 220.198 441.26L223.434 452.815C222.392 453.107 221.273 452.981 220.315 452.456L226.085 441.934Z" fill="white" mask="url(#path-26-inside-4_254_120)"/>
<mask id="path-28-inside-5_254_120" fill="white">
<path d="M228.821 445.072C228.357 445.203 227.964 445.509 227.729 445.925C227.494 446.34 227.436 446.831 227.568 447.288L228.366 450.048L231.869 449.065L231.071 446.306C230.938 445.849 230.627 445.462 230.205 445.23C229.783 444.999 229.285 444.942 228.821 445.072Z"/>
</mask>
<path d="M228.821 445.072L227.203 439.295L227.199 439.296L228.821 445.072ZM227.568 447.288L221.804 448.952L221.805 448.955L227.568 447.288ZM228.366 450.048L222.602 451.714L224.255 457.432L229.986 455.825L228.366 450.048ZM231.869 449.065L233.489 454.843L239.312 453.209L237.632 447.399L231.869 449.065ZM231.071 446.306L236.835 444.64L236.834 444.637L231.071 446.306ZM227.199 439.296C225.226 439.85 223.53 441.161 222.506 442.972L232.952 448.877C232.398 449.858 231.487 450.556 230.443 450.849L227.199 439.296ZM222.506 442.972C221.48 444.788 221.223 446.941 221.804 448.952L233.333 445.624C233.65 446.72 233.509 447.893 232.952 448.877L222.506 442.972ZM221.805 448.955L222.602 451.714L234.13 448.381L233.332 445.622L221.805 448.955ZM229.986 455.825L233.489 454.843L230.248 443.288L226.746 444.271L229.986 455.825ZM237.632 447.399L236.835 444.64L225.307 447.972L226.105 450.732L237.632 447.399ZM236.834 444.637C236.253 442.63 234.894 440.959 233.09 439.969L227.32 450.491C226.36 449.965 225.624 449.068 225.307 447.974L236.834 444.637ZM233.09 439.969C231.288 438.982 229.174 438.743 227.203 439.295L230.439 450.85C229.397 451.142 228.278 451.017 227.32 450.491L233.09 439.969Z" fill="white" mask="url(#path-28-inside-5_254_120)"/>
<path d="M236.332 444.864L236.345 444.842L236.332 444.864Z" stroke="white" stroke-width="6"/>
<mask id="path-31-inside-6_254_120" fill="white">
<path d="M195.268 461.186C194.804 461.316 194.411 461.623 194.176 462.038C193.941 462.454 193.884 462.944 194.016 463.401L194.814 466.161L198.316 465.179L197.518 462.419C197.386 461.962 197.074 461.575 196.652 461.344C196.231 461.112 195.733 461.056 195.268 461.186Z"/>
</mask>
<path d="M195.268 461.186L193.65 455.408L193.646 455.409L195.268 461.186ZM194.016 463.401L188.251 465.066L188.252 465.068L194.016 463.401ZM194.814 466.161L189.05 467.827L190.703 473.545L196.434 471.938L194.814 466.161ZM198.316 465.179L199.936 470.956L205.76 469.323L204.08 463.512L198.316 465.179ZM197.518 462.419L203.282 460.753L203.281 460.751L197.518 462.419ZM193.646 455.409C191.674 455.963 189.977 457.274 188.953 459.086L199.4 464.991C198.845 465.972 197.934 466.669 196.891 466.962L193.646 455.409ZM188.953 459.086C187.927 460.901 187.671 463.055 188.251 465.066L199.78 461.737C200.097 462.833 199.956 464.006 199.4 464.991L188.953 459.086ZM188.252 465.068L189.05 467.827L200.577 464.495L199.78 461.735L188.252 465.068ZM196.434 471.938L199.936 470.956L196.696 459.402L193.193 460.384L196.434 471.938ZM204.08 463.512L203.282 460.753L191.754 464.086L192.552 466.845L204.08 463.512ZM203.281 460.751C202.7 458.743 201.342 457.072 199.537 456.083L193.768 466.605C192.807 466.078 192.071 465.181 191.755 464.088L203.281 460.751ZM199.537 456.083C197.736 455.095 195.621 454.856 193.65 455.408L196.886 466.963C195.844 467.255 194.725 467.13 193.768 466.605L199.537 456.083Z" fill="white" mask="url(#path-31-inside-6_254_120)"/>
<mask id="path-33-inside-7_254_120" fill="white">
<path d="M202.272 459.221C201.808 459.351 201.415 459.658 201.18 460.073C200.945 460.489 200.888 460.979 201.02 461.437L201.817 464.196L205.32 463.214L204.522 460.454C204.39 459.997 204.078 459.61 203.656 459.379C203.234 459.148 202.737 459.091 202.272 459.221Z"/>
</mask>
<path d="M202.272 459.221L200.654 453.443L200.65 453.444L202.272 459.221ZM201.02 461.437L195.255 463.101L195.256 463.103L201.02 461.437ZM201.817 464.196L196.053 465.862L197.707 471.58L203.438 469.973L201.817 464.196ZM205.32 463.214L206.94 468.991L212.763 467.358L211.084 461.548L205.32 463.214ZM204.522 460.454L210.286 458.788L210.285 458.786L204.522 460.454ZM200.65 453.444C198.677 453.998 196.981 455.309 195.957 457.121L206.404 463.026C205.849 464.007 204.938 464.704 203.895 464.997L200.65 453.444ZM195.957 457.121C194.931 458.936 194.675 461.09 195.255 463.101L206.784 459.772C207.101 460.868 206.96 462.042 206.404 463.026L195.957 457.121ZM195.256 463.103L196.053 465.862L207.581 462.53L206.784 459.77L195.256 463.103ZM203.438 469.973L206.94 468.991L203.7 457.437L200.197 458.419L203.438 469.973ZM211.084 461.548L210.286 458.788L198.758 462.121L199.556 464.88L211.084 461.548ZM210.285 458.786C209.704 456.778 208.345 455.107 206.541 454.118L200.772 464.64C199.811 464.113 199.075 463.216 198.759 462.123L210.285 458.786ZM206.541 454.118C204.74 453.13 202.625 452.891 200.654 453.443L203.89 464.998C202.848 465.29 201.729 465.165 200.772 464.64L206.541 454.118Z" fill="white" mask="url(#path-33-inside-7_254_120)"/>
<path d="M209.785 459.014L209.797 458.991L209.785 459.014Z" stroke="white" stroke-width="6"/>
<path d="M216.79 457.049L216.802 457.026L216.79 457.049Z" stroke="white" stroke-width="6"/>
<path d="M223.793 455.085L223.806 455.063L223.793 455.085Z" stroke="white" stroke-width="6"/>
<path d="M230.798 453.12L230.81 453.098L230.798 453.12Z" stroke="white" stroke-width="6"/>
<mask id="path-39-inside-8_254_120" fill="white">
<path d="M237.296 449.399C236.831 449.53 236.438 449.837 236.204 450.252C235.969 450.668 235.911 451.158 236.043 451.615L236.841 454.375L240.343 453.393L239.545 450.633C239.413 450.176 239.102 449.789 238.68 449.558C238.258 449.326 237.76 449.269 237.296 449.399Z"/>
</mask>
<path d="M237.296 449.399L235.677 443.622L235.673 443.623L237.296 449.399ZM236.043 451.615L230.279 453.28L230.279 453.282L236.043 451.615ZM236.841 454.375L231.077 456.041L232.73 461.759L238.461 460.152L236.841 454.375ZM240.343 453.393L241.963 459.17L247.787 457.536L246.107 451.726L240.343 453.393ZM239.545 450.633L245.309 448.967L245.309 448.965L239.545 450.633ZM235.673 443.623C233.7 444.177 232.004 445.488 230.98 447.3L241.427 453.205C240.873 454.185 239.962 454.883 238.918 455.176L235.673 443.623ZM230.98 447.3C229.954 449.115 229.698 451.269 230.279 453.28L241.808 449.951C242.124 451.047 241.983 452.22 241.427 453.205L230.98 447.3ZM230.279 453.282L231.077 456.041L242.605 452.708L241.807 449.949L230.279 453.282ZM238.461 460.152L241.963 459.17L238.723 447.615L235.221 448.598L238.461 460.152ZM246.107 451.726L245.309 448.967L233.781 452.299L234.579 455.059L246.107 451.726ZM245.309 448.965C244.727 446.957 243.369 445.286 241.564 444.297L235.795 454.819C234.834 454.292 234.099 453.395 233.782 452.302L245.309 448.965ZM241.564 444.297C239.763 443.309 237.648 443.07 235.677 443.622L238.914 455.177C237.872 455.469 236.753 455.344 235.795 454.819L241.564 444.297Z" fill="white" mask="url(#path-39-inside-8_254_120)"/>
<mask id="path-41-inside-9_254_120" fill="white">
<path d="M196.738 467.612C196.274 468.001 195.881 468.916 195.646 470.155C195.411 471.394 195.353 472.857 195.485 474.221L196.283 482.452L199.786 479.523L198.988 471.292C198.855 469.928 198.544 468.774 198.122 468.084C197.7 467.394 197.202 467.224 196.738 467.612Z"/>
</mask>
<path d="M196.738 467.612L192.891 463.008L192.885 463.013L196.738 467.612ZM195.485 474.221L189.513 474.799L189.513 474.8L195.485 474.221ZM196.283 482.452L190.311 483.031L191.409 494.352L200.133 487.054L196.283 482.452ZM199.786 479.523L203.635 484.125L206.063 482.094L205.758 478.944L199.786 479.523ZM198.988 471.292L204.96 470.713L204.96 470.712L198.988 471.292ZM192.885 463.013C191.627 464.067 190.951 465.363 190.593 466.197C190.192 467.131 189.927 468.11 189.751 469.038L201.541 471.272C201.6 470.961 201.649 470.863 201.619 470.932C201.602 470.972 201.54 471.112 201.408 471.311C201.282 471.501 201.026 471.847 200.591 472.212L192.885 463.013ZM189.751 469.038C189.401 470.882 189.331 472.918 189.513 474.799L201.458 473.643C201.376 472.796 201.421 471.907 201.541 471.272L189.751 469.038ZM189.513 474.8L190.311 483.031L202.255 481.873L201.457 473.642L189.513 474.8ZM200.133 487.054L203.635 484.125L195.936 474.92L192.434 477.85L200.133 487.054ZM205.758 478.944L204.96 470.713L193.016 471.871L193.813 480.101L205.758 478.944ZM204.96 470.712C204.793 468.99 204.357 466.78 203.241 464.954L193.003 471.214C192.898 471.042 192.853 470.93 192.846 470.912C192.837 470.89 192.848 470.915 192.871 470.998C192.917 471.17 192.976 471.464 193.016 471.871L204.96 470.712ZM203.241 464.954C202.699 464.068 201.522 462.494 199.381 461.764C196.771 460.875 194.385 461.76 192.891 463.008L200.585 472.217C200.136 472.591 199.431 473.039 198.464 473.266C197.455 473.503 196.428 473.436 195.511 473.123C193.84 472.554 193.123 471.41 193.003 471.214L203.241 464.954Z" fill="white" mask="url(#path-41-inside-9_254_120)"/>
<mask id="path-43-inside-10_254_120" fill="white">
<path d="M203.743 465.648C203.278 466.037 202.886 466.952 202.651 468.191C202.416 469.431 202.358 470.893 202.49 472.257L203.288 480.488L206.79 477.559L205.993 469.328C205.86 467.964 205.549 466.81 205.127 466.12C204.705 465.43 204.207 465.26 203.743 465.648Z"/>
</mask>
<path d="M203.743 465.648L199.896 461.044L199.89 461.049L203.743 465.648ZM202.49 472.257L196.518 472.836L196.518 472.836L202.49 472.257ZM203.288 480.488L197.316 481.067L198.413 492.388L207.138 485.09L203.288 480.488ZM206.79 477.559L210.64 482.161L213.068 480.13L212.762 476.98L206.79 477.559ZM205.993 469.328L211.965 468.749L211.965 468.748L205.993 469.328ZM199.89 461.049C198.631 462.103 197.956 463.399 197.598 464.234C197.197 465.167 196.932 466.147 196.756 467.074L208.546 469.309C208.605 468.997 208.654 468.899 208.624 468.968C208.607 469.008 208.544 469.148 208.413 469.347C208.287 469.537 208.031 469.883 207.596 470.248L199.89 461.049ZM196.756 467.074C196.406 468.918 196.336 470.954 196.518 472.836L208.462 471.679C208.38 470.832 208.426 469.943 208.546 469.309L196.756 467.074ZM196.518 472.836L197.316 481.067L209.26 479.909L208.462 471.679L196.518 472.836ZM207.138 485.09L210.64 482.161L202.941 472.956L199.439 475.886L207.138 485.09ZM212.762 476.98L211.965 468.749L200.021 469.907L200.818 478.138L212.762 476.98ZM211.965 468.748C211.797 467.026 211.362 464.816 210.246 462.99L200.008 469.25C199.903 469.078 199.858 468.966 199.851 468.948C199.841 468.926 199.853 468.951 199.876 469.034C199.922 469.206 199.981 469.5 200.021 469.907L211.965 468.748ZM210.246 462.99C209.704 462.104 208.527 460.53 206.386 459.8C203.776 458.911 201.39 459.796 199.896 461.044L207.59 470.253C207.141 470.627 206.436 471.075 205.469 471.302C204.46 471.539 203.433 471.472 202.516 471.159C200.845 470.59 200.128 469.446 200.008 469.25L210.246 462.99Z" fill="white" mask="url(#path-43-inside-10_254_120)"/>
<mask id="path-45-inside-11_254_120" fill="white">
<path d="M210.747 463.684C210.282 464.073 209.89 464.987 209.655 466.226C209.42 467.466 209.362 468.928 209.494 470.293L210.292 478.523L213.794 475.594L212.996 467.363C212.864 465.999 212.553 464.845 212.131 464.155C211.709 463.465 211.211 463.296 210.747 463.684Z"/>
</mask>
<path d="M210.747 463.684L206.9 459.079L206.894 459.084L210.747 463.684ZM209.494 470.293L203.522 470.871L203.522 470.871L209.494 470.293ZM210.292 478.523L204.32 479.102L205.417 490.423L214.142 483.126L210.292 478.523ZM213.794 475.594L217.644 480.196L220.072 478.165L219.766 475.015L213.794 475.594ZM212.996 467.363L218.969 466.784L218.968 466.783L212.996 467.363ZM206.894 459.084C205.635 460.138 204.96 461.434 204.602 462.269C204.201 463.202 203.935 464.182 203.76 465.109L215.55 467.344C215.609 467.032 215.658 466.935 215.628 467.004C215.611 467.043 215.548 467.183 215.416 467.383C215.291 467.572 215.035 467.919 214.6 468.283L206.894 459.084ZM203.76 465.109C203.41 466.953 203.34 468.989 203.522 470.871L215.466 469.714C215.384 468.867 215.43 467.978 215.55 467.344L203.76 465.109ZM203.522 470.871L204.32 479.102L216.264 477.944L215.466 469.714L203.522 470.871ZM214.142 483.126L217.644 480.196L209.945 470.992L206.442 473.921L214.142 483.126ZM219.766 475.015L218.969 466.784L207.024 467.942L207.822 476.173L219.766 475.015ZM218.968 466.783C218.801 465.061 218.366 462.851 217.25 461.025L207.012 467.285C206.907 467.113 206.861 467.001 206.854 466.983C206.845 466.961 206.857 466.986 206.879 467.069C206.926 467.241 206.985 467.536 207.025 467.943L218.968 466.783ZM217.25 461.025C216.708 460.139 215.531 458.565 213.39 457.836C210.78 456.947 208.394 457.831 206.9 459.079L214.593 468.288C214.145 468.663 213.439 469.11 212.473 469.337C211.464 469.574 210.437 469.507 209.52 469.195C207.849 468.625 207.132 467.481 207.012 467.285L217.25 461.025Z" fill="white" mask="url(#path-45-inside-11_254_120)"/>
<mask id="path-47-inside-12_254_120" fill="white">
<path d="M217.752 461.72C217.287 462.109 216.895 463.023 216.66 464.263C216.425 465.502 216.367 466.964 216.499 468.329L217.297 476.559L220.799 473.63L220.001 465.399C219.869 464.035 219.558 462.881 219.136 462.191C218.714 461.501 218.216 461.332 217.752 461.72Z"/>
</mask>
<path d="M217.752 461.72L213.905 457.115L213.899 457.12L217.752 461.72ZM216.499 468.329L210.527 468.907L210.527 468.908L216.499 468.329ZM217.297 476.559L211.325 477.138L212.422 488.459L221.146 481.162L217.297 476.559ZM220.799 473.63L224.649 478.232L227.077 476.201L226.771 473.051L220.799 473.63ZM220.001 465.399L225.973 464.82L225.973 464.819L220.001 465.399ZM213.899 457.12C212.64 458.174 211.965 459.471 211.606 460.305C211.206 461.238 210.94 462.218 210.765 463.145L222.555 465.38C222.614 465.068 222.662 464.971 222.633 465.04C222.616 465.079 222.553 465.219 222.421 465.419C222.296 465.608 222.04 465.955 221.604 466.319L213.899 457.12ZM210.765 463.145C210.415 464.989 210.345 467.025 210.527 468.907L222.471 467.751C222.389 466.903 222.435 466.014 222.555 465.38L210.765 463.145ZM210.527 468.908L211.325 477.138L223.269 475.981L222.471 467.75L210.527 468.908ZM221.146 481.162L224.649 478.232L216.95 469.028L213.447 471.957L221.146 481.162ZM226.771 473.051L225.973 464.82L214.029 465.978L214.827 474.209L226.771 473.051ZM225.973 464.819C225.806 463.097 225.371 460.887 224.255 459.061L214.017 465.321C213.912 465.149 213.866 465.037 213.859 465.02C213.85 464.997 213.862 465.023 213.884 465.105C213.931 465.277 213.99 465.572 214.029 465.979L225.973 464.819ZM224.255 459.061C223.713 458.175 222.536 456.601 220.394 455.872C217.784 454.983 215.399 455.867 213.905 457.115L221.598 466.324C221.15 466.699 220.444 467.146 219.478 467.373C218.469 467.611 217.442 467.543 216.525 467.231C214.854 466.662 214.137 465.517 214.017 465.321L224.255 459.061Z" fill="white" mask="url(#path-47-inside-12_254_120)"/>
<mask id="path-49-inside-13_254_120" fill="white">
<path d="M224.756 459.755C224.292 460.144 223.899 461.058 223.665 462.298C223.43 463.537 223.372 465 223.504 466.364L224.302 474.595L227.804 471.665L227.006 463.434C226.874 462.07 226.563 460.916 226.141 460.226C225.719 459.536 225.221 459.367 224.756 459.755Z"/>
</mask>
<path d="M224.756 459.755L220.91 455.15L220.904 455.155L224.756 459.755ZM223.504 466.364L217.532 466.942L217.532 466.943L223.504 466.364ZM224.302 474.595L218.33 475.173L219.427 486.495L228.151 479.197L224.302 474.595ZM227.804 471.665L231.654 476.267L234.081 474.236L233.776 471.086L227.804 471.665ZM227.006 463.434L232.978 462.855L232.978 462.855L227.006 463.434ZM220.904 455.155C219.645 456.21 218.97 457.506 218.611 458.34C218.21 459.273 217.945 460.253 217.769 461.181L229.56 463.415C229.619 463.103 229.667 463.006 229.638 463.075C229.621 463.114 229.558 463.255 229.426 463.454C229.301 463.643 229.044 463.99 228.609 464.354L220.904 455.155ZM217.769 461.181C217.42 463.025 217.35 465.061 217.532 466.942L229.476 465.786C229.394 464.939 229.439 464.049 229.56 463.415L217.769 461.181ZM217.532 466.943L218.33 475.173L230.274 474.016L229.476 465.785L217.532 466.943ZM228.151 479.197L231.654 476.267L223.954 467.063L220.452 469.992L228.151 479.197ZM233.776 471.086L232.978 462.855L221.034 464.013L221.832 472.244L233.776 471.086ZM232.978 462.855C232.811 461.133 232.376 458.922 231.26 457.096L221.022 463.356C220.917 463.184 220.871 463.072 220.864 463.055C220.855 463.032 220.867 463.058 220.889 463.141C220.936 463.312 220.995 463.607 221.034 464.014L232.978 462.855ZM231.26 457.096C230.718 456.21 229.541 454.636 227.399 453.907C224.789 453.018 222.404 453.902 220.91 455.15L228.603 464.36C228.155 464.734 227.449 465.181 226.483 465.409C225.474 465.646 224.447 465.578 223.53 465.266C221.859 464.697 221.142 463.552 221.022 463.356L231.26 457.096Z" fill="white" mask="url(#path-49-inside-13_254_120)"/>
<mask id="path-51-inside-14_254_120" fill="white">
<path d="M231.76 457.791C231.296 458.18 230.903 459.095 230.668 460.334C230.434 461.573 230.376 463.036 230.508 464.4L231.306 472.631L234.808 469.701L234.01 461.47C233.878 460.106 233.566 458.953 233.145 458.263C232.723 457.573 232.225 457.403 231.76 457.791Z"/>
</mask>
<path d="M231.76 457.791L227.914 453.186L227.908 453.191L231.76 457.791ZM230.508 464.4L224.536 464.978L224.536 464.979L230.508 464.4ZM231.306 472.631L225.334 473.21L226.431 484.53L235.155 477.233L231.306 472.631ZM234.808 469.701L238.658 474.303L241.085 472.273L240.78 469.122L234.808 469.701ZM234.01 461.47L239.982 460.892L239.982 460.891L234.01 461.47ZM227.908 453.191C226.649 454.246 225.973 455.542 225.615 456.376C225.214 457.309 224.949 458.289 224.773 459.217L236.564 461.451C236.623 461.139 236.671 461.042 236.642 461.111C236.625 461.151 236.562 461.291 236.43 461.49C236.305 461.679 236.048 462.026 235.613 462.39L227.908 453.191ZM224.773 459.217C224.424 461.061 224.354 463.097 224.536 464.978L236.48 463.822C236.398 462.975 236.443 462.086 236.564 461.451L224.773 459.217ZM224.536 464.979L225.334 473.21L237.278 472.052L236.48 463.821L224.536 464.979ZM235.155 477.233L238.658 474.303L230.958 465.099L227.456 468.028L235.155 477.233ZM240.78 469.122L239.982 460.892L228.038 462.049L228.836 470.28L240.78 469.122ZM239.982 460.891C239.815 459.169 239.38 456.958 238.264 455.133L228.026 461.392C227.92 461.22 227.875 461.108 227.868 461.091C227.859 461.068 227.871 461.094 227.893 461.177C227.939 461.349 227.999 461.643 228.038 462.05L239.982 460.891ZM238.264 455.133C237.722 454.247 236.545 452.673 234.404 451.943C231.794 451.054 229.409 451.938 227.914 453.186L235.607 462.396C235.158 462.77 234.453 463.218 233.486 463.445C232.477 463.682 231.45 463.614 230.533 463.302C228.862 462.732 228.145 461.588 228.026 461.392L238.264 455.133Z" fill="white" mask="url(#path-51-inside-14_254_120)"/>
<mask id="path-53-inside-15_254_120" fill="white">
<path d="M238.765 455.826C238.301 456.215 237.908 457.13 237.673 458.369C237.439 459.608 237.381 461.071 237.513 462.435L238.311 470.666L241.813 467.736L241.015 459.506C240.883 458.141 240.571 456.988 240.149 456.298C239.728 455.608 239.23 455.438 238.765 455.826Z"/>
</mask>
<path d="M238.765 455.826L234.919 451.221L234.912 451.227L238.765 455.826ZM237.513 462.435L231.541 463.013L231.541 463.014L237.513 462.435ZM238.311 470.666L232.339 471.245L233.436 482.566L242.16 475.268L238.311 470.666ZM241.813 467.736L245.663 472.338L248.09 470.308L247.785 467.157L241.813 467.736ZM241.015 459.506L246.987 458.927L246.987 458.926L241.015 459.506ZM234.912 451.227C233.654 452.281 232.978 453.577 232.62 454.411C232.219 455.345 231.954 456.324 231.778 457.252L243.568 459.486C243.628 459.174 243.676 459.077 243.647 459.146C243.629 459.186 243.567 459.326 243.435 459.525C243.31 459.715 243.053 460.061 242.618 460.426L234.912 451.227ZM231.778 457.252C231.429 459.096 231.359 461.132 231.541 463.013L243.485 461.857C243.403 461.01 243.448 460.121 243.568 459.486L231.778 457.252ZM231.541 463.014L232.339 471.245L244.283 470.087L243.485 461.856L231.541 463.014ZM242.16 475.268L245.663 472.338L237.963 463.134L234.461 466.064L242.16 475.268ZM247.785 467.157L246.987 458.927L235.043 460.084L235.841 468.315L247.785 467.157ZM246.987 458.926C246.82 457.204 246.385 454.993 245.268 453.168L235.031 459.428C234.925 459.256 234.88 459.144 234.873 459.126C234.864 459.103 234.876 459.129 234.898 459.212C234.944 459.384 235.004 459.678 235.043 460.085L246.987 458.926ZM245.268 453.168C244.727 452.282 243.549 450.708 241.408 449.978C238.798 449.089 236.413 449.973 234.919 451.221L242.612 460.431C242.164 460.805 241.458 461.253 240.491 461.48C239.483 461.717 238.456 461.65 237.539 461.337C235.868 460.768 235.15 459.624 235.031 459.428L245.268 453.168Z" fill="white" mask="url(#path-53-inside-15_254_120)"/>
<path d="M207.295 446.829L207.299 446.837L207.303 446.844C208.615 449.388 209.201 452.555 208.88 455.723C208.559 458.895 207.369 461.674 205.684 463.581C204.015 465.47 202.051 466.313 200.209 466.279C198.363 466.245 196.402 465.327 194.761 463.362L194.401 462.931L193.909 462.66L162.138 445.103L169.146 433.086L190.813 445.531L193.048 446.815L194.654 444.798C195.612 443.594 196.705 442.75 197.819 442.254C198.923 441.762 200.058 441.608 201.163 441.767C202.274 441.926 203.407 442.411 204.476 443.262C205.549 444.117 206.527 445.319 207.295 446.829Z" fill="#1E2A39" stroke="white" stroke-width="6"/>
<path d="M862.001 37.197C862.001 38.6866 861.854 40.0315 861.633 40.977H410.364C410.144 40.0315 409.997 38.6866 409.997 37.197C409.997 35.7075 410.144 34.3625 410.364 33.417H861.633C861.854 34.3625 862.001 35.7075 862.001 37.197Z" stroke="white" stroke-width="6"/>
<path d="M447.293 15.6642C447.293 19.4715 446.245 22.7845 444.706 25.0601C443.156 27.353 441.331 28.3284 439.702 28.3284C438.072 28.3284 436.248 27.353 434.698 25.0601C433.159 22.7845 432.11 19.4715 432.11 15.6642C432.11 11.8569 433.159 8.54395 434.698 6.26835C436.248 3.97549 438.072 3 439.702 3C441.331 3 443.156 3.97549 444.706 6.26834C446.245 8.54395 447.293 11.8569 447.293 15.6642Z" stroke="white" stroke-width="6"/>
<path d="M483.882 15.6642C483.882 19.4715 482.834 22.7845 481.295 25.0601C479.745 27.353 477.92 28.3284 476.291 28.3284C474.661 28.3284 472.837 27.353 471.287 25.0601C469.748 22.7845 468.699 19.4715 468.699 15.6642C468.699 11.8569 469.748 8.54395 471.287 6.26835C472.837 3.97549 474.661 3 476.291 3C477.92 3 479.745 3.97549 481.295 6.26834C482.834 8.54395 483.882 11.8569 483.882 15.6642Z" stroke="white" stroke-width="6"/>
<path d="M520.471 15.6642C520.471 19.4715 519.422 22.7845 517.884 25.0601C516.333 27.353 514.509 28.3284 512.88 28.3284C511.25 28.3284 509.426 27.353 507.875 25.0601C506.337 22.7845 505.288 19.4715 505.288 15.6642C505.288 11.8569 506.337 8.54395 507.875 6.26834C509.426 3.97549 511.25 3 512.88 3C514.509 3 516.333 3.97549 517.884 6.26835C519.422 8.54395 520.471 11.8569 520.471 15.6642Z" stroke="white" stroke-width="6"/>
<path d="M816.282 9.58185C816.282 8.01331 816.453 6.60531 816.704 5.64355H839.71C839.96 6.60526 840.132 8.01324 840.132 9.58185C840.132 11.1505 839.96 12.5584 839.71 13.5201H816.704C816.453 12.5584 816.282 11.1504 816.282 9.58185Z" stroke="white" stroke-width="6"/>
<path d="M816.282 16.8572C816.282 15.2887 816.453 13.8807 816.704 12.9189H839.71C839.96 13.8806 840.132 15.2886 840.132 16.8572C840.132 18.4258 839.96 19.8338 839.71 20.7955H816.704C816.453 19.8338 816.282 18.4258 816.282 16.8572Z" stroke="white" stroke-width="6"/>
<path d="M816.282 24.1239C816.282 22.5553 816.453 21.1473 816.704 20.1855H839.71C839.961 21.1472 840.132 22.5552 840.132 24.1239C840.132 25.6925 839.961 27.1005 839.71 28.0621H816.704C816.453 27.1004 816.282 25.6924 816.282 24.1239Z" stroke="white" stroke-width="6"/>
<mask id="path-63-inside-16_254_120" fill="white">
<path d="M66.4756 448.068L66.4907 443.07L66.4756 453.111V448.068Z"/>
</mask>
<path d="M66.4756 448.068L60.4756 448.05L60.4756 448.059V448.068H66.4756ZM66.4907 443.07L72.4907 443.079L60.4907 443.052L66.4907 443.07ZM66.4756 453.111H60.4756L72.4756 453.12L66.4756 453.111ZM72.4756 448.086L72.4906 443.088L60.4907 443.052L60.4756 448.05L72.4756 448.086ZM60.4907 443.061L60.4756 453.102L72.4756 453.12L72.4907 443.079L60.4907 443.061ZM72.4756 453.111V448.068H60.4756V453.111H72.4756Z" fill="white" mask="url(#path-63-inside-16_254_120)"/>
<path d="M700.881 95.4447C700.881 99.8175 699.58 103.656 697.624 106.328C695.667 109.003 693.214 110.341 690.786 110.341C688.359 110.341 685.905 109.003 683.948 106.328C681.993 103.656 680.692 99.8175 680.692 95.4447C680.692 91.0719 681.993 87.2337 683.948 84.5612C685.905 81.8865 688.359 80.5479 690.786 80.5479C693.214 80.5479 695.667 81.8865 697.624 84.5612C699.58 87.2337 700.881 91.0719 700.881 95.4447Z" stroke="white" stroke-width="6"/>
<path d="M682.163 126.157C682.163 126.157 682.162 126.157 682.162 126.157L682.163 126.157ZM682.024 126.003C681.911 125.856 681.75 125.604 681.574 125.206C681.325 124.641 681.097 123.899 680.934 123.009C680.773 122.125 680.686 121.155 680.686 120.163C680.686 119.17 680.773 118.2 680.934 117.316C681.097 116.426 681.325 115.684 681.574 115.119C681.75 114.721 681.911 114.469 682.024 114.322H800.719C800.832 114.469 800.993 114.721 801.168 115.119C801.418 115.684 801.645 116.426 801.808 117.316C801.97 118.2 802.057 119.17 802.057 120.163C802.057 121.155 801.97 122.125 801.808 123.009C801.645 123.899 801.418 124.641 801.168 125.206C800.993 125.604 800.832 125.856 800.719 126.003H682.024ZM801.162 126.003H801.151C801.155 126.003 801.158 126.003 801.162 126.003ZM801.162 114.322C801.158 114.322 801.155 114.322 801.151 114.322L801.162 114.322Z" stroke="white" stroke-width="6"/>
<path d="M711.299 140.378C711.122 140.779 710.961 141.032 710.848 141.178H682.03C681.917 141.032 681.756 140.779 681.579 140.378C681.057 139.196 680.692 137.383 680.692 135.338C680.692 133.292 681.057 131.479 681.579 130.297C681.756 129.896 681.917 129.644 682.03 129.497H710.848C710.961 129.644 711.122 129.896 711.299 130.297C711.82 131.479 712.186 133.292 712.186 135.338C712.186 137.383 711.82 139.196 711.299 140.378Z" stroke="white" stroke-width="6"/>
<path d="M700.881 296.743C700.881 301.116 699.58 304.954 697.624 307.627C695.667 310.302 693.214 311.64 690.786 311.64C688.359 311.64 685.905 310.302 683.948 307.627C681.993 304.954 680.692 301.116 680.692 296.743C680.692 292.371 681.993 288.533 683.948 285.86C685.905 283.185 688.359 281.847 690.786 281.847C693.214 281.847 695.667 283.185 697.624 285.86C699.58 288.533 700.881 292.371 700.881 296.743Z" stroke="white" stroke-width="6"/>
<path d="M801.164 326.502C800.987 326.903 800.825 327.155 800.713 327.302H682.03C681.917 327.155 681.756 326.903 681.579 326.502C681.058 325.32 680.692 323.507 680.692 321.461C680.692 319.416 681.058 317.603 681.579 316.421C681.756 316.02 681.917 315.768 682.03 315.621H800.713C800.826 315.768 800.987 316.02 801.164 316.421L803.897 315.216L801.164 316.421C801.685 317.603 802.051 319.416 802.051 321.461C802.051 323.507 801.685 325.32 801.164 326.502L803.908 327.713L801.164 326.502Z" stroke="white" stroke-width="6"/>
<path d="M711.299 341.677C711.122 342.078 710.961 342.331 710.848 342.477H682.03C681.917 342.331 681.756 342.078 681.579 341.677C681.057 340.495 680.692 338.682 680.692 336.637C680.692 334.591 681.058 332.778 681.579 331.596C681.756 331.195 681.917 330.942 682.03 330.796H710.848C710.961 330.942 711.122 331.195 711.299 331.596C711.82 332.778 712.186 334.591 712.186 336.637C712.186 338.682 711.82 340.495 711.299 341.677Z" stroke="white" stroke-width="6"/>
<path d="M490.136 266.197C490.136 270.569 488.835 274.408 486.88 277.08C484.923 279.755 482.469 281.093 480.042 281.093C477.614 281.093 475.161 279.755 473.204 277.08C471.248 274.408 469.947 270.569 469.947 266.197C469.947 261.824 471.248 257.986 473.204 255.313C475.161 252.638 477.614 251.3 480.042 251.3C482.469 251.3 484.923 252.638 486.88 255.313C488.835 257.986 490.136 261.824 490.136 266.197Z" stroke="white" stroke-width="6"/>
<path d="M590.419 295.954C590.242 296.355 590.081 296.608 589.968 296.754H471.286C471.173 296.608 471.011 296.355 470.835 295.954C470.313 294.772 469.948 292.959 469.948 290.914C469.948 288.869 470.313 287.055 470.835 285.873C471.011 285.473 471.173 285.22 471.286 285.073H589.968C590.081 285.22 590.242 285.473 590.419 285.873L593.152 284.668L590.419 285.873C590.94 287.055 591.306 288.869 591.306 290.914C591.306 292.959 590.94 294.772 590.419 295.954L593.164 297.165L590.419 295.954Z" stroke="white" stroke-width="6"/>
<path d="M500.554 311.13C500.377 311.531 500.216 311.784 500.103 311.93H471.285C471.172 311.784 471.011 311.531 470.834 311.13C470.313 309.948 469.947 308.135 469.947 306.09C469.947 304.045 470.313 302.231 470.834 301.049C471.011 300.648 471.172 300.396 471.285 300.249H500.103C500.216 300.396 500.377 300.648 500.554 301.049C501.076 302.231 501.441 304.044 501.441 306.09C501.441 308.135 501.076 309.948 500.554 311.13Z" stroke="white" stroke-width="6"/>
<path d="M700.881 188.506C700.881 192.879 699.58 196.717 697.624 199.39C695.667 202.064 693.214 203.403 690.786 203.403C688.359 203.403 685.905 202.064 683.948 199.39C681.993 196.717 680.692 192.879 680.692 188.506C680.692 184.133 681.993 180.295 683.948 177.623C685.905 174.948 688.359 173.609 690.786 173.609C693.214 173.609 695.667 174.948 697.624 177.623C699.58 180.295 700.881 184.133 700.881 188.506Z" stroke="white" stroke-width="6"/>
<path d="M801.164 218.265C800.987 218.665 800.825 218.918 800.713 219.065H682.03C681.917 218.918 681.756 218.665 681.579 218.265C681.058 217.083 680.692 215.269 680.692 213.224C680.692 211.179 681.058 209.366 681.579 208.184C681.756 207.783 681.917 207.53 682.03 207.384H800.713C800.825 207.53 800.987 207.783 801.164 208.184L803.897 206.978L801.164 208.184C801.685 209.366 802.051 211.179 802.051 213.224C802.051 215.269 801.685 217.083 801.164 218.265L803.908 219.475L801.164 218.265Z" stroke="white" stroke-width="6"/>
<path d="M753.448 233.44C753.271 233.84 753.11 234.093 752.997 234.24H682.03C681.917 234.093 681.756 233.84 681.579 233.44C681.057 232.258 680.692 230.444 680.692 228.399C680.692 226.354 681.057 224.541 681.579 223.359C681.756 222.958 681.917 222.705 682.03 222.559H752.997C753.11 222.705 753.271 222.958 753.448 223.359C753.969 224.541 754.335 226.354 754.335 228.399C754.335 230.444 753.969 232.258 753.448 233.44Z" stroke="white" stroke-width="6"/>
<path d="M733.43 248.616C733.253 249.016 733.092 249.269 732.979 249.416H682.03C681.917 249.269 681.756 249.016 681.579 248.616C681.058 247.434 680.692 245.62 680.692 243.575C680.692 241.53 681.057 239.716 681.579 238.534C681.756 238.134 681.917 237.881 682.03 237.734H732.979C733.092 237.881 733.253 238.134 733.43 238.534C733.951 239.716 734.317 241.53 734.317 243.575C734.317 245.62 733.951 247.434 733.43 248.616Z" stroke="white" stroke-width="6"/>
<path d="M568.4 99.9475V99.9503V244.852C568.4 245.118 568.298 245.344 568.162 245.488C568.032 245.625 567.891 245.671 567.778 245.672C567.777 245.672 567.776 245.672 567.775 245.672L496.579 245.672C489.219 238.277 483.153 229.554 478.671 219.905L478.666 219.894L478.661 219.883C478.363 219.254 478.08 218.624 477.812 217.986L477.803 217.966L477.795 217.946C473.554 208.247 470.985 197.824 470.211 187.167L470.21 187.155L470.209 187.144C470.157 186.494 470.115 185.86 470.088 185.222L470.087 185.203L470.086 185.183C469.991 183.501 469.947 181.788 469.947 180.061L469.947 180.057C469.933 168.596 471.987 157.24 475.996 146.594L476.002 146.576L476.009 146.558C476.241 145.916 476.49 145.274 476.75 144.631L476.751 144.628C482.03 131.546 490.14 119.965 500.418 110.81L500.427 110.802C501.031 110.26 501.641 109.733 502.257 109.221L502.265 109.214L502.274 109.207L502.411 109.092C502.413 109.09 502.414 109.089 502.416 109.087C510.205 102.59 519.83 99.0885 529.715 99.1223H529.726H567.776C567.89 99.1234 568.032 99.1705 568.162 99.3083C568.298 99.4526 568.4 99.6799 568.4 99.9475Z" stroke="white" stroke-width="6"/>
<path opacity="0.2" d="M540.365 188.383H554.046C551.055 190.027 548.319 192.142 545.936 194.655C543.731 196.98 541.858 199.613 540.365 202.471V188.383ZM501.423 146.522H520.386C516.155 148.603 512.305 151.446 509.009 154.92C505.907 158.19 503.348 161.966 501.423 166.091V146.522Z" stroke="white" stroke-width="6"/>
<path d="M172.5 249C172.5 249 186.34 283.743 172.5 295.5C160.743 305.487 133 295.5 133 295.5" stroke="white" stroke-width="6"/>
<path d="M136.5 293.5C136.5 293.5 123.542 300.206 114.5 301C91.8808 302.985 87.5165 273.424 64.9997 270.5C49.3056 268.462 37.4345 286.789 24.9997 277C8.14482 263.731 35.0561 232.576 56.4997 232C67.777 231.697 71.7507 242.646 82.9997 243.5C92.1258 244.192 98.5082 244.258 106 239C112.56 234.395 101.5 219 117.5 222C133.5 225 140.821 218.333 155 222C164.309 224.407 174.903 222.742 177.5 232C179.124 237.791 176.875 241.716 174 247C166.997 259.868 147.267 248.406 139 260.5C131.706 271.169 136.5 293.5 136.5 293.5Z" stroke="white" stroke-width="6"/>
</g>
<defs>
<clipPath id="clip0_254_120">
<rect width="866" height="675" fill="white"/>
</clipPath>
</defs>
</svg>
