<svg id="visual" viewBox="0 0 900 450" width="900" height="450" xmlns="http://www.w3.org/2000/svg" xmlns:xlink="http://www.w3.org/1999/xlink" version="1.1"><rect x="0" y="0" width="900" height="450" fill="#ffffff"></rect><path d="M0 220L15 208.2C30 196.3 60 172.7 90 191.2C120 209.7 150 270.3 180 290.5C210 310.7 240 290.3 270 268.2C300 246 330 222 360 215.2C390 208.3 420 218.7 450 225.5C480 232.3 510 235.7 540 245.3C570 255 600 271 630 263C660 255 690 223 720 202.2C750 181.3 780 171.7 810 163.5C840 155.3 870 148.7 885 145.3L900 142L900 451L885 451C870 451 840 451 810 451C780 451 750 451 720 451C690 451 660 451 630 451C600 451 570 451 540 451C510 451 480 451 450 451C420 451 390 451 360 451C330 451 300 451 270 451C240 451 210 451 180 451C150 451 120 451 90 451C60 451 30 451 15 451L0 451Z" fill="#1E2A39" stroke-linecap="round" stroke-linejoin="miter"></path></svg>