<svg width="343" height="180" viewBox="0 0 343 180" fill="none" xmlns="http://www.w3.org/2000/svg">
<path d="M135 135C123.065 146.935 106.878 153.64 90 153.64C73.1217 153.64 56.9347 146.935 45 135C33.0653 123.065 26.3604 106.878 26.3604 90.0002C26.3604 73.122 33.0653 56.935 45 45.0003L90 90.0002L135 135Z" fill="#094085" fill-opacity="0.7"/>
<path d="M45.0001 135C33.0653 123.065 26.3605 106.878 26.3605 89.9999C26.3605 73.1217 33.0653 56.9347 45.0001 45C56.9348 33.0652 73.1218 26.3604 90 26.3604C106.878 26.3604 123.065 33.0652 135 45L90 89.9999L45.0001 135Z" fill="#1171E8" fill-opacity="0.75"/>
<path d="M132.383 101.08C129.683 101.08 127.617 100.397 126.183 99.0303C124.75 97.6636 124.033 95.7136 124.033 93.1803C124.033 90.6803 124.75 88.7469 126.183 87.3803C127.617 86.0136 129.683 85.3303 132.383 85.3303H151.583V84.1303C151.583 82.0969 150.583 81.0803 148.583 81.0803H127.383V75.3303H150.483C153.517 75.3303 155.667 76.0303 156.933 77.4303C158.2 78.7969 158.833 80.7303 158.833 83.2303V101.08H132.383ZM133.683 95.3303H151.583V91.0803H133.683C133.05 91.0803 132.55 91.2803 132.183 91.6803C131.85 92.0469 131.683 92.5469 131.683 93.1803C131.683 93.8136 131.85 94.3303 132.183 94.7303C132.55 95.1303 133.05 95.3303 133.683 95.3303Z" fill="white"/>
<path d="M177.752 101.08C174.852 101.08 172.718 100.364 171.352 98.9303C169.985 97.4636 169.302 95.5469 169.302 93.1803V81.0803H161.852V75.3303H169.302V67.4303H176.552V75.3303H187.252V81.0803H176.552V92.2803C176.552 94.3136 177.552 95.3303 179.552 95.3303H188.652V101.08H177.752Z" fill="white"/>
<path d="M199.229 101.08C196.529 101.08 194.462 100.397 193.029 99.0303C191.596 97.6636 190.879 95.7136 190.879 93.1803C190.879 90.6803 191.596 88.7469 193.029 87.3803C194.462 86.0136 196.529 85.3303 199.229 85.3303H218.429V84.1303C218.429 82.0969 217.429 81.0803 215.429 81.0803H194.229V75.3303H217.329C220.362 75.3303 222.512 76.0303 223.779 77.4303C225.046 78.7969 225.679 80.7303 225.679 83.2303V101.08H199.229ZM200.529 95.3303H218.429V91.0803H200.529C199.896 91.0803 199.396 91.2803 199.029 91.6803C198.696 92.0469 198.529 92.5469 198.529 93.1803C198.529 93.8136 198.696 94.3303 199.029 94.7303C199.396 95.1303 199.896 95.3303 200.529 95.3303Z" fill="white"/>
<path d="M231.198 101.08V65.3303H238.448V101.08H231.198Z" fill="white"/>
<path d="M249.742 112.33V106.58H264.842C266.842 106.58 267.842 105.564 267.842 103.53V101.08H252.392C249.458 101.08 247.308 100.347 245.942 98.8803C244.608 97.4136 243.942 95.5136 243.942 93.1803V75.3303H251.192V92.3303C251.192 94.3303 252.192 95.3303 254.192 95.3303H267.592V75.3303H275.092V104.43C275.092 106.797 274.408 108.697 273.042 110.13C271.675 111.597 269.542 112.33 266.642 112.33H249.742Z" fill="white"/>
<path d="M279.762 101.33V95.5803H304.262C305.662 95.5803 306.362 94.7969 306.362 93.2303C306.362 91.6969 305.662 90.9303 304.262 90.9303H288.412C285.445 90.9303 283.195 90.2636 281.662 88.9303C280.128 87.5636 279.362 85.6136 279.362 83.0803C279.362 80.5136 280.128 78.5469 281.662 77.1803C283.228 75.7803 285.478 75.0803 288.412 75.0803H311.212V80.8303H288.762C287.328 80.8303 286.612 81.5303 286.612 82.9303C286.612 83.6303 286.812 84.1803 287.212 84.5803C287.612 84.9803 288.128 85.1803 288.762 85.1803H305.562C308.162 85.1803 310.145 85.8636 311.512 87.2303C312.912 88.5636 313.612 90.5136 313.612 93.0803C313.612 95.6803 312.912 97.7136 311.512 99.1803C310.112 100.614 308.128 101.33 305.562 101.33H279.762Z" fill="white"/>
<path d="M331.267 101.08C328.367 101.08 326.234 100.364 324.867 98.9303C323.501 97.4636 322.817 95.5469 322.817 93.1803V81.0803H315.367V75.3303H322.817V67.4303H330.067V75.3303H340.767V81.0803H330.067V92.2803C330.067 94.3136 331.067 95.3303 333.067 95.3303H342.167V101.08H331.267Z" fill="white"/>
<path d="M156.291 115.075H163.491V116.47H160.581V125.92H159.126V116.47H156.291V115.075Z" fill="white"/>
<path d="M165.457 125.92V114.31H166.822V121.15L166.792 120.895C167.002 120.485 167.322 120.145 167.752 119.875C168.192 119.605 168.707 119.47 169.297 119.47C169.887 119.47 170.367 119.645 170.737 119.995C171.117 120.335 171.312 120.78 171.322 121.33V125.92H169.912V121.825C169.902 121.485 169.802 121.21 169.612 121C169.432 120.78 169.147 120.67 168.757 120.67C168.397 120.67 168.072 120.775 167.782 120.985C167.492 121.185 167.262 121.46 167.092 121.81C166.932 122.16 166.852 122.56 166.852 123.01V125.92H165.457Z" fill="white"/>
<path d="M176.628 126.07C175.918 126.07 175.308 125.93 174.798 125.65C174.288 125.36 173.893 124.97 173.613 124.48C173.343 123.98 173.208 123.41 173.208 122.77C173.208 122.16 173.363 121.605 173.673 121.105C173.983 120.605 174.398 120.205 174.918 119.905C175.438 119.605 176.018 119.455 176.658 119.455C177.478 119.455 178.158 119.695 178.698 120.175C179.238 120.655 179.603 121.315 179.793 122.155L174.678 123.955L174.348 123.13L178.548 121.6L178.248 121.795C178.128 121.465 177.928 121.18 177.648 120.94C177.368 120.69 177.003 120.565 176.553 120.565C176.173 120.565 175.833 120.66 175.533 120.85C175.233 121.03 174.998 121.28 174.828 121.6C174.658 121.92 174.573 122.285 174.573 122.695C174.573 123.125 174.663 123.505 174.843 123.835C175.023 124.155 175.268 124.41 175.578 124.6C175.898 124.78 176.258 124.87 176.658 124.87C176.928 124.87 177.188 124.82 177.438 124.72C177.698 124.62 177.938 124.49 178.158 124.33L178.803 125.365C178.493 125.575 178.143 125.745 177.753 125.875C177.373 126.005 176.998 126.07 176.628 126.07Z" fill="white"/>
<path d="M196.022 126.265L187.637 117.76L188.057 117.865L188.087 125.92H186.632V114.745H186.707L195.002 123.28L194.657 123.205L194.627 115.075H196.067V126.265H196.022Z" fill="white"/>
<path d="M201.72 126.07C201.01 126.07 200.4 125.93 199.89 125.65C199.38 125.36 198.985 124.97 198.705 124.48C198.435 123.98 198.3 123.41 198.3 122.77C198.3 122.16 198.455 121.605 198.765 121.105C199.075 120.605 199.49 120.205 200.01 119.905C200.53 119.605 201.11 119.455 201.75 119.455C202.57 119.455 203.25 119.695 203.79 120.175C204.33 120.655 204.695 121.315 204.885 122.155L199.77 123.955L199.44 123.13L203.64 121.6L203.34 121.795C203.22 121.465 203.02 121.18 202.74 120.94C202.46 120.69 202.095 120.565 201.645 120.565C201.265 120.565 200.925 120.66 200.625 120.85C200.325 121.03 200.09 121.28 199.92 121.6C199.75 121.92 199.665 122.285 199.665 122.695C199.665 123.125 199.755 123.505 199.935 123.835C200.115 124.155 200.36 124.41 200.67 124.6C200.99 124.78 201.35 124.87 201.75 124.87C202.02 124.87 202.28 124.82 202.53 124.72C202.79 124.62 203.03 124.49 203.25 124.33L203.895 125.365C203.585 125.575 203.235 125.745 202.845 125.875C202.465 126.005 202.09 126.07 201.72 126.07Z" fill="white"/>
<path d="M210.433 119.71L212.263 123.895L211.993 123.925L213.703 119.71H215.068L212.218 126.295L210.223 122.035L208.408 126.295L205.528 119.71H206.893L208.828 124.09L208.348 124L209.728 120.79L209.233 119.71H210.433Z" fill="white"/>
<path d="M221.656 115.075H228.706V116.47H223.111V119.77H228.106V121.165H223.111V124.525H228.916V125.92H221.656V115.075Z" fill="white"/>
<path d="M232.341 119.71L232.476 121.51L232.401 121.27C232.561 120.89 232.791 120.57 233.091 120.31C233.401 120.04 233.721 119.835 234.051 119.695C234.391 119.545 234.686 119.47 234.936 119.47L234.861 120.85C234.391 120.82 233.976 120.91 233.616 121.12C233.266 121.33 232.986 121.61 232.776 121.96C232.576 122.31 232.476 122.685 232.476 123.085V125.92H231.096V119.71H232.341Z" fill="white"/>
<path d="M239.169 126.07C238.589 126.07 238.059 125.945 237.579 125.695C237.109 125.445 236.734 125.08 236.454 124.6C236.184 124.11 236.049 123.515 236.049 122.815C236.049 122.125 236.194 121.53 236.484 121.03C236.774 120.52 237.159 120.13 237.639 119.86C238.129 119.59 238.664 119.455 239.244 119.455C239.824 119.455 240.314 119.59 240.714 119.86C241.114 120.12 241.419 120.43 241.629 120.79L241.539 121.03L241.674 119.71H242.964V125.92H241.569V124.3L241.719 124.66C241.679 124.76 241.589 124.89 241.449 125.05C241.319 125.2 241.139 125.355 240.909 125.515C240.689 125.675 240.434 125.81 240.144 125.92C239.854 126.02 239.529 126.07 239.169 126.07ZM239.544 124.915C239.894 124.915 240.209 124.85 240.489 124.72C240.769 124.59 240.999 124.41 241.179 124.18C241.369 123.94 241.499 123.655 241.569 123.325V122.11C241.489 121.81 241.349 121.55 241.149 121.33C240.949 121.1 240.709 120.925 240.429 120.805C240.149 120.675 239.839 120.61 239.499 120.61C239.129 120.61 238.789 120.7 238.479 120.88C238.169 121.06 237.919 121.31 237.729 121.63C237.549 121.95 237.459 122.325 237.459 122.755C237.459 123.155 237.554 123.52 237.744 123.85C237.934 124.18 238.189 124.44 238.509 124.63C238.829 124.82 239.174 124.915 239.544 124.915Z" fill="white"/>
<path d="M249.795 120.505C249.795 119.755 249.935 119.05 250.215 118.39C250.505 117.72 250.905 117.13 251.415 116.62C251.925 116.1 252.51 115.695 253.17 115.405C253.84 115.105 254.56 114.955 255.33 114.955C256.09 114.955 256.8 115.105 257.46 115.405C258.13 115.695 258.72 116.1 259.23 116.62C259.75 117.13 260.155 117.72 260.445 118.39C260.735 119.05 260.88 119.755 260.88 120.505C260.88 121.275 260.735 121.995 260.445 122.665C260.155 123.335 259.75 123.925 259.23 124.435C258.72 124.935 258.13 125.33 257.46 125.62C256.8 125.9 256.09 126.04 255.33 126.04C254.56 126.04 253.84 125.9 253.17 125.62C252.51 125.34 251.925 124.95 251.415 124.45C250.905 123.95 250.505 123.365 250.215 122.695C249.935 122.025 249.795 121.295 249.795 120.505ZM251.295 120.52C251.295 121.09 251.4 121.625 251.61 122.125C251.82 122.615 252.11 123.05 252.48 123.43C252.85 123.81 253.28 124.11 253.77 124.33C254.26 124.54 254.79 124.645 255.36 124.645C255.92 124.645 256.445 124.54 256.935 124.33C257.425 124.11 257.85 123.81 258.21 123.43C258.57 123.05 258.855 122.615 259.065 122.125C259.275 121.625 259.38 121.085 259.38 120.505C259.38 119.935 259.275 119.4 259.065 118.9C258.855 118.39 258.565 117.945 258.195 117.565C257.825 117.185 257.395 116.89 256.905 116.68C256.415 116.46 255.89 116.35 255.33 116.35C254.76 116.35 254.23 116.46 253.74 116.68C253.25 116.9 252.82 117.2 252.45 117.58C252.08 117.96 251.795 118.405 251.595 118.915C251.395 119.415 251.295 119.95 251.295 120.52Z" fill="white"/>
<path d="M263.496 125.92V120.955H262.431V119.71H263.496V117.085C263.496 116.185 263.696 115.495 264.096 115.015C264.506 114.535 265.106 114.295 265.896 114.295C266.106 114.295 266.336 114.325 266.586 114.385C266.846 114.445 267.071 114.545 267.261 114.685L266.676 115.69C266.586 115.6 266.486 115.54 266.376 115.51C266.266 115.47 266.156 115.45 266.046 115.45C265.676 115.45 265.391 115.575 265.191 115.825C264.991 116.075 264.891 116.5 264.891 117.1V119.71H266.856V120.955H264.891V125.92H263.496Z" fill="white"/>
<path d="M273.761 125.92V114.73H273.776L279.461 122.8L278.846 122.68L284.516 114.73H284.546V125.92H283.106V118.03L283.196 118.765L279.101 124.555H279.071L274.916 118.765L275.171 118.09V125.92H273.761Z" fill="white"/>
<path d="M289.897 126.07C289.317 126.07 288.787 125.945 288.307 125.695C287.837 125.445 287.462 125.08 287.182 124.6C286.912 124.11 286.777 123.515 286.777 122.815C286.777 122.125 286.922 121.53 287.212 121.03C287.502 120.52 287.887 120.13 288.367 119.86C288.857 119.59 289.392 119.455 289.972 119.455C290.552 119.455 291.042 119.59 291.442 119.86C291.842 120.12 292.147 120.43 292.357 120.79L292.267 121.03L292.402 119.71H293.692V125.92H292.297V124.3L292.447 124.66C292.407 124.76 292.317 124.89 292.177 125.05C292.047 125.2 291.867 125.355 291.637 125.515C291.417 125.675 291.162 125.81 290.872 125.92C290.582 126.02 290.257 126.07 289.897 126.07ZM290.272 124.915C290.622 124.915 290.937 124.85 291.217 124.72C291.497 124.59 291.727 124.41 291.907 124.18C292.097 123.94 292.227 123.655 292.297 123.325V122.11C292.217 121.81 292.077 121.55 291.877 121.33C291.677 121.1 291.437 120.925 291.157 120.805C290.877 120.675 290.567 120.61 290.227 120.61C289.857 120.61 289.517 120.7 289.207 120.88C288.897 121.06 288.647 121.31 288.457 121.63C288.277 121.95 288.187 122.325 288.187 122.755C288.187 123.155 288.282 123.52 288.472 123.85C288.662 124.18 288.917 124.44 289.237 124.63C289.557 124.82 289.902 124.915 290.272 124.915Z" fill="white"/>
<path d="M297.351 119.71L297.486 121.51L297.411 121.27C297.571 120.89 297.801 120.57 298.101 120.31C298.411 120.04 298.731 119.835 299.061 119.695C299.401 119.545 299.696 119.47 299.946 119.47L299.871 120.85C299.401 120.82 298.986 120.91 298.626 121.12C298.276 121.33 297.996 121.61 297.786 121.96C297.586 122.31 297.486 122.685 297.486 123.085V125.92H296.106V119.71H297.351Z" fill="white"/>
<path d="M301.746 125.92V114.31H303.141V125.92H301.746ZM304.641 121.795L307.491 125.92H305.856L303.711 122.575L304.641 121.795ZM302.706 123.94L302.571 122.605L306.336 119.575L307.191 120.31L302.706 123.94Z" fill="white"/>
<path d="M311.862 126.07C311.152 126.07 310.542 125.93 310.032 125.65C309.522 125.36 309.127 124.97 308.847 124.48C308.577 123.98 308.442 123.41 308.442 122.77C308.442 122.16 308.597 121.605 308.907 121.105C309.217 120.605 309.632 120.205 310.152 119.905C310.672 119.605 311.252 119.455 311.892 119.455C312.712 119.455 313.392 119.695 313.932 120.175C314.472 120.655 314.837 121.315 315.027 122.155L309.912 123.955L309.582 123.13L313.782 121.6L313.482 121.795C313.362 121.465 313.162 121.18 312.882 120.94C312.602 120.69 312.237 120.565 311.787 120.565C311.407 120.565 311.067 120.66 310.767 120.85C310.467 121.03 310.232 121.28 310.062 121.6C309.892 121.92 309.807 122.285 309.807 122.695C309.807 123.125 309.897 123.505 310.077 123.835C310.257 124.155 310.502 124.41 310.812 124.6C311.132 124.78 311.492 124.87 311.892 124.87C312.162 124.87 312.422 124.82 312.672 124.72C312.932 124.62 313.172 124.49 313.392 124.33L314.037 125.365C313.727 125.575 313.377 125.745 312.987 125.875C312.607 126.005 312.232 126.07 311.862 126.07Z" fill="white"/>
<path d="M317.375 116.98H318.77V119.74H320.48V120.835H318.77V125.92H317.375V120.835H316.235V119.74H317.375V116.98Z" fill="white"/>
<path d="M322.166 119.71H323.561V125.92H322.166V119.71ZM322.061 117.46C322.061 117.24 322.146 117.055 322.316 116.905C322.496 116.755 322.691 116.68 322.901 116.68C323.111 116.68 323.296 116.755 323.456 116.905C323.626 117.055 323.711 117.24 323.711 117.46C323.711 117.69 323.626 117.88 323.456 118.03C323.296 118.17 323.111 118.24 322.901 118.24C322.691 118.24 322.496 118.165 322.316 118.015C322.146 117.865 322.061 117.68 322.061 117.46Z" fill="white"/>
<path d="M327.219 119.71L327.339 121.225L327.279 120.985C327.479 120.525 327.804 120.16 328.254 119.89C328.704 119.61 329.224 119.47 329.814 119.47C330.404 119.47 330.884 119.645 331.254 119.995C331.634 120.335 331.829 120.78 331.839 121.33V125.92H330.429V121.825C330.419 121.485 330.319 121.21 330.129 121C329.949 120.78 329.664 120.67 329.274 120.67C328.914 120.67 328.589 120.77 328.299 120.97C328.009 121.17 327.779 121.445 327.609 121.795C327.449 122.145 327.369 122.55 327.369 123.01V125.92H325.974V119.71H327.219Z" fill="white"/>
<path d="M337.25 128.995C336.79 128.995 336.385 128.94 336.035 128.83C335.685 128.73 335.365 128.585 335.075 128.395C334.795 128.205 334.525 127.99 334.265 127.75L335.075 126.805C335.405 127.115 335.74 127.355 336.08 127.525C336.42 127.695 336.8 127.78 337.22 127.78C337.69 127.78 338.085 127.7 338.405 127.54C338.735 127.39 338.985 127.175 339.155 126.895C339.325 126.625 339.41 126.31 339.41 125.95L339.425 124.27L339.545 124.54C339.365 124.97 339.04 125.335 338.57 125.635C338.1 125.925 337.53 126.07 336.86 126.07C336.29 126.07 335.765 125.925 335.285 125.635C334.815 125.345 334.435 124.955 334.145 124.465C333.865 123.965 333.725 123.405 333.725 122.785C333.725 122.135 333.875 121.565 334.175 121.075C334.475 120.575 334.87 120.18 335.36 119.89C335.85 119.6 336.385 119.455 336.965 119.455C337.515 119.455 338.015 119.57 338.465 119.8C338.925 120.02 339.26 120.305 339.47 120.655L339.395 120.91L339.545 119.71H340.82V125.965C340.82 126.525 340.675 127.035 340.385 127.495C340.095 127.955 339.685 128.32 339.155 128.59C338.625 128.86 337.99 128.995 337.25 128.995ZM335.12 122.755C335.12 123.155 335.215 123.52 335.405 123.85C335.595 124.18 335.85 124.44 336.17 124.63C336.5 124.82 336.865 124.915 337.265 124.915C337.635 124.915 337.965 124.85 338.255 124.72C338.555 124.58 338.805 124.395 339.005 124.165C339.205 123.925 339.345 123.65 339.425 123.34V122.11C339.335 121.81 339.185 121.55 338.975 121.33C338.765 121.1 338.515 120.925 338.225 120.805C337.935 120.675 337.615 120.61 337.265 120.61C336.865 120.61 336.5 120.7 336.17 120.88C335.85 121.06 335.595 121.315 335.405 121.645C335.215 121.965 335.12 122.335 335.12 122.755Z" fill="white"/>
</svg>
