<svg width="882" height="637" viewBox="0 0 882 637" fill="none" xmlns="http://www.w3.org/2000/svg">
<g clip-path="url(#clip0_254_3)">
<g opacity="0.2">
<mask id="path-2-inside-1_254_3" fill="white">
<path d="M226.919 371.46C226.919 371.46 228.769 408.456 149.844 454.085C149.844 454.085 149.75 454.286 727.6 454.085C727.6 454.085 661.624 407.223 657.307 354.812"/>
</mask>
<path d="M149.844 454.085L146.841 448.89L145.2 449.839L144.401 451.558L149.844 454.085ZM727.6 454.085L727.602 460.085L746.4 460.078L731.074 449.193L727.6 454.085ZM226.919 371.46C220.927 371.759 220.926 371.753 220.926 371.747C220.926 371.745 220.926 371.739 220.925 371.735C220.925 371.728 220.925 371.721 220.924 371.715C220.924 371.702 220.924 371.692 220.923 371.683C220.923 371.667 220.923 371.658 220.923 371.659C220.923 371.66 220.923 371.696 220.922 371.765C220.919 371.903 220.908 372.176 220.871 372.577C220.795 373.377 220.611 374.696 220.159 376.479C219.257 380.038 217.275 385.51 212.899 392.467C204.144 406.389 185.697 426.426 146.841 448.89L152.847 459.279C192.916 436.114 213.006 414.839 223.057 398.856C228.085 390.861 230.573 384.232 231.791 379.428C232.399 377.03 232.686 375.101 232.818 373.701C232.884 373.001 232.911 372.434 232.919 372.008C232.924 371.795 232.923 371.617 232.921 371.476C232.92 371.405 232.919 371.343 232.917 371.29C232.916 371.264 232.915 371.24 232.914 371.218C232.914 371.208 232.913 371.197 232.913 371.188C232.913 371.183 232.912 371.176 232.912 371.173C232.912 371.167 232.912 371.16 226.919 371.46ZM149.844 454.085C144.401 451.558 144.242 456.233 147.487 459.602C147.787 459.721 148.396 459.907 148.703 459.975C149.01 460.035 149.257 460.056 149.294 460.059C149.442 460.073 149.559 460.078 149.579 460.079C149.653 460.082 149.714 460.083 149.732 460.084C149.785 460.085 149.848 460.086 149.923 460.086C150.081 460.088 150.376 460.09 150.941 460.093C152.076 460.098 154.336 460.105 158.848 460.113C167.872 460.129 185.922 460.148 222.026 460.16C294.236 460.185 438.677 460.185 727.602 460.085L727.598 448.085C438.673 448.185 294.236 448.185 222.03 448.16C185.927 448.148 167.884 448.129 158.869 448.113C154.36 448.105 152.113 448.098 150.996 448.093C150.435 448.09 150.168 448.088 150.045 448.087C149.98 448.086 149.972 448.086 149.99 448.086C149.991 448.087 150.043 448.088 150.113 448.091C150.131 448.091 150.247 448.096 150.394 448.11C150.431 448.113 150.677 448.134 150.985 448.194C151.291 448.262 151.9 448.448 152.201 448.567C155.446 451.936 155.286 456.611 149.844 454.085ZM727.6 454.085C731.074 449.193 731.075 449.194 731.076 449.194C731.076 449.194 731.076 449.194 731.076 449.194C731.076 449.194 731.074 449.193 731.072 449.191C731.067 449.188 731.058 449.181 731.046 449.172C731.021 449.154 730.98 449.125 730.924 449.085C730.812 449.004 730.64 448.879 730.412 448.711C729.955 448.376 729.274 447.868 728.398 447.2C726.645 445.862 724.119 443.88 721.066 441.335C714.951 436.238 706.764 428.915 698.46 420.01C681.633 401.964 665.272 378.416 663.287 354.319L651.328 355.304C653.659 383.618 672.445 409.707 689.684 428.194C698.414 437.556 706.991 445.225 713.382 450.552C716.581 453.219 719.243 455.308 721.116 456.738C722.052 457.453 722.792 458.003 723.304 458.38C723.56 458.568 723.759 458.713 723.897 458.812C723.966 458.862 724.02 458.901 724.059 458.928C724.078 458.942 724.093 458.953 724.104 458.961C724.11 458.965 724.114 458.968 724.118 458.971C724.12 458.972 724.122 458.973 724.122 458.974C724.124 458.975 724.126 458.976 727.6 454.085Z" fill="white" mask="url(#path-2-inside-1_254_3)"/>
</g>
<path d="M651.864 345.011V345.953L652.403 346.726C687.348 396.867 704.931 421.7 713.782 434.003C716.078 437.194 717.79 439.547 719.068 441.284C433.923 441.285 291.006 441.285 219.376 441.285C183.307 441.285 165.313 441.284 156.336 441.284L153.551 441.284L227.114 347.133L227.718 346.36L227.749 345.379L237.383 34.7714L237.479 31.6784H234.384H234.38C230.577 31.6784 226.93 30.1677 224.241 27.4786C221.552 24.7894 220.041 21.1422 220.041 17.3392C220.041 15.4561 220.412 13.5915 221.133 11.8518C221.853 10.1121 222.91 8.53135 224.241 7.19985C225.573 5.86832 227.153 4.8121 228.893 4.09149C230.633 3.37089 232.497 3 234.38 3H650.522C652.406 3 654.27 3.37089 656.01 4.0915C657.75 4.81211 659.33 5.86832 660.662 7.19984C661.993 8.53132 663.05 10.1121 663.77 11.8518C664.491 13.5915 664.862 15.4561 664.862 17.3389C664.862 20.5175 663.806 23.606 661.86 26.1195C659.914 28.633 657.189 30.4291 654.112 31.226L651.864 31.8081V34.1302V345.011Z" stroke="white" stroke-width="6"/>
<path opacity="0.2" d="M579.067 399.556C577.916 399.841 576.547 400.13 574.958 400.419C568.663 401.564 559.454 402.611 547.961 403.495C525.003 405.261 493.232 406.357 458.101 406.357C422.97 406.357 391.199 405.261 368.242 403.495C356.748 402.611 347.539 401.564 341.244 400.419C339.655 400.13 338.286 399.841 337.135 399.556C338.286 399.271 339.655 398.982 341.244 398.693C347.539 397.548 356.748 396.502 368.242 395.618C391.199 393.852 422.97 392.756 458.101 392.756C493.232 392.756 525.003 393.852 547.961 395.618C559.454 396.502 568.663 397.548 574.958 398.693C576.547 398.982 577.916 399.271 579.067 399.556ZM333.138 398.145C333.138 398.145 333.146 398.151 333.158 398.162C333.144 398.151 333.137 398.145 333.138 398.145ZM333.138 400.967C333.137 400.967 333.144 400.962 333.158 400.95C333.146 400.962 333.138 400.967 333.138 400.967ZM583.044 400.95C583.059 400.962 583.065 400.967 583.064 400.967C583.064 400.967 583.057 400.962 583.044 400.95ZM583.044 398.162C583.056 398.151 583.064 398.145 583.064 398.145C583.065 398.145 583.059 398.151 583.044 398.162Z" stroke="white" stroke-width="6"/>
<path opacity="0.2" d="M652.004 36.9303L651.907 43.8374L428.496 37.3309L652.004 36.9303Z" stroke="white" stroke-width="6"/>
<path d="M369.259 134.987C368.998 134.988 368.748 135.092 368.564 135.276C368.38 135.46 368.276 135.71 368.275 135.971L369.259 134.987ZM369.259 134.987V135.971V135.971H369.261L369.259 134.987ZM369.259 134.987H369.951V131.987M369.259 134.987L369.951 131.987M369.267 137.987L369.261 135.973M369.267 137.987L369.259 137.987V135.973L369.261 135.973M369.267 137.987C369.502 137.987 369.734 137.945 369.951 137.865C370.225 137.766 370.476 137.607 370.686 137.397C371.062 137.021 371.274 136.511 371.275 135.979L369.951 135.975L369.261 135.973M369.267 137.987L369.261 135.973M369.951 131.987V126.802V123.802H369.247C369.246 123.802 369.246 123.802 369.245 123.802C369.131 123.802 369.018 123.78 368.913 123.736C368.807 123.692 368.711 123.628 368.63 123.547C368.548 123.466 368.484 123.37 368.44 123.264C368.397 123.158 368.374 123.044 368.374 122.929V111.221C368.374 110.989 368.465 110.766 368.629 110.601C368.793 110.436 369.015 110.343 369.247 110.342H369.951V131.987ZM371.275 155.416V137.987H372.951V134.987V123.802V120.802H371.374V113.342H372.951V110.342V86.6339C372.951 86.6338 372.951 86.6338 372.951 86.6338C372.952 81.9211 374.824 77.4014 378.156 74.069C381.489 70.7367 386.008 68.8645 390.721 68.8643C390.721 68.8643 390.721 68.8643 390.721 68.8643H515.134C519.848 68.8642 524.368 70.7363 527.702 74.0687C531.035 77.401 532.908 81.9206 532.91 86.6338C532.91 86.634 532.91 86.6343 532.91 86.6346V142.372V145.372H535.191V180.259H532.91V183.259V382.371C532.909 387.085 531.036 391.606 527.703 394.94C524.369 398.273 519.848 400.146 515.134 400.146H390.721C388.387 400.146 386.076 399.686 383.92 398.793C381.764 397.899 379.805 396.59 378.155 394.939C376.505 393.289 375.196 391.329 374.303 389.173C373.41 387.016 372.951 384.705 372.951 382.371V382.371V190.243V187.243H371.322V169.61H372.951V166.61V158.416V155.416H371.275ZM369.26 187.243C369.262 187.243 369.264 187.243 369.266 187.243H369.265H369.26ZM371.374 111.214C371.374 111.216 371.374 111.219 371.374 111.221L371.374 111.214ZM369.243 120.802C369.244 120.802 369.246 120.802 369.247 120.802L369.243 120.802Z" stroke="white" stroke-width="6"/>
<mask id="path-8-inside-2_254_3" fill="white">
<path d="M458.921 76.5186H438.705C437.888 76.5186 437.226 77.1808 437.226 77.9978V79.7452C437.226 80.5621 437.888 81.2244 438.705 81.2244H458.921C459.738 81.2244 460.401 80.5621 460.401 79.7452V77.9978C460.401 77.1808 459.738 76.5186 458.921 76.5186Z"/>
</mask>
<path d="M438.705 82.5186H458.921V70.5186H438.705V82.5186ZM458.921 82.5186C456.424 82.5186 454.401 80.4945 454.401 77.9978H466.401C466.401 73.8672 463.052 70.5186 458.921 70.5186V82.5186ZM454.401 77.9978V79.7452H466.401V77.9978H454.401ZM454.401 79.7452C454.401 77.2484 456.425 75.2244 458.921 75.2244V87.2244C463.052 87.2244 466.401 83.8758 466.401 79.7452H454.401ZM458.921 75.2244H438.705V87.2244H458.921V75.2244ZM438.705 75.2244C441.201 75.2244 443.226 77.2483 443.226 79.7452H431.226C431.226 83.8759 434.574 87.2244 438.705 87.2244V75.2244ZM443.226 79.7452V77.9978H431.226V79.7452H443.226ZM443.226 77.9978C443.226 80.4946 441.202 82.5186 438.705 82.5186V70.5186C434.574 70.5186 431.226 73.867 431.226 77.9978H443.226Z" fill="white" mask="url(#path-8-inside-2_254_3)"/>
<path d="M466.243 78.8713C466.243 78.6886 466.391 78.5405 466.574 78.5405C466.757 78.5405 466.905 78.6886 466.905 78.8713C466.905 79.0541 466.757 79.2021 466.574 79.2021C466.391 79.2021 466.243 79.054 466.243 78.8713Z" stroke="white" stroke-width="6"/>
<path d="M522.961 90.7415V90.7425V384.092C522.96 386.792 521.887 389.38 519.978 391.288C518.069 393.197 515.48 394.269 512.78 394.269H393.686H393.681C392.344 394.271 391.02 394.01 389.785 393.499C388.549 392.989 387.427 392.24 386.482 391.295C385.536 390.35 384.787 389.228 384.276 387.993C383.765 386.758 383.503 385.434 383.505 384.097V384.094V90.7425V90.7424C383.505 89.4054 383.768 88.0815 384.28 86.8463C384.791 85.6111 385.541 84.4887 386.487 83.5433C387.432 82.5979 388.554 81.848 389.79 81.3364C391.025 80.8248 392.349 80.5615 393.686 80.5615H393.686H408.529C408.705 83.976 410.139 87.2148 412.568 89.6442C415.166 92.2422 418.69 93.7017 422.364 93.7018L482.933 93.7018C486.607 93.7017 490.13 92.2422 492.728 89.6442C495.158 87.2148 496.592 83.9759 496.767 80.5615L512.78 80.5615L512.781 80.5615C514.118 80.5611 515.442 80.8241 516.678 81.3355C517.913 81.847 519.035 82.5968 519.981 83.5422C520.926 84.4876 521.676 85.61 522.187 86.8453C522.699 88.0806 522.962 89.4045 522.961 90.7415Z" stroke="white" stroke-width="6"/>
<path d="M395.954 283.397V273.685H510.997V283.397H395.954Z" stroke="white" stroke-width="6"/>
<path d="M395.954 311.33V301.617H510.997V311.33H395.954Z" stroke="white" stroke-width="6"/>
<path d="M395.954 339.263V329.551H510.997V339.263H395.954Z" stroke="white" stroke-width="6"/>
<path d="M395.711 235.095V160.787H510.755V235.095H395.711Z" stroke="white" stroke-width="6"/>
<path d="M194.143 222.409C194.035 223.394 193.937 224.294 193.849 225.104C178.724 215.035 164.453 211.245 153.629 210.052C147.724 209.402 142.852 209.525 139.431 209.816C138.07 209.932 136.938 210.075 136.06 210.206C119.162 183.151 112.586 159.733 112.106 139.863C111.616 119.587 117.468 102.79 125.512 89.3683C133.57 75.9223 143.83 65.8631 152.105 59.1559C156.237 55.807 159.857 53.3073 162.432 51.6512C163.72 50.8235 164.745 50.2075 165.44 49.8024C165.592 49.714 165.728 49.6356 165.848 49.5672L221.385 49.2223C220.746 50.7143 220.123 52.4717 219.513 54.4306C217.804 59.9145 216.061 67.42 214.329 76.1903C210.859 93.7561 207.368 116.731 204.257 139.518C201.145 162.317 198.407 184.979 196.448 201.937C195.468 210.417 194.683 217.472 194.143 222.409Z" stroke="white" stroke-width="6"/>
<path opacity="0.2" d="M221.385 49.6715C220.746 51.1635 220.123 52.9209 219.513 54.8799C217.804 60.3637 216.061 67.8693 214.329 76.6395C210.859 94.2053 207.368 117.18 204.257 139.967C201.145 162.767 198.407 185.428 196.448 202.386C195.468 210.866 194.683 217.922 194.143 222.858C194.035 223.843 193.937 224.743 193.849 225.554C178.724 215.484 164.453 211.694 153.629 210.501C147.724 209.851 142.852 209.974 139.431 210.265C138.069 210.381 136.936 210.524 136.057 210.656C133.534 206.624 131.153 202.505 128.92 198.306C138.313 197.552 159.881 198.223 183.195 215.431L187.413 218.544L187.96 213.33L184.976 213.017C187.96 213.33 187.96 213.329 187.96 213.329L187.96 213.325L187.962 213.309L187.969 213.244L187.996 212.987C188.02 212.76 188.056 212.422 188.103 211.978C188.198 211.091 188.338 209.783 188.521 208.102C188.886 204.739 189.42 199.882 190.095 193.907C191.447 181.958 193.364 165.544 195.628 147.681C200.019 113.048 205.691 73.1558 211.051 49.7357L221.385 49.6715Z" stroke="white" stroke-width="6"/>
<path d="M72.123 90.4414L130.711 106.553L126.471 127.148L63.8386 115.763L62.5727 90.4414H72.123Z" stroke="white" stroke-width="6"/>
<path opacity="0.2" d="M62.5727 90.4414H67.2495L63.1742 102.474L62.5727 90.4414Z" stroke="white" stroke-width="6"/>
<path d="M136.614 115.972C136.614 120.558 135.8 124.566 134.604 127.316C134.004 128.696 133.367 129.623 132.813 130.163C132.272 130.689 131.968 130.707 131.903 130.707C131.837 130.707 131.534 130.689 130.993 130.163C130.438 129.623 129.801 128.696 129.202 127.316C128.006 124.566 127.192 120.558 127.192 115.972C127.192 111.386 128.006 107.377 129.202 104.627C129.801 103.247 130.438 102.32 130.993 101.78C131.534 101.254 131.837 101.236 131.903 101.236C131.968 101.236 132.272 101.254 132.813 101.78C133.367 102.32 134.004 103.247 134.604 104.627C135.8 107.377 136.614 111.386 136.614 115.972Z" stroke="white" stroke-width="6"/>
<mask id="path-21-inside-3_254_3" fill="white">
<path d="M91.8053 490.772C91.4957 490.772 91.1892 490.711 90.9032 490.593C90.6173 490.474 90.3574 490.301 90.1385 490.082C89.9197 489.863 89.746 489.603 89.6276 489.317C89.5092 489.031 89.4482 488.725 89.4482 488.415V115.972C89.4482 115.347 89.6966 114.748 90.1386 114.306C90.5806 113.864 91.1801 113.615 91.8052 113.615C92.4303 113.615 93.0298 113.864 93.4718 114.306C93.9138 114.748 94.1621 115.347 94.1621 115.972V488.415C94.1622 488.725 94.1012 489.031 93.9828 489.317C93.8644 489.603 93.6908 489.863 93.4719 490.082C93.253 490.301 92.9932 490.474 92.7072 490.593C92.4213 490.711 92.1148 490.772 91.8053 490.772Z"/>
</mask>
<path d="M91.8053 490.772L91.8056 484.772H91.8047L91.8053 490.772ZM89.4482 488.415L95.4482 488.416V488.415H89.4482ZM91.8052 113.615V107.615V113.615ZM94.1621 115.972H100.162H94.1621ZM94.1621 488.415H88.1621V488.416L94.1621 488.415ZM91.8047 484.772C92.2827 484.772 92.7566 484.866 93.1991 485.049L88.6074 496.136C89.6218 496.556 90.7087 496.772 91.8058 496.772L91.8047 484.772ZM93.1991 485.049C93.6418 485.233 94.0433 485.501 94.3812 485.839L85.8959 494.325C86.6715 495.1 87.5927 495.716 88.6074 496.136L93.1991 485.049ZM94.3812 485.839C94.7192 486.177 94.9877 486.579 95.171 487.021L84.0842 491.613C84.5044 492.628 85.1202 493.549 85.8959 494.325L94.3812 485.839ZM95.171 487.021C95.3541 487.464 95.4483 487.937 95.4482 488.416L83.4482 488.415C83.4481 489.512 83.6642 490.599 84.0842 491.613L95.171 487.021ZM95.4482 488.415V115.972H83.4482V488.415H95.4482ZM95.4482 115.972C95.4482 116.938 95.0644 117.865 94.3812 118.548L85.8959 110.063C84.3287 111.63 83.4482 113.756 83.4482 115.972H95.4482ZM94.3812 118.548C93.698 119.231 92.7714 119.615 91.8052 119.615V107.615C89.5888 107.615 87.4631 108.496 85.8959 110.063L94.3812 118.548ZM91.8052 119.615C90.839 119.615 89.9124 119.231 89.2292 118.548L97.7145 110.063C96.1472 108.496 94.0216 107.615 91.8052 107.615V119.615ZM89.2292 118.548C88.5459 117.865 88.1621 116.938 88.1621 115.972H100.162C100.162 113.756 99.2817 111.63 97.7145 110.063L89.2292 118.548ZM88.1621 115.972V488.415H100.162V115.972H88.1621ZM88.1621 488.416C88.1621 487.937 88.2563 487.464 88.4394 487.021L99.5262 491.613C99.9462 490.599 100.162 489.512 100.162 488.415L88.1621 488.416ZM88.4394 487.021C88.6224 486.579 88.8908 486.178 89.2292 485.839L97.7146 494.324C98.4907 493.548 99.1063 492.627 99.5262 491.613L88.4394 487.021ZM89.2292 485.839C89.5676 485.501 89.9693 485.233 90.4112 485.049L95.0032 496.136C96.0171 495.716 96.9385 495.101 97.7146 494.324L89.2292 485.839ZM90.4112 485.049C90.8533 484.866 91.3271 484.772 91.8056 484.772L91.8049 496.772C92.9025 496.772 93.9893 496.556 95.0032 496.136L90.4112 485.049Z" fill="white" mask="url(#path-21-inside-3_254_3)"/>
<mask id="path-23-inside-4_254_3" fill="white">
<path d="M124.189 556.316C123.643 556.315 123.114 556.125 122.692 555.777C122.271 555.43 121.983 554.946 121.879 554.41L89.4923 388.382C89.3878 387.846 89.4727 387.29 89.7326 386.81C89.9925 386.329 90.4113 385.954 90.9172 385.748C91.4232 385.542 91.985 385.518 92.5065 385.681C93.0281 385.843 93.4771 386.182 93.7767 386.638L179.369 517.195C179.712 517.718 179.833 518.356 179.706 518.968C179.578 519.58 179.213 520.116 178.69 520.459C178.168 520.802 177.53 520.923 176.918 520.796C176.306 520.668 175.769 520.303 175.427 519.78L96.4176 399.266L126.505 553.508C126.564 553.812 126.563 554.124 126.502 554.428C126.44 554.731 126.32 555.019 126.147 555.276C125.974 555.533 125.752 555.753 125.494 555.924C125.236 556.095 124.947 556.213 124.643 556.273C124.493 556.302 124.341 556.316 124.189 556.316Z"/>
</mask>
<path d="M124.189 556.316L124.181 562.316H124.186L124.189 556.316ZM121.879 554.41L115.99 555.559L115.99 555.56L121.879 554.41ZM89.4923 388.382L83.6031 389.53L83.6033 389.531L89.4923 388.382ZM93.7767 386.638L98.7945 383.349L98.7937 383.348L93.7767 386.638ZM179.369 517.195L174.351 520.485L174.352 520.485L179.369 517.195ZM175.427 519.78L170.409 523.07L170.409 523.071L175.427 519.78ZM96.4176 399.266L101.435 395.976L90.5286 400.414L96.4176 399.266ZM126.505 553.508L120.616 554.657L120.616 554.658L126.505 553.508ZM124.643 556.273L125.78 562.164L125.791 562.162L124.643 556.273ZM124.198 550.316C125.042 550.317 125.859 550.612 126.51 551.149L118.874 560.406C120.368 561.638 122.244 562.313 124.181 562.316L124.198 550.316ZM126.51 551.149C127.161 551.686 127.606 552.432 127.768 553.261L115.99 555.56C116.361 557.46 117.38 559.173 118.874 560.406L126.51 551.149ZM127.768 553.261L95.3813 387.234L83.6033 389.531L115.99 555.559L127.768 553.261ZM95.3814 387.234C95.543 388.063 95.4117 388.922 95.01 389.665L84.4553 383.955C83.5338 385.659 83.2325 387.629 83.6031 389.53L95.3814 387.234ZM95.01 389.665C94.6083 390.407 93.9612 390.987 93.1791 391.305L88.6554 380.191C86.8613 380.921 85.3767 382.252 84.4553 383.955L95.01 389.665ZM93.1791 391.305C92.3971 391.624 91.5289 391.661 90.7227 391.409L94.2904 379.952C92.4411 379.376 90.4493 379.461 88.6554 380.191L93.1791 391.305ZM90.7227 391.409C89.9166 391.158 89.2227 390.635 88.7596 389.929L98.7937 383.348C97.7314 381.728 96.1396 380.528 94.2904 379.952L90.7227 391.409ZM88.7589 389.928L174.351 520.485L184.387 513.906L98.7945 383.349L88.7589 389.928ZM174.352 520.485C173.822 519.677 173.635 518.692 173.831 517.746L185.58 520.189C186.031 518.019 185.602 515.759 184.386 513.905L174.352 520.485ZM173.831 517.746C174.028 516.8 174.592 515.971 175.4 515.442L181.981 525.476C183.834 524.261 185.129 522.359 185.58 520.189L173.831 517.746ZM175.4 515.442C176.208 514.912 177.193 514.725 178.139 514.921L175.697 526.67C177.867 527.121 180.127 526.692 181.981 525.476L175.4 515.442ZM178.139 514.921C179.085 515.118 179.914 515.682 180.444 516.49L170.409 523.071C171.625 524.924 173.527 526.219 175.697 526.67L178.139 514.921ZM180.444 516.491L101.435 395.976L91.3998 402.555L170.409 523.07L180.444 516.491ZM90.5286 400.414L120.616 554.657L132.394 552.359L102.307 398.117L90.5286 400.414ZM120.616 554.658C120.525 554.188 120.526 553.705 120.621 553.236L132.382 555.619C132.6 554.543 132.604 553.435 132.394 552.358L120.616 554.658ZM120.621 553.236C120.716 552.767 120.903 552.321 121.17 551.924L131.123 558.628C131.736 557.717 132.164 556.695 132.382 555.619L120.621 553.236ZM121.17 551.924C121.437 551.528 121.78 551.187 122.179 550.923L128.809 560.925C129.724 560.319 130.51 559.538 131.123 558.628L121.17 551.924ZM122.179 550.923C122.578 550.658 123.025 550.475 123.495 550.384L125.791 562.162C126.869 561.952 127.894 561.532 128.809 560.925L122.179 550.923ZM123.506 550.381C123.732 550.338 123.962 550.316 124.192 550.316L124.186 562.316C124.721 562.316 125.255 562.265 125.78 562.164L123.506 550.381Z" fill="white" mask="url(#path-23-inside-4_254_3)"/>
<mask id="path-25-inside-5_254_3" fill="white">
<path d="M2.35476 527.013C1.92999 527.013 1.51324 526.898 1.14859 526.68C0.78394 526.462 0.484953 526.15 0.283231 525.776C0.0815098 525.402 -0.0154479 524.981 0.00262233 524.556C0.0206926 524.132 0.153109 523.72 0.385877 523.365L89.834 386.88C90.1772 386.358 90.7132 385.994 91.3245 385.867C91.9358 385.741 92.5724 385.862 93.0946 386.204C93.6168 386.546 93.9818 387.081 94.1096 387.693C94.2375 388.304 94.1176 388.94 93.7764 389.463L4.32826 525.948C4.11385 526.276 3.82109 526.545 3.4765 526.731C3.1319 526.917 2.74635 527.014 2.35476 527.013Z"/>
</mask>
<path d="M2.35476 527.013L2.36364 521.013H2.36186L2.35476 527.013ZM0.385877 523.365L-4.63244 520.076L-4.63309 520.077L0.385877 523.365ZM89.834 386.88L84.8215 383.582L84.8157 383.591L89.834 386.88ZM93.7764 389.463L98.7947 392.752L98.8008 392.743L93.7764 389.463ZM4.32826 525.948L-0.690054 522.659L-0.692465 522.663L4.32826 525.948ZM2.36186 521.013C3.01856 521.014 3.66263 521.193 4.22605 521.529L-1.92887 531.83C-0.63616 532.603 0.841414 533.012 2.34767 533.013L2.36186 521.013ZM4.22605 521.529C4.78961 521.866 5.25173 522.349 5.56351 522.926L-4.99705 528.625C-4.28183 529.951 -3.22173 531.058 -1.92887 531.83L4.22605 521.529ZM5.56351 522.926C5.87525 523.504 6.02512 524.155 5.99719 524.811L-5.99195 524.301C-6.05602 525.806 -5.71223 527.3 -4.99705 528.625L5.56351 522.926ZM5.99719 524.811C5.96926 525.467 5.76462 526.103 5.40484 526.653L-4.63309 520.077C-5.45841 521.337 -5.92788 522.796 -5.99195 524.301L5.99719 524.811ZM5.40419 526.654L94.8523 390.169L84.8157 383.591L-4.63244 520.076L5.40419 526.654ZM94.8465 390.178C94.3162 390.984 93.4875 391.547 92.5424 391.743L90.1066 379.992C87.9389 380.442 86.0381 381.733 84.8215 383.582L94.8465 390.178ZM92.5424 391.743C91.5973 391.938 90.6131 391.751 89.806 391.222L96.3832 381.185C94.5317 379.972 92.2744 379.543 90.1066 379.992L92.5424 391.743ZM89.806 391.222C88.9987 390.693 88.4344 389.866 88.2368 388.921L99.9825 386.464C99.5293 384.297 98.2348 382.399 96.3832 381.185L89.806 391.222ZM88.2368 388.921C88.0392 387.976 88.2244 386.992 88.752 386.184L98.8008 392.743C100.011 390.889 100.436 388.631 99.9825 386.464L88.2368 388.921ZM88.7581 386.174L-0.690053 522.659L9.34657 529.237L98.7947 392.752L88.7581 386.174ZM-0.692465 522.663C-0.360492 522.156 0.0928299 521.739 0.626548 521.451L6.32645 532.011C7.54936 531.351 8.5882 530.396 9.34898 529.233L-0.692465 522.663ZM0.626548 521.451C1.16018 521.163 1.75723 521.013 2.36364 521.013L2.34589 533.013C3.73548 533.016 5.10363 532.671 6.32645 532.011L0.626548 521.451Z" fill="white" mask="url(#path-25-inside-5_254_3)"/>
<path d="M727.871 210.052C717.047 211.245 702.776 215.035 687.651 225.104C687.563 224.294 687.465 223.394 687.357 222.409C686.817 217.472 686.032 210.417 685.052 201.937C683.093 184.979 680.355 162.317 677.243 139.518C674.132 116.731 670.641 93.7561 667.171 76.1903C665.439 67.42 663.696 59.9145 661.987 54.4306C661.377 52.4717 660.754 50.7143 660.115 49.2223L715.652 49.5672C715.772 49.6356 715.908 49.714 716.06 49.8024C716.756 50.2075 717.78 50.8235 719.068 51.6512C721.643 53.3073 725.263 55.807 729.395 59.1559C737.67 65.8631 747.93 75.9223 755.988 89.3683C764.032 102.79 769.885 119.587 769.394 139.863C768.914 159.733 762.338 183.151 745.44 210.206C744.562 210.075 743.43 209.932 742.069 209.816C738.648 209.525 733.776 209.402 727.871 210.052Z" fill="#1E2A39" stroke="white" stroke-width="6"/>
<path opacity="0.2" d="M696.524 213.017L693.54 213.33L694.087 218.544L698.305 215.431C721.619 198.223 743.187 197.552 752.58 198.306C750.347 202.505 747.966 206.624 745.443 210.656C744.565 210.524 743.431 210.381 742.069 210.265C738.648 209.974 733.776 209.851 727.871 210.501C717.047 211.694 702.776 215.484 687.651 225.554C687.563 224.743 687.465 223.843 687.357 222.858C686.817 217.922 686.032 210.866 685.052 202.386C683.093 185.428 680.355 162.767 677.243 139.967C674.132 117.18 670.641 94.2053 667.171 76.6395C665.439 67.8693 663.696 60.3637 661.987 54.8799C661.377 52.9209 660.754 51.1635 660.115 49.6715L670.449 49.7357C675.809 73.1558 681.481 113.048 685.872 147.681C688.136 165.544 690.053 181.958 691.405 193.907C692.08 199.882 692.614 204.739 692.979 208.102C693.162 209.783 693.302 211.091 693.397 211.978C693.444 212.422 693.48 212.76 693.504 212.987L693.531 213.244L693.538 213.309L693.54 213.325L693.54 213.329C693.54 213.329 693.54 213.33 696.524 213.017Z" stroke="white" stroke-width="6"/>
<path d="M755.029 127.148L750.789 106.553L809.378 90.4414H818.927L817.662 115.763L755.029 127.148Z" stroke="white" stroke-width="6"/>
<path opacity="0.2" d="M814.25 90.4414H818.927L818.326 102.474L814.25 90.4414Z" stroke="white" stroke-width="6"/>
<path d="M754.309 115.972C754.309 120.558 753.495 124.566 752.299 127.316C751.699 128.696 751.062 129.623 750.507 130.163C749.966 130.689 749.663 130.707 749.598 130.707C749.532 130.707 749.229 130.689 748.688 130.163C748.133 129.623 747.496 128.696 746.896 127.316C745.701 124.566 744.887 120.558 744.887 115.972C744.887 111.386 745.701 107.377 746.896 104.627C747.496 103.247 748.133 102.32 748.688 101.78C749.229 101.254 749.532 101.236 749.598 101.236C749.663 101.236 749.966 101.254 750.507 101.78C751.062 102.32 751.699 103.247 752.299 104.627C753.495 107.377 754.309 111.386 754.309 115.972Z" stroke="white" stroke-width="6"/>
<mask id="path-32-inside-6_254_3" fill="white">
<path d="M789.695 490.772C789.385 490.772 789.079 490.711 788.793 490.593C788.507 490.474 788.247 490.301 788.028 490.082C787.809 489.863 787.636 489.603 787.517 489.317C787.399 489.031 787.338 488.725 787.338 488.415V115.972C787.338 115.347 787.586 114.748 788.028 114.306C788.47 113.864 789.07 113.615 789.695 113.615C790.32 113.615 790.919 113.864 791.361 114.306C791.803 114.748 792.052 115.347 792.052 115.972V488.415C792.052 488.725 791.991 489.031 791.872 489.317C791.754 489.603 791.58 489.863 791.362 490.082C791.143 490.301 790.883 490.474 790.597 490.593C790.311 490.711 790.004 490.772 789.695 490.772Z"/>
</mask>
<path d="M789.695 490.772L789.695 484.772H789.694L789.695 490.772ZM787.338 488.415L793.338 488.416V488.415H787.338ZM787.338 115.972H793.338H787.338ZM789.695 113.615V107.615V113.615ZM792.052 488.415H786.052V488.416L792.052 488.415ZM789.694 484.772C790.173 484.772 790.647 484.866 791.089 485.049L786.497 496.136C787.511 496.556 788.598 496.772 789.695 496.772L789.694 484.772ZM791.089 485.049C791.531 485.233 791.933 485.501 792.271 485.839L783.786 494.324C784.561 495.1 785.483 495.716 786.497 496.136L791.089 485.049ZM792.271 485.839C792.609 486.178 792.878 486.579 793.061 487.021L781.974 491.613C782.394 492.627 783.009 493.548 783.786 494.324L792.271 485.839ZM793.061 487.021C793.244 487.463 793.338 487.937 793.338 488.416L781.338 488.415C781.338 489.513 781.554 490.599 781.974 491.613L793.061 487.021ZM793.338 488.415V115.972H781.338V488.415H793.338ZM793.338 115.972C793.338 116.939 792.954 117.865 792.271 118.548L783.786 110.063C782.219 111.63 781.338 113.756 781.338 115.972H793.338ZM792.271 118.548C791.588 119.231 790.661 119.615 789.695 119.615V107.615C787.478 107.615 785.353 108.496 783.786 110.063L792.271 118.548ZM789.695 119.615C788.729 119.615 787.802 119.231 787.119 118.548L795.604 110.063C794.037 108.496 791.911 107.615 789.695 107.615V119.615ZM787.119 118.548C786.436 117.865 786.052 116.939 786.052 115.972H798.052C798.052 113.756 797.171 111.63 795.604 110.063L787.119 118.548ZM786.052 115.972V488.415H798.052V115.972H786.052ZM786.052 488.416C786.052 487.937 786.146 487.463 786.329 487.021L797.416 491.613C797.836 490.599 798.052 489.513 798.052 488.415L786.052 488.416ZM786.329 487.021C786.512 486.58 786.78 486.178 787.119 485.839L795.604 494.324C796.381 493.548 796.996 492.626 797.416 491.613L786.329 487.021ZM787.119 485.839C787.457 485.501 787.859 485.232 788.301 485.049L792.893 496.136C793.907 495.716 794.828 495.101 795.604 494.324L787.119 485.839ZM788.301 485.049C788.743 484.866 789.217 484.772 789.695 484.772L789.694 496.772C790.792 496.772 791.879 496.556 792.893 496.136L788.301 485.049Z" fill="white" mask="url(#path-32-inside-6_254_3)"/>
<path d="M786.813 399.345L783.787 398.114L788.437 391.022L786.813 399.345ZM703.565 518.135C703.565 518.135 703.566 518.134 703.566 518.133L703.565 518.135ZM704.641 518.838C704.641 518.839 704.64 518.84 704.64 518.84L704.64 518.84L704.641 518.838ZM702.131 517.195L702.131 517.195L702.131 517.195Z" stroke="white" stroke-width="6"/>
<mask id="path-35-inside-7_254_3" fill="white">
<path d="M879.145 527.013C878.754 527.014 878.368 526.917 878.024 526.731C877.679 526.545 877.386 526.276 877.172 525.948L787.724 389.463C787.383 388.94 787.263 388.304 787.391 387.693C787.519 387.081 787.884 386.546 788.406 386.204C788.928 385.862 789.565 385.741 790.176 385.867C790.787 385.994 791.323 386.358 791.666 386.88L881.115 523.365C881.347 523.72 881.48 524.132 881.498 524.556C881.516 524.981 881.419 525.402 881.217 525.776C881.015 526.15 880.716 526.462 880.352 526.68C879.987 526.898 879.57 527.013 879.145 527.013Z"/>
</mask>
<path d="M879.145 527.013L879.139 521.013H879.136L879.145 527.013ZM877.172 525.948L882.193 522.664L882.19 522.659L877.172 525.948ZM787.724 389.463L782.7 392.743L782.706 392.752L787.724 389.463ZM791.666 386.88L796.685 383.591L796.679 383.582L791.666 386.88ZM881.115 523.365L886.133 520.077L886.133 520.076L881.115 523.365ZM879.136 521.013C879.743 521.013 880.34 521.163 880.874 521.451L875.173 532.011C876.396 532.671 877.764 533.016 879.154 533.013L879.136 521.013ZM880.874 521.451C881.408 521.739 881.861 522.156 882.193 522.664L872.151 529.232C872.912 530.396 873.951 531.35 875.173 532.011L880.874 521.451ZM882.19 522.659L792.742 386.174L782.706 392.752L872.154 529.237L882.19 522.659ZM792.748 386.184C793.276 386.992 793.461 387.976 793.264 388.921L781.518 386.464C781.065 388.631 781.49 390.889 782.7 392.743L792.748 386.184ZM793.264 388.921C793.066 389.866 792.502 390.693 791.694 391.222L785.117 381.185C783.266 382.399 781.971 384.297 781.518 386.464L793.264 388.921ZM791.694 391.222C790.887 391.751 789.903 391.938 788.958 391.743L791.394 379.992C789.226 379.543 786.969 379.972 785.117 381.185L791.694 391.222ZM788.958 391.743C788.013 391.547 787.184 390.984 786.654 390.178L796.679 383.582C795.462 381.733 793.562 380.442 791.394 379.992L788.958 391.743ZM786.648 390.169L876.096 526.654L886.133 520.076L796.685 383.591L786.648 390.169ZM876.096 526.653C875.736 526.104 875.531 525.467 875.503 524.811L887.492 524.301C887.428 522.796 886.959 521.337 886.133 520.077L876.096 526.653ZM875.503 524.811C875.475 524.155 875.625 523.503 875.937 522.926L886.497 528.626C887.212 527.301 887.556 525.807 887.492 524.301L875.503 524.811ZM875.937 522.926C876.249 522.349 876.711 521.866 877.275 521.529L883.428 531.831C884.722 531.058 885.782 529.951 886.497 528.626L875.937 522.926ZM877.275 521.529C877.839 521.192 878.483 521.014 879.139 521.013L879.151 533.013C880.657 533.012 882.135 532.603 883.428 531.831L877.275 521.529Z" fill="white" mask="url(#path-35-inside-7_254_3)"/>
<path d="M378.388 306.864L380.31 306.271L395.266 301.926L395.47 301.867L395.623 301.798C395.638 301.792 395.666 301.782 395.707 301.768C395.815 301.733 396.001 301.681 396.243 301.64C396.733 301.558 397.396 301.532 398.125 301.738C399.374 302.092 401.804 303.428 403.624 309.244C405.518 315.298 404.673 317.872 404.133 318.786C403.854 319.259 403.55 319.484 403.37 319.589C403.299 319.63 403.243 319.656 403.211 319.668L403.11 319.697L387.443 324.058L385.403 322.869L384.844 316.631L384.771 315.82L384.299 315.157L378.388 306.864Z" stroke="white" stroke-width="6"/>
<path d="M356.848 295.715L364.978 294.053L362.152 295.183L365.393 298.402L370.293 303.267L371.441 304.406L373.023 304.074L377.571 303.119L384.316 309.667L383.977 309.756L379.062 311.043L382.563 314.725L386.793 319.173L382.318 337.047L378.535 338.11L377.755 337.914L352.429 313.369L356.848 295.715Z" fill="#1E2A39" stroke="white" stroke-width="6"/>
<path d="M365.689 313.217L376.506 323.934L374.659 331.308L363.529 320.786L365.689 313.217Z" stroke="white" stroke-width="6"/>
<path d="M354.396 293.155L353.653 296.123L380.648 322.384L382.982 322.968L389.014 321.336L389.346 321.329L390.104 318.302L384.737 312.658L390.223 311.221L378.516 299.856L372.407 301.138L367.507 296.273L370.814 294.951L371.126 293.706L367.12 290.553L354.396 293.155Z" stroke="#3F3D56" stroke-width="6" stroke-miterlimit="10"/>
<path d="M366.559 294.337C366.558 294.337 366.556 294.336 366.55 294.333C366.556 294.335 366.559 294.337 366.559 294.337ZM366.618 294.274C366.573 294.29 366.538 294.3 366.511 294.305C366.49 294.288 366.463 294.263 366.431 294.227C366.321 294.104 365.923 293.548 366.135 292.704C366.346 291.861 366.959 291.558 367.114 291.501C367.159 291.485 367.195 291.475 367.221 291.47C367.242 291.487 367.269 291.512 367.301 291.548C367.411 291.671 367.809 292.227 367.598 293.071C367.386 293.914 366.774 294.217 366.618 294.274ZM367.278 291.464C367.278 291.464 367.275 291.464 367.269 291.464C367.275 291.464 367.278 291.464 367.278 291.464ZM367.182 291.442C367.176 291.44 367.174 291.438 367.174 291.438C367.174 291.438 367.177 291.439 367.182 291.442ZM366.463 294.311C366.457 294.311 366.454 294.311 366.454 294.311C366.454 294.311 366.457 294.311 366.463 294.311Z" stroke="white" stroke-width="6"/>
<path d="M383.708 316.986C383.708 316.987 383.706 316.985 383.7 316.982C383.706 316.985 383.709 316.986 383.708 316.986ZM383.768 316.923C383.723 316.94 383.688 316.949 383.661 316.954C383.64 316.937 383.613 316.912 383.581 316.876C383.471 316.753 383.073 316.197 383.284 315.354C383.496 314.51 384.109 314.207 384.264 314.151C384.309 314.134 384.344 314.125 384.371 314.12C384.392 314.137 384.419 314.162 384.451 314.198C384.561 314.321 384.959 314.876 384.748 315.72C384.536 316.564 383.923 316.866 383.768 316.923ZM384.428 314.113C384.428 314.114 384.425 314.114 384.419 314.113C384.425 314.113 384.428 314.113 384.428 314.113ZM384.332 314.091C384.326 314.089 384.324 314.087 384.324 314.087C384.324 314.087 384.327 314.088 384.332 314.091ZM383.613 316.961C383.607 316.961 383.604 316.961 383.604 316.96C383.604 316.96 383.607 316.96 383.613 316.961Z" stroke="white" stroke-width="6"/>
<path d="M391.798 339.971L391.798 339.972L391.797 339.972L391.797 339.972L391.385 340.954L391.686 341.978L394.004 349.857L388.039 348.804L384.328 337.054C384.335 336.934 384.343 336.794 384.354 336.635C384.393 336.033 384.461 335.167 384.576 334.131C384.808 332.046 385.222 329.342 385.946 326.745C386.686 324.088 387.669 321.847 388.87 320.443C389.94 319.19 391.02 318.734 392.503 319.03C393.322 319.194 393.813 319.51 394.154 319.867C394.519 320.251 394.85 320.835 395.084 321.709C395.573 323.535 395.496 326.085 395.013 328.938C394.542 331.722 393.74 334.485 393.042 336.58C392.695 337.62 392.379 338.48 392.152 339.075C392.038 339.372 391.947 339.602 391.886 339.755C391.855 339.832 391.832 339.889 391.817 339.925L391.801 339.964L391.798 339.971Z" fill="#1E2A39" stroke="white" stroke-width="6"/>
<path d="M356.13 300.048C356.13 314.55 344.374 326.306 329.873 326.306C315.371 326.306 303.615 314.55 303.615 300.048C303.615 285.547 315.371 273.791 329.873 273.791C344.374 273.791 356.13 285.547 356.13 300.048Z" stroke="white" stroke-width="6"/>
<path d="M307.459 352.531L314.052 345.059L314.675 344.354L314.782 343.418L311.802 343.075C314.782 343.418 314.783 343.418 314.783 343.417L314.783 343.416L314.783 343.411L314.785 343.395L314.791 343.34C314.797 343.293 314.804 343.225 314.813 343.137C314.832 342.962 314.858 342.708 314.888 342.386C314.949 341.741 315.029 340.82 315.105 339.701C315.256 337.469 315.395 334.421 315.34 331.191C315.284 327.981 315.035 324.483 314.373 321.39C314.239 320.768 314.084 320.134 313.9 319.503L336.57 323.281C336.607 323.631 336.648 324.013 336.693 324.423C336.926 326.502 337.283 329.309 337.781 332.184C338.274 335.035 338.924 338.064 339.765 340.543C340.09 341.501 340.467 342.447 340.91 343.298C340.343 343.503 339.698 343.725 338.976 343.964C334.912 345.305 329.042 346.953 322.972 348.565C317.511 350.015 311.936 351.422 307.459 352.531ZM343.514 342.197C343.533 342.182 343.537 342.181 343.522 342.191C343.52 342.193 343.517 342.194 343.514 342.197Z" stroke="white" stroke-width="6"/>
<path d="M385.017 386.748L383.668 349.659L391.742 348.65C392.061 348.837 392.462 349.081 392.924 349.377C394.152 350.163 395.776 351.297 397.385 352.694C400.781 355.643 403.349 359.104 403.349 362.49C403.349 367.905 405.583 374.637 407.615 379.716C408.657 382.321 409.696 384.612 410.475 386.253C410.865 387.075 411.191 387.736 411.422 388.195C411.507 388.365 411.58 388.508 411.637 388.621C411.67 388.746 411.712 388.913 411.76 389.118C411.884 389.636 412.05 390.389 412.21 391.299C412.535 393.139 412.824 395.539 412.742 397.925C412.658 400.355 412.198 402.477 411.272 403.987C410.442 405.342 409.144 406.382 406.755 406.647C404.398 406.909 401.887 406.084 399.257 404.311C396.632 402.54 394.131 399.982 391.928 397.25C389.739 394.536 387.93 391.759 386.664 389.649C386.034 388.598 385.543 387.721 385.213 387.112C385.139 386.977 385.074 386.855 385.017 386.748Z" stroke="white" stroke-width="6"/>
<path d="M388.809 466.738L389.257 466.316L389.257 466.316L389.257 466.316L389.26 466.313L389.273 466.301L389.325 466.252C389.372 466.208 389.443 466.142 389.536 466.055C389.722 465.882 389.998 465.626 390.352 465.3C391.061 464.647 392.085 463.714 393.338 462.599C395.845 460.364 399.256 457.409 402.883 454.507C406.527 451.592 410.318 448.789 413.601 446.819C415.246 445.832 416.681 445.105 417.849 444.671C418.429 444.456 418.891 444.332 419.242 444.275C419.414 444.247 419.542 444.237 419.632 444.236C419.722 444.235 419.759 444.243 419.755 444.242C420.185 444.328 420.631 444.416 421.09 444.505C424.732 445.217 429.167 446.084 432.9 447.801C437.045 449.708 439.44 452.225 439.44 456.032C439.44 457.934 438.303 461.011 436.04 464.953C433.86 468.752 430.916 472.887 427.917 476.748C424.928 480.598 421.932 484.116 419.679 486.676C418.554 487.954 417.618 488.99 416.965 489.704C416.638 490.061 416.382 490.338 416.209 490.524C416.182 490.554 416.156 490.582 416.132 490.607C416.083 490.66 416.043 490.702 416.014 490.734L415.965 490.786L415.954 490.798L415.951 490.8L415.951 490.801L415.951 490.801L415.609 491.163L415.403 491.617L415.403 491.617L415.401 491.621L415.393 491.639L415.356 491.718C415.323 491.79 415.273 491.898 415.206 492.041C415.072 492.327 414.871 492.751 414.608 493.294C414.082 494.38 413.308 495.94 412.323 497.819C410.351 501.582 407.548 506.598 404.214 511.644C400.868 516.708 397.053 521.702 393.073 525.486C389.023 529.336 385.184 531.569 381.794 531.852L381.783 531.853L381.772 531.854C370.03 532.919 358.358 534.657 346.814 537.06L343.686 537.711L344.533 540.792L344.533 540.793L344.533 540.793L344.534 540.796L344.538 540.809L344.554 540.868C344.568 540.92 344.589 541 344.618 541.105C344.674 541.316 344.757 541.629 344.861 542.032C345.07 542.837 345.365 544.001 345.705 545.425C346.386 548.275 347.247 552.149 347.97 556.26C348.695 560.387 349.268 564.676 349.399 568.38C349.537 572.263 349.153 574.88 348.475 576.124C347.603 577.723 345.996 579.577 343.868 581.508C341.772 583.409 339.319 585.252 336.923 586.849C334.526 588.448 332.244 589.76 330.515 590.615C329.928 590.904 329.435 591.126 329.043 591.285C328.993 591.242 328.942 591.196 328.889 591.148C328.223 590.551 327.309 589.682 326.206 588.557C324.003 586.309 321.086 583.081 317.938 579.033C311.63 570.923 304.473 559.63 300.195 546.437C295.763 532.772 292.15 521.002 290.627 512.493C289.858 508.197 289.687 505.059 290.042 503.031C290.215 502.042 290.478 501.534 290.665 501.296C290.8 501.125 290.941 501.022 291.249 500.966C292.497 500.739 294.972 499.999 298.103 498.991C301.324 497.955 305.463 496.561 310.183 494.936C319.626 491.684 331.448 487.49 343.006 483.345C354.567 479.2 365.873 475.102 374.288 472.039C378.496 470.508 381.981 469.236 384.415 468.347C385.632 467.902 386.586 467.553 387.236 467.315L387.977 467.043L388.167 466.974L388.215 466.956L388.228 466.952L388.231 466.95C388.231 466.95 388.232 466.95 387.199 464.133L388.232 466.95L388.809 466.738Z" fill="#1E2A39" stroke="white" stroke-width="6"/>
<path d="M413.095 496.422C413.088 496.267 413.081 496.122 413.075 495.989L440.965 457.896C441.421 459.02 441.901 461.239 441.654 465.43C441.587 466.578 441.507 467.992 441.416 469.622C441.004 476.927 440.35 488.561 439.449 499.894C438.898 506.825 438.258 513.604 437.531 519.182C436.785 524.906 435.992 528.964 435.251 530.741C433.287 535.455 432.12 540.525 431.632 544.914C431.388 547.112 431.309 549.186 431.399 550.998C431.486 552.759 431.742 554.474 432.289 555.842C432.448 556.241 432.608 556.63 432.765 557.011C433.442 558.662 434.048 560.136 434.219 561.394C434.26 561.69 434.26 561.884 434.252 562.001C434.176 562.023 434.066 562.048 433.913 562.07C432.979 562.203 430.977 562.186 428.185 562C425.491 561.82 422.322 561.504 419.221 561.139C416.123 560.775 413.12 560.365 410.764 560.003C409.585 559.821 408.582 559.654 407.818 559.512C407.557 559.464 407.331 559.419 407.139 559.38C407.046 559.195 406.934 558.947 406.81 558.627C406.398 557.563 406.002 556.108 405.7 554.6C405.465 553.425 405.306 552.31 405.234 551.42C406.028 551.155 406.867 550.73 407.619 550.053C409.653 548.222 410.175 545.415 409.234 542.119C408.901 540.955 408.602 540.033 408.375 539.335C408.338 539.223 408.304 539.117 408.272 539.017C408.235 538.904 408.202 538.802 408.173 538.708C408.567 538.462 409.144 538.154 409.909 537.755C409.995 537.711 410.082 537.666 410.171 537.619C410.923 537.229 411.791 536.778 412.566 536.322C413.359 535.855 414.41 535.186 415.14 534.345C415.507 533.922 416.059 533.159 416.185 532.099C416.301 531.135 416.029 530.276 415.565 529.597C415.516 529.398 415.456 529.101 415.388 528.692C415.223 527.701 415.052 526.305 414.881 524.599C414.542 521.204 414.222 516.783 413.947 512.374C413.672 507.972 413.442 503.613 413.281 500.352C413.201 498.722 413.138 497.368 413.095 496.422ZM440.226 456.792C440.226 456.792 440.23 456.793 440.238 456.797C440.229 456.794 440.226 456.792 440.226 456.792ZM434.404 561.94C434.405 561.941 434.397 561.946 434.379 561.955C434.394 561.944 434.403 561.939 434.404 561.94ZM407.373 559.766C407.372 559.768 407.359 559.753 407.332 559.715C407.36 559.746 407.373 559.765 407.373 559.766Z" stroke="white" stroke-width="6"/>
<path d="M432.415 565.796L433.073 565.896L433.706 565.71L433.706 565.71L433.706 565.71L433.708 565.709L433.709 565.709L433.718 565.706C433.731 565.703 433.756 565.696 433.792 565.686C433.862 565.667 433.974 565.637 434.122 565.601C434.418 565.528 434.853 565.429 435.383 565.333C436.461 565.136 437.849 564.962 439.226 565C440.639 565.04 441.78 565.296 442.555 565.742C443.196 566.11 443.698 566.655 443.904 567.77C443.906 567.781 443.909 567.802 443.914 567.834C443.924 567.899 443.939 568.006 443.956 568.15C443.99 568.439 444.033 568.873 444.058 569.414C444.108 570.505 444.086 571.978 443.812 573.545C443.261 576.694 441.792 579.825 438.236 581.466L438.224 581.472L438.212 581.478C431.997 584.414 426.044 587.874 420.416 591.819C420.344 591.844 420.262 591.873 420.17 591.905C419.779 592.04 419.212 592.228 418.528 592.433C417.145 592.847 415.348 593.308 413.576 593.556C411.726 593.814 410.257 593.785 409.346 593.501C408.934 593.373 408.785 593.238 408.742 593.19L408.74 593.189C408.72 593.166 408.632 593.071 408.598 592.73C408.442 591.171 408.513 588.365 408.755 584.833C408.993 581.369 409.379 577.409 409.792 573.653C410.203 569.902 410.638 566.376 410.97 563.787C411.026 563.354 411.079 562.948 411.128 562.571L432.415 565.796Z" stroke="white" stroke-width="6"/>
<path d="M332.133 590.791C331.392 591.017 330.743 591.188 330.228 591.311L325.415 587.374L327.177 582.222C328.058 581.331 328.675 580.254 329.119 579.186C329.689 577.812 330.049 576.267 330.277 574.704C330.734 571.582 330.723 567.991 330.534 564.684C330.434 562.937 330.282 561.233 330.113 559.672L346.81 573.239C347.158 576.831 346.397 579.616 345.124 581.822C343.692 584.304 341.501 586.239 339.073 587.729C336.647 589.218 334.101 590.19 332.133 590.791Z" stroke="white" stroke-width="6"/>
<path d="M321.748 590.92L321.711 591.137L321.707 591.357L321.707 591.357L321.707 591.358L321.707 591.362L321.706 591.381L321.704 591.463C321.702 591.537 321.699 591.649 321.695 591.796C321.686 592.091 321.672 592.527 321.65 593.085C321.606 594.201 321.531 595.804 321.407 597.739C321.158 601.615 320.713 606.791 319.933 612.037C319.148 617.317 318.044 622.517 316.524 626.512C315.764 628.51 314.948 630.077 314.108 631.175C313.265 632.278 312.554 632.711 312.035 632.849C307.085 634.169 304.382 633.412 303.056 632.72C302.361 632.358 301.93 631.955 301.692 631.686C301.613 631.597 301.555 631.522 301.515 631.468C301.504 631.438 301.491 631.404 301.478 631.369C301.389 631.136 301.258 630.791 301.093 630.347C300.763 629.458 300.293 628.175 299.74 626.603C298.633 623.456 297.199 619.17 295.883 614.597C294.562 610.011 293.381 605.207 292.754 601.005C292.102 596.627 292.155 593.506 292.775 591.898C293.765 589.331 294.853 586.691 295.938 584.059C296.07 583.74 296.202 583.421 296.333 583.102C297.539 580.174 298.727 577.266 299.708 574.588C300.682 571.929 301.499 569.375 301.921 567.166C302.306 565.153 302.534 562.646 301.447 560.655C301.456 560.671 301.455 560.67 301.448 560.648C301.426 560.575 301.339 560.284 301.292 559.678C301.237 558.963 301.255 558.025 301.383 556.928C301.641 554.729 302.314 552.117 303.483 549.7C304.654 547.278 306.249 545.197 308.267 543.841C310.178 542.558 312.624 541.815 315.844 542.202C315.92 542.228 316.017 542.261 316.133 542.303C316.48 542.428 316.994 542.629 317.612 542.915C318.858 543.492 320.475 544.394 322.011 545.694C325 548.223 327.706 552.232 326.779 558.723C325.678 566.433 324.42 574.482 323.437 580.608C322.945 583.67 322.523 586.249 322.223 588.063C322.074 588.969 321.955 589.684 321.873 590.173L321.78 590.73L321.756 590.873L321.75 590.909L321.748 590.917L321.748 590.92L321.748 590.92C321.748 590.92 321.748 590.92 324.706 591.419L321.748 590.92Z" fill="#1E2A39" stroke="white" stroke-width="6"/>
<path d="M273.417 361.751C273.334 361.457 273.261 361.201 273.199 360.985C273.325 360.524 273.506 359.874 273.736 359.097C274.217 357.475 274.905 355.326 275.74 353.171C276.586 350.99 277.535 348.93 278.511 347.421C278.999 346.667 279.431 346.15 279.781 345.834C279.983 345.652 280.104 345.585 280.144 345.565C283.113 345.131 285.807 343.895 287.904 342.933C287.968 342.903 288.032 342.874 288.095 342.845C290.503 341.742 291.874 341.184 292.922 341.184C294.144 341.184 295.12 341.269 296.117 341.356C296.506 341.39 296.899 341.424 297.311 341.453C298.685 341.551 300.282 341.594 301.972 341.031C301.972 341.031 301.972 341.031 301.972 341.031L307.951 339.038C308.064 339.052 308.192 339.069 308.333 339.087C309.028 339.179 310.058 339.316 311.386 339.499C314.042 339.866 317.893 340.416 322.664 341.15C328.332 342.022 333.052 340.243 336.621 338.74C337.033 338.566 337.422 338.4 337.791 338.242C339.107 337.679 340.175 337.223 341.196 336.909C342.462 336.519 343.181 336.514 343.655 336.65C346.307 337.407 358.362 340.374 369.64 343.125C375.304 344.506 380.807 345.841 384.893 346.831C386.525 347.227 387.931 347.567 389.032 347.833L382.751 395.983L382.699 396.382L382.754 396.78L385.726 396.371C382.754 396.78 382.754 396.78 382.754 396.78L382.754 396.782L382.755 396.79L382.76 396.822L382.777 396.947L382.844 397.439C382.903 397.872 382.989 398.508 383.098 399.322C383.316 400.949 383.626 403.287 383.994 406.125C384.729 411.801 385.694 419.473 386.612 427.464C387.531 435.46 388.402 443.752 388.95 450.675C389.51 457.749 389.696 463.001 389.385 465.182C388.858 468.87 390.256 471.585 392.136 473.586C393.025 474.534 394.024 475.329 394.926 476.001C395.379 476.338 395.759 476.611 396.113 476.865C396.561 477.186 396.968 477.478 397.427 477.833C399.007 479.051 399.367 479.7 399.424 480.161C399.48 480.621 399.348 482.019 396.734 484.981C386.436 496.653 368.298 507.476 330.03 503.866C323.335 503.234 317.666 502.734 312.862 502.311C303.543 501.489 297.481 500.955 293.5 500.301C290.408 499.794 289.216 499.295 288.768 498.96C288.653 498.874 288.647 498.844 288.645 498.836C288.645 498.835 288.645 498.834 288.645 498.834C288.62 498.771 288.556 498.557 288.556 498.014C288.556 496.81 289.06 492.863 289.862 487.128C290.099 485.438 290.357 483.617 290.628 481.708C291.25 477.326 291.939 472.477 292.581 467.66C293.503 460.746 294.341 453.817 294.762 448.319C294.972 445.578 295.084 443.123 295.041 441.173C295.019 440.202 294.957 439.285 294.831 438.489C294.72 437.789 294.505 436.794 293.945 435.953C293.253 434.916 292.417 433.844 291.644 432.855C291.507 432.679 291.372 432.506 291.24 432.336C290.321 431.153 289.505 430.064 288.874 428.999C287.596 426.842 287.497 425.537 288.161 424.375C288.508 423.768 288.858 423.187 289.211 422.607C289.252 422.539 289.294 422.471 289.335 422.402C289.642 421.898 289.955 421.383 290.245 420.883C290.892 419.768 291.557 418.514 291.939 417.174C292.342 415.765 292.447 414.22 291.947 412.584C291.46 410.994 290.48 409.573 289.151 408.244C287.11 406.204 285.622 404.204 284.662 402.524C283.641 400.736 283.4 399.633 283.4 399.317C283.4 398.839 283.294 398.281 283.229 397.947C283.143 397.508 283.022 396.965 282.878 396.35C282.587 395.116 282.177 393.497 281.692 391.641C280.719 387.926 279.426 383.191 278.136 378.537C276.845 373.881 275.554 369.295 274.587 365.874C274.103 364.164 273.7 362.744 273.417 361.751Z" fill="#1E2A39" stroke="white" stroke-width="6"/>
<path d="M358.999 282.775L359.606 284.498L361.415 284.75C362.511 284.903 363.675 284.773 364.606 284.631C365.29 284.526 366.05 284.379 366.751 284.243C367.023 284.19 367.285 284.139 367.531 284.093C368.486 283.914 369.309 283.783 370.016 283.742C370.751 283.699 371.114 283.772 371.242 283.82C372.088 284.131 373.043 285.1 373.917 286.71C374.695 288.142 375.159 289.624 375.328 290.319C375.322 290.351 375.311 290.402 375.289 290.471C375.223 290.679 375.093 290.93 374.887 291.156C374.561 291.515 373.866 292.021 372.311 291.817C369.641 291.466 366.627 289.773 364.804 288.564L362.795 287.232L361.062 288.908C359.254 290.655 347.678 301.181 327.699 305.032L327.495 303.836L324.539 304.34L317.182 305.596L303.935 304.306C303.843 304.122 303.744 303.885 303.646 303.586L319.888 304.177L320.434 304.197L320.952 304.023L324.04 302.986L327.019 301.985L325.881 299.055C323.766 293.613 319.169 286.064 310.008 286.435C306.421 286.581 303.721 287.843 301.869 289.86C302.027 282.451 304.321 272.631 313.608 265.217C323.858 257.036 335.793 259.466 343.88 262.847L343.89 262.851C346.939 264.113 349.702 265.978 352.013 268.334C354.324 270.69 356.135 273.488 357.339 276.56L357.342 276.569L357.346 276.579C357.937 278.06 358.332 279.612 358.52 281.196L358.559 281.526L358.67 281.839L358.999 282.775Z" fill="#1E2A39" stroke="white" stroke-width="6"/>
<mask id="path-54-inside-8_254_3" fill="white">
<path d="M324.757 258.663C326.512 258.363 327.842 257.582 327.729 256.918C327.615 256.255 326.101 255.959 324.347 256.259C322.593 256.558 321.262 257.339 321.376 258.003C321.489 258.667 323.003 258.962 324.757 258.663Z"/>
</mask>
<path d="M321.814 257.928C321.454 255.816 322.382 254.3 322.863 253.694C323.348 253.084 323.809 252.81 323.906 252.753C324.14 252.615 324.099 252.688 323.748 252.748L325.767 264.577C327.171 264.337 328.671 263.87 329.981 263.102C330.616 262.729 331.497 262.116 332.255 261.164C333.009 260.216 334.06 258.353 333.643 255.909L321.814 257.928ZM323.748 252.748C323.397 252.808 323.334 252.753 323.6 252.805C323.711 252.827 324.236 252.933 324.896 253.347C325.551 253.759 326.93 254.882 327.29 256.993L315.461 259.012C315.878 261.456 317.488 262.865 318.514 263.509C319.544 264.156 320.579 264.442 321.302 264.583C322.792 264.874 324.363 264.817 325.767 264.577L323.748 252.748ZM327.29 256.993C327.65 259.105 326.723 260.622 326.241 261.227C325.756 261.837 325.295 262.111 325.198 262.169C324.964 262.306 325.006 262.233 325.356 262.173L323.338 250.344C321.934 250.584 320.433 251.051 319.124 251.82C318.489 252.192 317.607 252.805 316.85 253.757C316.095 254.705 315.044 256.568 315.461 259.012L327.29 256.993ZM325.356 262.173C325.707 262.113 325.771 262.168 325.504 262.116C325.394 262.095 324.868 261.989 324.208 261.574C323.553 261.163 322.175 260.04 321.814 257.928L333.643 255.909C333.226 253.465 331.616 252.057 330.59 251.412C329.56 250.765 328.525 250.479 327.802 250.338C326.312 250.048 324.741 250.105 323.338 250.344L325.356 262.173Z" fill="white" mask="url(#path-54-inside-8_254_3)"/>
</g>
<defs>
<clipPath id="clip0_254_3">
<rect width="881.5" height="636.573" fill="white"/>
</clipPath>
</defs>
</svg>
