<svg width="880" height="632" viewBox="0 0 880 632" fill="none" xmlns="http://www.w3.org/2000/svg">
<g clip-path="url(#clip0_259_2)">
<g clip-path="url(#clip1_259_2)">
<path d="M3.27502 410.275V3.36523H642V410.275H3.27502Z" stroke="white" stroke-width="6"/>
<path d="M21.7111 385.847V55.1543H623.564V385.847H21.7111Z" stroke="white" stroke-width="6"/>
<path d="M3 24.39V3H641.725V24.39H3Z" stroke="white" stroke-width="6"/>
<path d="M22.432 14.0038C22.432 15.1509 21.502 16.0808 20.355 16.0808C19.2079 16.0808 18.278 15.1509 18.278 14.0038C18.278 12.8567 19.2079 11.9268 20.355 11.9268C21.502 11.9268 22.432 12.8567 22.432 14.0038Z" stroke="white" stroke-width="6"/>
<path d="M41.701 14.0038C41.701 15.1509 40.7711 16.0808 39.624 16.0808C38.4769 16.0808 37.547 15.1509 37.547 14.0038C37.547 12.8567 38.4769 11.9268 39.624 11.9268C40.7711 11.9268 41.701 12.8567 41.701 14.0038Z" stroke="white" stroke-width="6"/>
<path d="M60.97 14.0038C60.97 15.1509 60.0401 16.0808 58.893 16.0808C57.7459 16.0808 56.816 15.1509 56.816 14.0038C56.816 12.8567 57.7459 11.9268 58.893 11.9268C60.0401 11.9268 60.97 12.8567 60.97 14.0038Z" stroke="white" stroke-width="6"/>
<path d="M96.5 205.83V82.8477H209.387V205.83H96.5Z" stroke="white" stroke-width="6"/>
<path d="M266.193 205.83V82.8477H379.08V205.83H266.193Z" stroke="white" stroke-width="6"/>
<path d="M435.885 205.83V82.8477H548.772V205.83H435.885Z" stroke="white" stroke-width="6"/>
<path d="M96.5 358.158V235.176H209.387V358.158H96.5Z" stroke="white" stroke-width="6"/>
<path d="M266.193 358.158V235.176H379.08V358.158H266.193Z" stroke="white" stroke-width="6"/>
<path d="M435.885 358.158V235.176H548.772V358.158H435.885Z" stroke="white" stroke-width="6"/>
<path d="M295.269 267.23L310.899 261.051L313.181 299.852L313.205 300.266L313.341 300.657L313.341 300.657L313.341 300.657L313.341 300.658L313.343 300.662L313.351 300.685L313.385 300.786C313.415 300.876 313.461 301.011 313.518 301.188C313.634 301.54 313.8 302.054 313.995 302.688C314.385 303.96 314.888 305.698 315.344 307.58C315.802 309.473 316.197 311.451 316.39 313.217C316.594 315.072 316.532 316.34 316.333 317.001L316.155 317.596L316.227 318.211L316.227 318.211L316.227 318.212L316.228 318.213L316.229 318.223L316.235 318.28C316.241 318.332 316.249 318.414 316.259 318.52C316.28 318.732 316.307 319.041 316.332 319.415C316.384 320.173 316.425 321.158 316.397 322.134C316.373 322.978 316.299 323.681 316.19 324.183C314.936 324.401 313.162 324.668 311.531 324.86C311.012 324.921 310.524 324.973 310.083 325.012L310.067 320.196L305.366 323.487L307.086 325.944C305.366 323.487 305.365 323.487 305.364 323.487L305.363 323.488L305.36 323.49L305.353 323.496L305.332 323.51C305.316 323.522 305.295 323.537 305.27 323.555C305.219 323.592 305.15 323.643 305.065 323.706C304.896 323.833 304.664 324.013 304.387 324.24C303.837 324.69 303.095 325.342 302.327 326.146C301.231 327.293 299.823 329.019 299.053 331.117C298.596 331.244 298.054 331.392 297.449 331.55C295.5 332.058 292.929 332.665 290.37 333.087C287.75 333.518 285.388 333.712 283.757 333.524C283.318 333.474 283.013 333.404 282.811 333.342C282.879 332.86 283.123 332.254 283.672 331.504C284.397 330.514 285.48 329.52 286.713 328.603C287.927 327.699 289.175 326.951 290.132 326.425C290.606 326.165 291 325.963 291.27 325.83C291.404 325.763 291.508 325.713 291.574 325.682C291.607 325.666 291.631 325.655 291.645 325.649L291.657 325.643L291.658 325.643L291.659 325.642L291.659 325.642L291.66 325.642L292.449 325.283L292.926 324.554L301.514 311.42L302.148 310.451L301.966 309.307L295.269 267.23ZM316.011 324.747C316.01 324.744 316.022 324.714 316.05 324.668C316.026 324.728 316.012 324.751 316.011 324.747ZM308.295 325.097C308.295 325.097 308.298 325.097 308.304 325.097C308.299 325.097 308.296 325.097 308.295 325.097Z" stroke="white" stroke-width="6"/>
<path d="M341.241 267.23L356.868 261.051L359.15 299.852L359.175 300.266L359.31 300.657L359.31 300.657L359.31 300.657L359.31 300.658L359.312 300.662L359.32 300.685L359.354 300.785C359.384 300.876 359.43 301.011 359.488 301.188C359.604 301.54 359.769 302.054 359.964 302.688C360.354 303.96 360.857 305.698 361.313 307.58C361.771 309.473 362.166 311.451 362.359 313.217C362.563 315.072 362.501 316.34 362.302 317.001L362.124 317.596L362.196 318.211L362.196 318.211L362.196 318.212L362.196 318.213L362.198 318.223L362.204 318.28C362.21 318.332 362.218 318.414 362.228 318.52C362.249 318.732 362.276 319.041 362.301 319.415C362.353 320.173 362.394 321.158 362.366 322.134C362.342 322.978 362.268 323.681 362.159 324.183C360.905 324.401 359.131 324.668 357.5 324.86C356.981 324.921 356.493 324.973 356.052 325.012L356.036 320.196L351.335 323.487L353.055 325.944C351.335 323.487 351.334 323.487 351.333 323.487L351.332 323.488L351.329 323.49L351.322 323.496L351.301 323.51C351.285 323.522 351.264 323.537 351.239 323.555C351.188 323.592 351.119 323.643 351.034 323.706C350.865 323.833 350.633 324.013 350.356 324.24C349.806 324.69 349.064 325.342 348.296 326.146C347.2 327.293 345.792 329.019 345.022 331.117C344.565 331.244 344.023 331.392 343.418 331.55C341.469 332.058 338.898 332.665 336.339 333.087C333.719 333.518 331.357 333.712 329.726 333.524C329.287 333.474 328.982 333.404 328.78 333.342C328.848 332.86 329.092 332.254 329.641 331.504C330.366 330.514 331.449 329.52 332.682 328.603C333.896 327.699 335.144 326.951 336.101 326.425C336.575 326.165 336.969 325.963 337.239 325.83C337.373 325.763 337.477 325.713 337.543 325.682C337.576 325.666 337.6 325.655 337.614 325.649L337.626 325.643L337.627 325.643L337.628 325.642L337.628 325.642L337.629 325.642L338.418 325.283L338.895 324.554L347.483 311.42L348.117 310.451L347.935 309.307L341.241 267.23ZM361.98 324.747C361.979 324.744 361.991 324.714 362.019 324.668C361.995 324.728 361.981 324.751 361.98 324.747ZM354.264 325.097C354.264 325.097 354.267 325.097 354.273 325.097C354.268 325.097 354.265 325.097 354.264 325.097Z" stroke="white" stroke-width="6"/>
<path d="M336.288 133.615C333.442 134.564 333.442 134.564 333.442 134.564L333.442 134.565L333.444 134.571L333.453 134.595L333.485 134.695C333.515 134.783 333.558 134.915 333.615 135.088C333.729 135.434 333.896 135.945 334.107 136.597C334.529 137.903 335.128 139.778 335.832 142.049C337.242 146.595 339.073 152.715 340.76 159.032C342.451 165.366 343.979 171.824 344.805 177.069C345.219 179.7 345.442 181.932 345.442 183.647C345.442 184.485 345.388 185.131 345.303 185.603C344.878 185.759 344.315 185.948 343.616 186.151C341.687 186.711 338.711 187.372 334.687 187.695C327.083 188.306 315.672 187.716 300.434 182.891L313.489 132.247L313.617 131.749L313.573 131.237L311.652 109.222L313.668 101.383C313.534 102.425 313.43 103.591 313.405 104.795C313.364 106.799 313.536 109.136 314.326 111.224C315.145 113.388 316.726 115.487 319.501 116.371C322.639 117.369 325.377 115.886 327.24 114.265C329.138 112.614 330.766 110.307 332.052 108.152C333.362 105.957 334.436 103.718 335.177 102.046C335.247 101.888 335.314 101.735 335.378 101.586L336.247 101.772C335.936 103.046 335.612 104.622 335.402 106.335C334.96 109.928 334.9 115.007 337.45 118.885L333.408 132.777L333.146 133.676L333.442 134.564L336.288 133.615ZM346.293 185.202L346.296 185.2L346.301 185.198C346.3 185.199 346.297 185.2 346.293 185.202Z" stroke="white" stroke-width="6"/>
<path d="M131.264 181.677L130.437 181.338L144.277 150.748L144.404 150.469L144.471 150.17L149.22 129.066L158.309 100.072L175.244 100.799C176.638 109.37 176.745 122.004 176.047 136.935C175.318 152.509 173.73 170.307 171.949 188.083L171.224 188.215L163.056 148.113L161.735 141.629L157.729 146.895L131.264 181.677Z" stroke="white" stroke-width="6"/>
<path d="M508.063 187.777L499.695 187.553L492.789 124.1L486.868 123.821L483.954 138.004L483.873 138.402L483.9 138.807L487.175 187.903L481.349 187.617L481.316 187.135C481.177 185.134 480.978 182.271 480.738 178.82C480.259 171.92 479.615 162.673 478.96 153.286C477.65 134.539 476.287 115.163 476.09 112.895C476.06 112.557 476.219 111.612 476.891 109.992C477.51 108.501 478.396 106.828 479.334 105.221C480.266 103.625 481.215 102.155 481.933 101.08C482.044 100.914 482.149 100.758 482.248 100.612L493.863 100.613L495.624 105.895L508.063 187.777Z" stroke="white" stroke-width="6"/>
<path d="M523.396 277.939L523.395 277.939C521.952 276.207 519.168 275.009 515.834 274.301L512.603 273.614L512.665 273.419C512.013 273.274 511.299 273.124 510.577 272.98C509.526 272.771 508.49 272.581 507.63 272.442L506.947 274.153L503.789 271.637L501.271 269.631L490.582 275.181L488.993 276.006L487.512 274.998L481.792 271.104L479.985 271.746L474.828 273.575L475.154 272.166C474.918 272.199 474.677 272.234 474.435 272.269C473.193 272.451 471.942 272.651 470.998 272.806C470.527 272.883 470.134 272.949 469.86 272.995C469.723 273.019 469.615 273.037 469.542 273.049L469.46 273.064L469.439 273.067L469.434 273.068L469.433 273.068L469.433 273.068L469.433 273.068L469.232 273.103L469.029 273.11C467.114 273.179 464.669 273.299 461.933 273.509L523.396 277.939ZM523.396 277.939C525.448 280.401 527.25 285.144 528.566 289.721C529.194 291.903 529.675 293.913 530.001 295.388M523.396 277.939L530.001 295.388M530.001 295.388L516.273 300.727L514.893 301.264L514.479 302.685L508.352 323.738C495.427 321.036 482.833 319.84 470.683 320.558L468.305 293.303L468.06 290.495L465.243 290.564C461.608 290.653 458.006 291.204 454.522 292.199C454.747 289.985 455.12 287.211 455.727 284.443C456.404 281.359 457.331 278.485 458.541 276.408C459.774 274.293 460.936 273.586 461.933 273.509L530.001 295.388ZM478.515 271.805C478.546 271.805 478.54 271.807 478.507 271.804C478.51 271.804 478.512 271.804 478.515 271.805ZM505.954 272.229C505.953 272.229 505.956 272.229 505.962 272.229C505.957 272.229 505.954 272.229 505.954 272.229Z" stroke="white" stroke-width="6"/>
<path d="M183.369 277.271C183.107 276.118 182.747 274.651 182.294 273.075C181.209 269.302 179.749 265.494 178.137 263.558L183.369 277.271ZM183.369 277.271L172.48 281.505L170.77 282.17L170.583 283.996L165.231 336.26C155.141 334.222 145.285 333.305 135.748 333.802L133.687 275.987L133.581 273.022L130.616 273.094C127.837 273.162 125.081 273.553 122.403 274.256C122.591 272.593 122.876 270.639 123.303 268.693C123.857 266.173 124.605 263.867 125.562 262.226C126.541 260.546 127.373 260.142 127.941 260.099L127.942 260.098C130.186 259.925 132.198 259.827 133.767 259.77L133.97 259.763L134.17 259.728L134.17 259.728L134.17 259.728L134.171 259.728L134.175 259.728L134.191 259.725L134.259 259.713C134.319 259.703 134.407 259.688 134.519 259.669C134.745 259.631 135.067 259.576 135.455 259.513C136.186 259.393 137.142 259.24 138.103 259.098L137.79 260.449L142.952 258.616L144.188 258.178L148.679 261.234L150.16 262.242L151.75 261.417L160.25 257.002L162.057 258.441L165.209 260.951L165.879 259.281C166.489 259.384 167.178 259.513 167.879 259.652C168.255 259.727 168.628 259.804 168.987 259.881L168.933 260.045L172.203 260.739C174.921 261.316 177.065 262.273 178.136 263.557L183.369 277.271ZM172.826 257.804L175.676 258.74C175.69 258.698 175.703 258.655 175.715 258.613L172.826 257.804ZM171.61 260.514C171.61 260.514 171.608 260.513 171.603 260.511C171.608 260.513 171.61 260.514 171.61 260.514ZM164.155 259.043C164.155 259.043 164.159 259.043 164.168 259.043C164.16 259.043 164.155 259.043 164.155 259.043Z" stroke="white" stroke-width="6"/>
<path d="M803.45 247.351V274.851H752.45V247.351C752.45 240.588 755.137 234.102 759.919 229.319C764.701 224.537 771.187 221.851 777.95 221.851C784.713 221.851 791.199 224.537 795.981 229.319C800.763 234.102 803.45 240.588 803.45 247.351Z" stroke="white" stroke-width="6"/>
<path d="M721.007 572.903L721.005 614.195H714.399L709.306 572.903H721.007Z" stroke="white" stroke-width="6"/>
<path d="M702.987 616.192C702.987 616.192 702.987 616.192 702.987 616.192H724.132V626.077H690.856C691.342 623.725 692.505 621.544 694.229 619.82C696.552 617.498 699.702 616.193 702.987 616.192Z" stroke="white" stroke-width="6"/>
<path d="M846.174 563.743L866.472 599.697L860.718 602.945L835.984 569.495L846.174 563.743Z" stroke="white" stroke-width="6"/>
<path d="M851.764 610.289C851.764 610.289 851.764 610.289 851.764 610.289L870.177 599.897L875.037 608.504L846.06 624.862C845.326 622.575 845.267 620.104 845.921 617.754C846.802 614.59 848.903 611.904 851.764 610.289Z" stroke="white" stroke-width="6"/>
<path d="M790.63 421.75C790.631 421.752 790.631 421.754 790.631 421.755C790.846 425.011 792.027 431.723 793.65 439.927C795.29 448.223 797.43 458.275 799.63 468.347C802.098 479.647 804.633 490.934 806.635 499.851C808.214 506.882 809.461 512.439 810.085 515.367L810.343 516.579L811.379 517.254L811.379 517.254L811.379 517.254L811.38 517.255L811.385 517.259L811.422 517.283C811.438 517.293 811.458 517.307 811.483 517.323C811.511 517.342 811.545 517.365 811.585 517.392C811.734 517.493 811.961 517.649 812.26 517.859C812.857 518.28 813.741 518.92 814.861 519.777C817.1 521.493 820.278 524.078 823.985 527.524C831.403 534.42 840.907 544.737 849.247 558.405C857.715 572.284 862.013 580.902 864.185 585.989C864.95 587.782 865.446 589.124 865.766 590.093L851.277 596.254L805.403 540.741L805.08 540.351L804.648 540.088L804.647 540.088L804.647 540.088L804.642 540.085L804.618 540.071L804.517 540.008C804.425 539.952 804.288 539.866 804.11 539.754C803.753 539.53 803.234 539.198 802.594 538.778C801.313 537.936 799.559 536.742 797.664 535.336C793.775 532.448 789.662 528.928 787.61 525.851C787.167 525.187 786.285 523.48 785.01 520.752C783.772 518.105 782.251 514.688 780.548 510.763C777.143 502.916 773.041 493.105 769.081 483.502C765.123 473.902 761.311 464.522 758.489 457.541C757.077 454.05 755.914 451.16 755.103 449.143C754.698 448.135 754.381 447.344 754.165 446.806L753.919 446.193L753.857 446.036L753.841 445.996L753.837 445.986L753.836 445.984C753.836 445.983 753.835 445.983 751.05 447.097L753.835 445.983L750.19 436.872L748.118 446.464L731.558 523.097L731.479 523.46L731.492 523.832L731.492 523.832L731.492 523.832L731.492 523.835L731.492 523.848L731.494 523.904C731.496 523.955 731.498 524.031 731.501 524.133C731.507 524.336 731.514 524.638 731.523 525.031C731.54 525.816 731.56 526.962 731.571 528.395C731.593 531.262 731.579 535.272 731.432 539.836C731.138 549.016 730.316 560.241 728.26 568.924L728.258 568.933L728.256 568.941C725.836 579.427 724.287 590.093 723.623 600.83L707.278 599.091C707.279 599.046 707.28 598.999 707.281 598.953C707.324 597.105 707.389 594.456 707.474 591.255C707.644 584.853 707.894 576.246 708.219 567.42C708.544 558.589 708.942 549.559 709.405 542.304C709.637 538.673 709.883 535.514 710.142 533.057C710.414 530.478 710.672 528.986 710.846 528.463L711.06 527.823L710.978 527.153L710.921 527.16C710.978 527.153 710.978 527.153 710.978 527.153L710.978 527.151L710.977 527.141L710.972 527.1L710.952 526.931C710.934 526.78 710.908 526.553 710.875 526.254C710.808 525.657 710.712 524.772 710.597 523.632C710.366 521.353 710.058 518.054 709.75 513.991C709.133 505.861 708.517 494.69 708.517 482.516C708.517 470.333 709.134 457.206 710.966 445.146C712.806 433.031 715.835 422.257 720.497 414.598L720.644 414.357L720.743 414.092L736.282 372.667L748.942 367.794L789.451 406.05L790.209 409.843L790.387 410.733L791.021 411.367L791.021 411.367L791.023 411.369L791.026 411.372L791.026 411.372C791.034 411.381 791.051 411.398 791.075 411.423C791.122 411.474 791.195 411.555 791.282 411.658C791.44 411.844 791.611 412.066 791.755 412.289C791.565 412.607 791.427 412.916 791.325 413.18C791.114 413.723 790.974 414.289 790.876 414.809C790.68 415.847 790.598 416.982 790.566 417.968C790.534 418.972 790.55 419.914 790.574 420.6C790.586 420.945 790.6 421.23 790.611 421.432C790.614 421.477 790.616 421.517 790.618 421.554C790.621 421.599 790.623 421.638 790.625 421.67L790.63 421.737L790.63 421.75Z" fill="#1E2A39" stroke="white" stroke-width="6"/>
<path d="M778.384 243C804.216 243.488 804.237 281.919 778.383 282.412C752.547 281.924 752.53 243.493 778.384 243Z" fill="#1E2A39" stroke="white" stroke-width="6"/>
<path d="M784.904 240.978L785.384 244.835H764.216L758.941 243.267L758.315 244.835H758.275L758.276 243.921V243.919V243.887C758.278 241.256 758.798 238.651 759.807 236.221C760.815 233.791 762.293 231.583 764.155 229.723C766.017 227.864 768.227 226.389 770.659 225.384C773.091 224.379 775.697 223.862 778.328 223.864C780.96 223.866 783.565 224.386 785.995 225.395C788.426 226.404 790.634 227.881 792.493 229.743C794.352 231.605 795.827 233.815 796.832 236.247C797.837 238.679 798.354 241.285 798.352 243.916V243.919V244.835H795.929L790.074 238.561L783.76 231.795L784.904 240.978Z" fill="black" stroke="white" stroke-width="6"/>
<path d="M734.965 365.825L735.035 365.622L735.075 365.411L749.941 287.997L800.558 288.407L789.25 403.163C787.475 403.03 784.961 402.82 781.952 402.508C775.825 401.873 767.685 400.821 759.569 399.155C751.408 397.479 743.472 395.221 737.643 392.248C731.89 389.313 729.215 386.234 728.969 383.186L734.965 365.825Z" stroke="white" stroke-width="6"/>
<path d="M808.622 416.154L808.614 416.143C808.024 415.421 807.6 414.578 807.371 413.675C807.143 412.771 807.115 411.828 807.29 410.912C807.465 409.997 807.839 409.131 808.385 408.375C808.931 407.619 809.636 406.993 810.45 406.539L812.199 405.565L811.97 403.575L809.789 384.629L816.516 382.143L819.166 408.399L819.218 408.91L819.436 409.374C820.105 410.796 820.23 412.414 819.788 413.922C819.345 415.429 818.366 416.722 817.034 417.557C815.703 418.392 814.112 418.71 812.562 418.451C811.012 418.193 809.611 417.375 808.622 416.154L808.622 416.154Z" stroke="white" stroke-width="6"/>
<path d="M792.516 328.855L799.255 297.087L805.421 288.468C805.676 288.506 805.976 288.568 806.315 288.668C807.725 289.082 810.013 290.201 812.672 293.303C812.671 293.302 812.672 293.304 812.675 293.308C812.702 293.35 812.909 293.677 813.211 294.548C813.512 295.419 813.828 296.591 814.15 298.062C814.792 300.999 815.408 304.89 815.99 309.449C817.151 318.554 818.146 330.082 818.958 341.44C819.768 352.787 820.392 363.921 820.813 372.222C821.024 376.371 821.184 379.81 821.291 382.211C821.311 382.673 821.33 383.097 821.347 383.48L804.76 387.249L792.516 328.855Z" stroke="white" stroke-width="6"/>
<path d="M676.733 466.649L675.19 393.311L759.605 380.52L814.935 400.003L812.813 476.181L724.585 491.937L676.733 466.649Z" fill="#1E2A39" stroke="white" stroke-width="6"/>
<mask id="path-32-inside-1_259_2" fill="white">
<path d="M723.965 495.911L672.978 468.966L671.316 390.05L759.974 376.617L760.163 376.684L818.815 397.336L816.53 479.381L723.965 495.911ZM674.565 467.987L724.227 494.231L814.959 478.029L817.175 398.463L759.818 378.266L672.953 391.428L674.565 467.987Z"/>
</mask>
<path d="M723.965 495.911L721.161 501.215L722.987 502.18L725.02 501.817L723.965 495.911ZM672.978 468.966L666.979 469.092L667.053 472.622L670.174 474.271L672.978 468.966ZM671.316 390.05L670.417 384.118L665.207 384.907L665.317 390.177L671.316 390.05ZM759.974 376.617L761.962 370.956L760.552 370.461L759.075 370.685L759.974 376.617ZM760.163 376.684L762.156 371.024L762.15 371.022L760.163 376.684ZM818.815 397.336L824.812 397.503L824.934 393.129L820.807 391.676L818.815 397.336ZM816.53 479.381L817.584 485.288L822.391 484.429L822.527 479.548L816.53 479.381ZM674.565 467.987L668.566 468.113L668.64 471.642L671.761 473.291L674.565 467.987ZM724.227 494.231L721.424 499.536L723.249 500.501L725.282 500.138L724.227 494.231ZM814.959 478.029L816.014 483.935L820.821 483.077L820.957 478.196L814.959 478.029ZM817.175 398.463L823.173 398.63L823.295 394.256L819.168 392.803L817.175 398.463ZM759.818 378.266L761.811 372.607L760.399 372.11L758.92 372.334L759.818 378.266ZM672.953 391.428L672.054 385.495L666.843 386.285L666.954 391.554L672.953 391.428ZM726.768 490.606L675.781 463.661L670.174 474.271L721.161 501.215L726.768 490.606ZM678.976 468.84L677.315 389.924L665.317 390.177L666.979 469.092L678.976 468.84ZM672.215 395.983L760.873 382.549L759.075 370.685L670.417 384.118L672.215 395.983ZM757.987 382.278L758.176 382.345L762.15 371.022L761.962 370.956L757.987 382.278ZM758.17 382.343L816.822 402.995L820.807 391.676L762.156 371.024L758.17 382.343ZM812.817 397.169L810.532 479.214L822.527 479.548L824.812 397.503L812.817 397.169ZM815.475 473.475L722.91 490.004L725.02 501.817L817.584 485.288L815.475 473.475ZM671.761 473.291L721.424 499.536L727.03 488.926L677.368 462.682L671.761 473.291ZM725.282 500.138L816.014 483.935L813.905 472.122L723.172 488.325L725.282 500.138ZM820.957 478.196L823.173 398.63L811.177 398.296L808.962 477.862L820.957 478.196ZM819.168 392.803L761.811 372.607L757.826 383.925L815.182 404.122L819.168 392.803ZM758.92 372.334L672.054 385.495L673.852 397.36L760.717 384.198L758.92 372.334ZM666.954 391.554L668.566 468.113L680.563 467.86L678.952 391.301L666.954 391.554Z" fill="white" mask="url(#path-32-inside-1_259_2)"/>
<mask id="path-34-inside-2_259_2" fill="white">
<path d="M722.973 411.816L722.776 411.738L671.838 391.485L672.431 389.992L723.173 410.166L817.885 397.103L818.105 398.695L722.973 411.816Z"/>
</mask>
<path d="M722.973 411.816L720.764 417.395L722.231 417.975L723.793 417.76L722.973 411.816ZM722.776 411.738L720.559 417.314L720.567 417.317L722.776 411.738ZM671.838 391.485L666.262 389.27L664.048 394.845L669.621 397.061L671.838 391.485ZM672.431 389.992L674.648 384.417L669.07 382.199L666.855 387.777L672.431 389.992ZM723.173 410.166L720.956 415.742L722.426 416.326L723.993 416.11L723.173 410.166ZM817.885 397.103L823.829 396.282L823.008 390.34L817.065 391.159L817.885 397.103ZM818.105 398.695L818.925 404.639L824.87 403.819L824.049 397.874L818.105 398.695ZM725.182 406.238L724.985 406.159L720.567 417.317L720.764 417.395L725.182 406.238ZM724.993 406.163L674.055 385.91L669.621 397.061L720.559 417.314L724.993 406.163ZM677.414 393.7L678.007 392.207L666.855 387.777L666.262 389.27L677.414 393.7ZM670.214 395.568L720.956 415.742L725.39 404.591L674.648 384.417L670.214 395.568ZM723.993 416.11L818.705 403.047L817.065 391.159L722.353 404.222L723.993 416.11ZM811.941 397.924L812.161 399.516L824.049 397.874L823.829 396.282L811.941 397.924ZM817.285 392.751L722.153 405.872L723.793 417.76L818.925 404.639L817.285 392.751Z" fill="white" mask="url(#path-34-inside-2_259_2)"/>
<mask id="path-36-inside-3_259_2" fill="white">
<path d="M723.877 410.981L722.27 411.001L723.292 495.08L724.9 495.061L723.877 410.981Z"/>
</mask>
<path d="M722.27 411.001L722.197 405.001L716.197 405.074L716.27 411.074L722.27 411.001ZM723.877 410.981L729.876 410.908L729.803 404.909L723.804 404.982L723.877 410.981ZM724.9 495.061L724.973 501.06L730.972 500.987L730.899 494.988L724.9 495.061ZM723.292 495.08L717.293 495.153L717.366 501.153L723.365 501.08L723.292 495.08ZM722.343 417.001L723.95 416.981L723.804 404.982L722.197 405.001L722.343 417.001ZM717.877 411.054L718.9 495.134L730.899 494.988L729.876 410.908L717.877 411.054ZM724.827 489.061L723.219 489.081L723.365 501.08L724.973 501.06L724.827 489.061ZM729.292 495.007L728.269 410.928L716.27 411.074L717.293 495.153L729.292 495.007Z" fill="white" mask="url(#path-36-inside-3_259_2)"/>
<path d="M793.819 392.439L716.889 404.698L709.285 401.615L786.216 389.357L793.819 392.439Z" stroke="white" stroke-width="6"/>
<mask id="path-39-inside-4_259_2" fill="white">
<path d="M672.452 413.289L671.817 414.766L693.113 423.935L693.749 422.459L672.452 413.289Z"/>
</mask>
<path d="M671.817 414.766L666.306 412.393L663.933 417.904L669.444 420.277L671.817 414.766ZM672.452 413.289L674.825 407.778L669.314 405.406L666.941 410.917L672.452 413.289ZM693.749 422.459L699.26 424.831L701.632 419.32L696.121 416.948L693.749 422.459ZM693.113 423.935L690.74 429.446L696.251 431.818L698.624 426.308L693.113 423.935ZM677.328 417.138L677.963 415.662L666.941 410.917L666.306 412.393L677.328 417.138ZM670.08 418.8L691.376 427.969L696.121 416.948L674.825 407.778L670.08 418.8ZM688.238 420.086L687.602 421.562L698.624 426.308L699.26 424.831L688.238 420.086ZM695.486 418.424L674.189 409.255L669.444 420.277L690.74 429.446L695.486 418.424Z" fill="white" mask="url(#path-39-inside-4_259_2)"/>
<mask id="path-41-inside-5_259_2" fill="white">
<path d="M682.096 439.81L681.46 441.286L702.757 450.455L703.392 448.979L682.096 439.81Z"/>
</mask>
<path d="M681.46 441.286L675.949 438.913L673.577 444.424L679.088 446.797L681.46 441.286ZM682.096 439.81L684.469 434.299L678.958 431.926L676.585 437.437L682.096 439.81ZM703.392 448.979L708.903 451.352L711.276 445.841L705.765 443.468L703.392 448.979ZM702.757 450.455L700.384 455.966L705.895 458.339L708.268 452.828L702.757 450.455ZM686.971 443.659L687.607 442.183L676.585 437.437L675.949 438.913L686.971 443.659ZM679.723 445.321L701.02 454.49L705.765 443.468L684.469 434.299L679.723 445.321ZM697.881 446.606L697.246 448.083L708.268 452.828L708.903 451.352L697.881 446.606ZM705.129 444.944L683.833 435.775L679.088 446.797L700.384 455.966L705.129 444.944Z" fill="white" mask="url(#path-41-inside-5_259_2)"/>
<path d="M396.733 574.649L395.19 501.311L479.605 488.52L534.935 508.003L532.813 584.181L444.585 599.937L396.733 574.649Z" stroke="white" stroke-width="6"/>
<mask id="path-44-inside-6_259_2" fill="white">
<path d="M443.965 603.911L392.978 576.966L391.316 498.05L479.974 484.617L480.163 484.684L538.815 505.336L536.53 587.381L443.965 603.911ZM394.565 575.987L444.227 602.231L534.959 586.029L537.175 506.463L479.818 486.266L392.953 499.428L394.565 575.987Z"/>
</mask>
<path d="M443.965 603.911L441.161 609.215L442.987 610.18L445.02 609.817L443.965 603.911ZM392.978 576.966L386.979 577.092L387.053 580.622L390.174 582.271L392.978 576.966ZM391.316 498.05L390.417 492.118L385.207 492.907L385.317 498.177L391.316 498.05ZM479.974 484.617L481.962 478.956L480.553 478.461L479.075 478.685L479.974 484.617ZM480.163 484.684L482.156 479.024L482.151 479.023L480.163 484.684ZM538.815 505.336L544.812 505.503L544.934 501.129L540.807 499.676L538.815 505.336ZM536.53 587.381L537.584 593.288L542.391 592.429L542.527 587.548L536.53 587.381ZM394.565 575.987L388.566 576.113L388.64 579.642L391.761 581.291L394.565 575.987ZM444.227 602.231L441.424 607.536L443.249 608.501L445.282 608.138L444.227 602.231ZM534.959 586.029L536.014 591.935L540.821 591.077L540.957 586.196L534.959 586.029ZM537.175 506.463L543.173 506.63L543.295 502.256L539.168 500.803L537.175 506.463ZM479.818 486.266L481.811 480.607L480.399 480.11L478.92 480.334L479.818 486.266ZM392.953 499.428L392.054 493.495L386.843 494.285L386.954 499.554L392.953 499.428ZM446.768 598.606L395.781 571.661L390.174 582.271L441.161 609.215L446.768 598.606ZM398.976 576.84L397.315 497.924L385.317 498.177L386.979 577.092L398.976 576.84ZM392.215 503.983L480.873 490.549L479.075 478.685L390.417 492.118L392.215 503.983ZM477.986 490.278L478.175 490.345L482.151 479.023L481.962 478.956L477.986 490.278ZM478.17 490.343L536.822 510.995L540.807 499.676L482.156 479.024L478.17 490.343ZM532.817 505.169L530.532 587.214L542.527 587.548L544.812 505.503L532.817 505.169ZM535.475 581.475L442.91 598.004L445.02 609.817L537.584 593.288L535.475 581.475ZM391.761 581.291L441.424 607.536L447.03 596.926L397.368 570.682L391.761 581.291ZM445.282 608.138L536.014 591.935L533.905 580.122L443.172 596.325L445.282 608.138ZM540.957 586.196L543.173 506.63L531.177 506.296L528.962 585.862L540.957 586.196ZM539.168 500.803L481.811 480.607L477.826 491.925L535.182 512.122L539.168 500.803ZM478.92 480.334L392.054 493.495L393.852 505.36L480.717 492.198L478.92 480.334ZM386.954 499.554L388.566 576.113L400.563 575.86L398.952 499.301L386.954 499.554Z" fill="white" mask="url(#path-44-inside-6_259_2)"/>
<mask id="path-46-inside-7_259_2" fill="white">
<path d="M442.973 519.816L442.776 519.738L391.838 499.485L392.431 497.992L443.173 518.166L537.885 505.103L538.105 506.695L442.973 519.816Z"/>
</mask>
<path d="M442.973 519.816L440.764 525.395L442.23 525.975L443.793 525.76L442.973 519.816ZM442.776 519.738L440.559 525.314L440.567 525.317L442.776 519.738ZM391.838 499.485L386.262 497.27L384.048 502.845L389.621 505.061L391.838 499.485ZM392.431 497.992L394.648 492.417L389.07 490.199L386.855 495.777L392.431 497.992ZM443.173 518.166L440.956 523.742L442.426 524.326L443.993 524.11L443.173 518.166ZM537.885 505.103L543.829 504.282L543.008 498.34L537.065 499.159L537.885 505.103ZM538.105 506.695L538.925 512.639L544.87 511.819L544.049 505.874L538.105 506.695ZM445.182 514.238L444.985 514.16L440.567 525.317L440.764 525.395L445.182 514.238ZM444.993 514.163L394.055 493.91L389.621 505.061L440.559 525.314L444.993 514.163ZM397.414 501.7L398.007 500.207L386.855 495.777L386.262 497.27L397.414 501.7ZM390.214 503.568L440.956 523.742L445.39 512.591L394.648 492.417L390.214 503.568ZM443.993 524.11L538.705 511.047L537.065 499.159L442.353 512.222L443.993 524.11ZM531.941 505.924L532.161 507.516L544.049 505.874L543.829 504.282L531.941 505.924ZM537.285 500.751L442.153 513.872L443.793 525.76L538.925 512.639L537.285 500.751Z" fill="white" mask="url(#path-46-inside-7_259_2)"/>
<mask id="path-48-inside-8_259_2" fill="white">
<path d="M443.877 518.981L442.27 519.001L443.292 603.08L444.9 603.061L443.877 518.981Z"/>
</mask>
<path d="M442.27 519.001L442.197 513.001L436.197 513.074L436.27 519.074L442.27 519.001ZM443.877 518.981L449.876 518.908L449.803 512.909L443.804 512.982L443.877 518.981ZM444.9 603.061L444.973 609.06L450.972 608.987L450.899 602.988L444.9 603.061ZM443.292 603.08L437.293 603.153L437.366 609.153L443.365 609.08L443.292 603.08ZM442.343 525.001L443.95 524.981L443.804 512.982L442.197 513.001L442.343 525.001ZM437.877 519.054L438.9 603.134L450.899 602.988L449.876 518.908L437.877 519.054ZM444.827 597.061L443.219 597.081L443.365 609.08L444.973 609.06L444.827 597.061ZM449.292 603.007L448.269 518.928L436.27 519.074L437.293 603.153L449.292 603.007Z" fill="white" mask="url(#path-48-inside-8_259_2)"/>
<path d="M509.337 498.615L432.438 510.868L429.319 509.61L506.219 497.356L509.337 498.615Z" stroke="white" stroke-width="6"/>
<mask id="path-51-inside-9_259_2" fill="white">
<path d="M392.452 521.289L391.817 522.766L413.113 531.935L413.749 530.459L392.452 521.289Z"/>
</mask>
<path d="M391.817 522.766L386.306 520.393L383.933 525.904L389.444 528.277L391.817 522.766ZM392.452 521.289L394.825 515.778L389.314 513.406L386.941 518.917L392.452 521.289ZM413.749 530.459L419.26 532.831L421.632 527.32L416.121 524.948L413.749 530.459ZM413.113 531.935L410.74 537.446L416.251 539.818L418.624 534.308L413.113 531.935ZM397.328 525.138L397.963 523.662L386.941 518.917L386.306 520.393L397.328 525.138ZM390.08 526.8L411.376 535.969L416.121 524.948L394.825 515.778L390.08 526.8ZM408.238 528.086L407.602 529.562L418.624 534.308L419.26 532.831L408.238 528.086ZM415.486 526.424L394.189 517.255L389.444 528.277L410.74 537.446L415.486 526.424Z" fill="white" mask="url(#path-51-inside-9_259_2)"/>
<mask id="path-53-inside-10_259_2" fill="white">
<path d="M402.096 547.81L401.46 549.286L422.757 558.455L423.392 556.979L402.096 547.81Z"/>
</mask>
<path d="M401.46 549.286L395.949 546.913L393.577 552.424L399.088 554.797L401.46 549.286ZM402.096 547.81L404.469 542.299L398.958 539.926L396.585 545.437L402.096 547.81ZM423.392 556.979L428.903 559.352L431.276 553.841L425.765 551.468L423.392 556.979ZM422.757 558.455L420.384 563.966L425.895 566.339L428.268 560.828L422.757 558.455ZM406.971 551.659L407.607 550.183L396.585 545.437L395.949 546.913L406.971 551.659ZM399.723 553.321L421.02 562.49L425.765 551.468L404.469 542.299L399.723 553.321ZM417.881 554.606L417.246 556.083L428.268 560.828L428.903 559.352L417.881 554.606ZM425.129 552.944L403.833 543.775L399.088 554.797L420.384 563.966L425.129 552.944Z" fill="white" mask="url(#path-53-inside-10_259_2)"/>
<path d="M484.425 597.81L482.618 511.968L581.149 497.039L645.823 519.812L643.34 608.988L540.371 627.375L484.425 597.81Z" fill="#1E2A39" stroke="white" stroke-width="6"/>
<mask id="path-56-inside-11_259_2" fill="white">
<path d="M539.729 631.484L480.541 600.206L478.613 508.598L581.53 493.004L581.75 493.081L649.834 517.055L647.182 612.296L539.729 631.484ZM482.383 599.069L540.034 629.535L645.359 610.727L647.931 518.363L581.35 494.918L480.513 510.196L482.383 599.069Z"/>
</mask>
<path d="M539.729 631.484L480.541 600.206L478.613 508.598L581.53 493.004L581.75 493.081L649.834 517.055L647.182 612.296L539.729 631.484ZM482.383 599.069L540.034 629.535L645.359 610.727L647.931 518.363L581.35 494.918L480.513 510.196L482.383 599.069Z" fill="#1E2A39"/>
<path d="M539.729 631.484L536.926 636.789L538.752 637.754L540.784 637.391L539.729 631.484ZM480.541 600.206L474.543 600.332L474.617 603.862L477.738 605.511L480.541 600.206ZM478.613 508.598L477.714 502.665L472.503 503.455L472.614 508.724L478.613 508.598ZM581.53 493.004L583.518 487.343L582.109 486.848L580.631 487.072L581.53 493.004ZM581.75 493.081L583.742 487.422L583.738 487.42L581.75 493.081ZM649.834 517.055L655.832 517.222L655.954 512.848L651.827 511.395L649.834 517.055ZM647.182 612.296L648.237 618.203L653.044 617.344L653.18 612.463L647.182 612.296ZM482.383 599.069L476.385 599.195L476.459 602.725L479.58 604.374L482.383 599.069ZM540.034 629.535L537.23 634.84L539.056 635.804L541.088 635.441L540.034 629.535ZM645.359 610.727L646.414 616.633L651.221 615.775L651.357 610.894L645.359 610.727ZM647.931 518.363L653.929 518.53L654.051 514.157L649.924 512.704L647.931 518.363ZM581.35 494.918L583.342 489.259L581.931 488.762L580.451 488.986L581.35 494.918ZM480.513 510.196L479.614 504.264L474.403 505.054L474.514 510.323L480.513 510.196ZM542.533 626.18L483.345 594.901L477.738 605.511L536.926 636.789L542.533 626.18ZM486.54 600.08L484.611 508.471L472.614 508.724L474.543 600.332L486.54 600.08ZM479.512 514.53L582.429 498.936L580.631 487.072L477.714 502.665L479.512 514.53ZM579.542 498.665L579.762 498.742L583.738 487.42L583.518 487.343L579.542 498.665ZM579.757 498.74L647.842 522.714L651.827 511.395L583.742 487.422L579.757 498.74ZM643.837 516.888L641.185 612.129L653.18 612.463L655.832 517.222L643.837 516.888ZM646.128 606.39L538.675 625.578L540.784 637.391L648.237 618.203L646.128 606.39ZM479.58 604.374L537.23 634.84L542.837 624.23L485.187 593.764L479.58 604.374ZM541.088 635.441L646.414 616.633L644.305 604.82L538.979 623.628L541.088 635.441ZM651.357 610.894L653.929 518.53L641.934 518.196L639.362 610.56L651.357 610.894ZM649.924 512.704L583.342 489.259L579.357 500.577L645.939 524.022L649.924 512.704ZM580.451 488.986L479.614 504.264L481.412 516.129L582.249 500.85L580.451 488.986ZM474.514 510.323L476.385 599.195L488.382 598.943L486.511 510.07L474.514 510.323Z" fill="white" mask="url(#path-56-inside-11_259_2)"/>
<mask id="path-58-inside-12_259_2" fill="white">
<path d="M538.578 533.865L538.35 533.774L479.218 510.264L479.907 508.53L538.81 531.949L648.755 516.785L649.01 518.633L538.578 533.865Z"/>
</mask>
<path d="M538.578 533.865L536.354 539.438L537.827 540.026L539.398 539.809L538.578 533.865ZM538.35 533.774L540.574 528.202L540.567 528.199L538.35 533.774ZM479.218 510.264L473.642 508.049L471.427 513.623L477.001 515.84L479.218 510.264ZM479.907 508.53L482.124 502.955L476.547 500.738L474.331 506.315L479.907 508.53ZM538.81 531.949L536.593 537.525L538.063 538.109L539.63 537.893L538.81 531.949ZM648.755 516.785L654.699 515.965L653.879 510.022L647.935 510.842L648.755 516.785ZM649.01 518.633L649.83 524.577L655.774 523.757L654.954 517.813L649.01 518.633ZM540.802 528.293L540.574 528.202L536.126 539.347L536.354 539.438L540.802 528.293ZM540.567 528.199L481.435 504.689L477.001 515.84L536.133 539.35L540.567 528.199ZM484.794 512.48L485.483 510.746L474.331 506.315L473.642 508.049L484.794 512.48ZM477.69 514.106L536.593 537.525L541.027 526.374L482.124 502.955L477.69 514.106ZM539.63 537.893L649.575 522.729L647.935 510.842L537.99 526.006L539.63 537.893ZM642.811 517.605L643.066 519.453L654.954 517.813L654.699 515.965L642.811 517.605ZM648.19 512.69L537.758 527.922L539.398 539.809L649.83 524.577L648.19 512.69Z" fill="white" mask="url(#path-58-inside-12_259_2)"/>
<mask id="path-60-inside-13_259_2" fill="white">
<path d="M539.627 532.895L537.761 532.918L538.949 630.521L540.815 630.498L539.627 532.895Z"/>
</mask>
<path d="M537.761 532.918L537.688 526.918L531.689 526.991L531.762 532.991L537.761 532.918ZM539.627 532.895L545.627 532.822L545.554 526.823L539.554 526.896L539.627 532.895ZM540.815 630.498L540.888 636.497L546.887 636.424L546.814 630.425L540.815 630.498ZM538.949 630.521L532.949 630.594L533.022 636.593L539.022 636.52L538.949 630.521ZM537.834 538.918L539.7 538.895L539.554 526.896L537.688 526.918L537.834 538.918ZM533.628 532.968L534.815 630.571L546.814 630.425L545.627 532.822L533.628 532.968ZM540.742 624.498L538.876 624.521L539.022 636.52L540.888 636.497L540.742 624.498ZM544.948 630.448L543.761 532.845L531.762 532.991L532.949 630.594L544.948 630.448Z" fill="white" mask="url(#path-60-inside-13_259_2)"/>
<path d="M617.988 509.558L527.211 524.023L521.303 521.756L612.079 507.291L617.988 509.558Z" stroke="white" stroke-width="6"/>
<mask id="path-63-inside-14_259_2" fill="white">
<path d="M479.932 535.575L479.194 537.289L503.916 547.933L504.653 546.219L479.932 535.575Z"/>
</mask>
<path d="M479.194 537.289L473.683 534.916L471.31 540.427L476.821 542.8L479.194 537.289ZM479.932 535.575L482.304 530.064L476.794 527.692L474.421 533.203L479.932 535.575ZM504.653 546.219L510.164 548.592L512.537 543.081L507.026 540.708L504.653 546.219ZM503.916 547.933L501.543 553.444L507.054 555.817L509.426 550.306L503.916 547.933ZM484.705 539.662L485.443 537.948L474.421 533.203L473.683 534.916L484.705 539.662ZM477.559 541.086L502.281 551.73L507.026 540.708L482.304 530.064L477.559 541.086ZM499.142 543.847L498.405 545.56L509.426 550.306L510.164 548.592L499.142 543.847ZM506.288 542.422L481.567 531.778L476.821 542.8L501.543 553.444L506.288 542.422Z" fill="white" mask="url(#path-63-inside-14_259_2)"/>
<mask id="path-65-inside-15_259_2" fill="white">
<path d="M491.126 566.361L490.389 568.074L515.11 578.718L515.848 577.005L491.126 566.361Z"/>
</mask>
<path d="M490.389 568.074L484.878 565.701L482.505 571.212L488.016 573.585L490.389 568.074ZM491.126 566.361L493.499 560.85L487.988 558.477L485.615 563.988L491.126 566.361ZM515.848 577.005L521.359 579.377L523.732 573.866L518.221 571.494L515.848 577.005ZM515.11 578.718L512.737 584.229L518.248 586.602L520.621 581.091L515.11 578.718ZM495.899 570.447L496.637 568.733L485.615 563.988L484.878 565.701L495.899 570.447ZM488.754 571.871L513.475 582.515L518.221 571.494L493.499 560.85L488.754 571.871ZM510.337 574.632L509.599 576.345L520.621 581.091L521.359 579.377L510.337 574.632ZM517.483 573.207L492.761 562.563L488.016 573.585L512.737 584.229L517.483 573.207Z" fill="white" mask="url(#path-65-inside-15_259_2)"/>
<path d="M699.393 400.877L699.232 400.953C697.847 401.571 696.286 401.681 694.826 401.259C693.314 400.823 692.015 399.847 691.175 398.517C690.335 397.187 690.011 395.595 690.266 394.042C690.521 392.489 691.337 391.084 692.559 390.093L692.959 389.768L693.228 389.327L706.98 366.805L711.969 371.957L701.803 388.093L700.735 389.788L701.891 391.424C702.429 392.185 702.794 393.055 702.959 393.973C703.124 394.89 703.087 395.832 702.849 396.733C702.61 397.635 702.178 398.473 701.581 399.189C700.984 399.905 700.237 400.481 699.393 400.877Z" fill="black" stroke="white" stroke-width="6"/>
<path d="M711.781 375.903L704.723 368.74C704.813 368.548 704.909 368.343 705.011 368.125C705.765 366.521 706.848 364.216 708.17 361.408C710.813 355.794 714.408 348.173 718.211 340.15C725.834 324.072 734.255 306.466 737.581 300.068C740.781 293.913 743.795 290.67 745.847 289C746.572 288.41 747.183 288.011 747.649 287.745L752.598 291.006L739.212 334.055L711.781 375.903Z" stroke="white" stroke-width="6"/>
</g>
</g>
<defs>
<clipPath id="clip0_259_2">
<rect width="880" height="632" fill="white"/>
</clipPath>
<clipPath id="clip1_259_2">
<rect width="880" height="632" fill="white"/>
</clipPath>
</defs>
</svg>
